<svg width="446" height="333" viewBox="0 0 446 333" fill="none" xmlns="http://www.w3.org/2000/svg">
<path d="M446 292.041H0V292.264H446V292.041Z" fill="#EBEBEB"/>
<path d="M401.311 306.393H371.768V306.616H401.311V306.393Z" fill="#EBEBEB"/>
<path d="M295.448 308.819H287.697V309.042H295.448V308.819Z" fill="#EBEBEB"/>
<path d="M370.876 298.115H353.758V298.338H370.876V298.115Z" fill="#EBEBEB"/>
<path d="M85.3198 299.614H46.7943V299.837H85.3198V299.614Z" fill="#EBEBEB"/>
<path d="M98.9139 299.614H93.2675V299.837H98.9139V299.614Z" fill="#EBEBEB"/>
<path d="M200.834 303.378H117.271V303.601H200.834V303.378Z" fill="#EBEBEB"/>
<path d="M211.404 252.258H39.1677C37.8184 252.255 36.5252 251.718 35.572 250.763C34.6187 249.808 34.0833 248.514 34.0833 247.164V5.04872C34.0951 3.70717 34.6356 2.42444 35.5876 1.47913C36.5396 0.533825 37.8261 0.00229814 39.1677 0H211.404C212.755 0 214.05 0.536616 215.006 1.4918C215.961 2.44698 216.497 3.74249 216.497 5.09332V247.164C216.497 248.515 215.961 249.811 215.006 250.766C214.05 251.721 212.755 252.258 211.404 252.258V252.258ZM39.1677 0.178401C37.8776 0.180764 36.6411 0.694926 35.7296 1.60803C34.8182 2.52114 34.3063 3.75857 34.3063 5.04872V247.164C34.3063 248.454 34.8182 249.692 35.7296 250.605C36.6411 251.518 37.8776 252.032 39.1677 252.035H211.404C212.695 252.032 213.932 251.518 214.845 250.606C215.758 249.693 216.272 248.455 216.274 247.164V5.04872C216.272 3.75776 215.758 2.52034 214.845 1.60749C213.932 0.694636 212.695 0.180759 211.404 0.178401H39.1677Z" fill="#EBEBEB"/>
<path d="M404.353 252.258H232.107C230.757 252.255 229.463 251.718 228.508 250.763C227.554 249.809 227.016 248.514 227.014 247.164V5.04872C227.028 3.70636 227.571 2.42363 228.524 1.47857C229.477 0.533513 230.765 0.00227307 232.107 0H404.353C405.693 0.00464241 406.977 0.537206 407.927 1.48226C408.877 2.42732 409.416 3.70872 409.428 5.04872V247.164C409.428 248.512 408.894 249.805 407.943 250.76C406.991 251.714 405.7 252.253 404.353 252.258V252.258ZM232.107 0.178401C230.816 0.180759 229.579 0.694636 228.666 1.60749C227.753 2.52034 227.239 3.75776 227.237 5.04872V247.164C227.239 248.455 227.753 249.693 228.666 250.606C229.579 251.518 230.816 252.032 232.107 252.035H404.353C405.643 252.032 406.881 251.518 407.794 250.606C408.707 249.693 409.22 248.455 409.223 247.164V5.04872C409.22 3.75776 408.707 2.52034 407.794 1.60749C406.881 0.694636 405.643 0.180759 404.353 0.178401H232.107Z" fill="#EBEBEB"/>
<path d="M368.289 72.4572L329.871 50.1036H300.265L261.195 71.3957V216.274H368.289V72.4572Z" fill="#E0E0E0"/>
<path d="M260.098 72.4571L261.195 71.3956C275.43 57.6884 294.437 50.0531 314.198 50.1036C333.952 50.0449 352.954 57.6671 367.192 71.36L368.289 72.4215V216.274H260.098V72.4571ZM361.117 75.5345C348.309 63.7966 331.567 57.2852 314.194 57.2852C296.82 57.2852 280.078 63.7966 267.27 75.5345V209.103H361.117V75.5345Z" fill="#FAFAFA"/>
<path d="M316.883 209.968H311.504V161.88H265.914V156.501H311.504V107.325H265.914V101.938H311.504V56.3477H316.883V101.938H362.473V107.325H316.883V156.501H362.473V161.88H316.883V209.968Z" fill="#F0F0F0"/>
<path d="M256.504 70.9942L257.556 69.9417C272.59 54.9406 292.96 46.5157 314.198 46.5157C335.436 46.5157 355.806 54.9406 370.84 69.9417L371.893 70.9942V219.869H256.504V70.9942ZM364.703 73.9825C351.112 60.9607 333.016 53.6911 314.194 53.6911C295.371 53.6911 277.276 60.9607 263.684 73.9825V212.688H364.703V73.9825Z" fill="#F0F0F0"/>
<path d="M151.158 112.838H147.858V165.172H151.158V112.838Z" fill="#E0E0E0"/>
<path d="M149.508 200.602C167.489 200.602 182.066 189.995 182.066 176.91C182.066 163.826 167.489 153.219 149.508 153.219C131.527 153.219 116.95 163.826 116.95 176.91C116.95 189.995 131.527 200.602 149.508 200.602Z" fill="#E0E0E0"/>
<path d="M77.9697 197.07V291.122H89.2803V221.35H209.745V291.122H221.055V197.07H77.9697Z" fill="#E0E0E0"/>
<path d="M224.9 191.441H74.1163V211.993H224.9V191.441Z" fill="#F0F0F0"/>
<path d="M172.085 151.604H126.923V160.087H172.085V151.604Z" fill="#E0E0E0"/>
<path d="M193.466 143.764H105.55L123.007 80.6814H176.009L193.466 143.764Z" fill="#F0F0F0"/>
<path d="M223 332.324C318.518 332.324 395.95 327.803 395.95 322.226C395.95 316.649 318.518 312.129 223 312.129C127.482 312.129 50.0501 316.649 50.0501 322.226C50.0501 327.803 127.482 332.324 223 332.324Z" fill="#F5F5F5"/>
<path d="M330.156 281.203C330.007 281.205 329.861 281.161 329.737 281.078C321.441 275.414 311.897 252.677 311.54 251.705C311.502 251.615 311.483 251.519 311.482 251.422C311.482 251.325 311.501 251.228 311.539 251.139C311.576 251.049 311.631 250.968 311.7 250.899C311.769 250.831 311.851 250.777 311.941 250.741C312.031 250.703 312.128 250.684 312.226 250.683C312.324 250.683 312.421 250.702 312.511 250.739C312.602 250.777 312.684 250.831 312.753 250.901C312.822 250.97 312.876 251.052 312.914 251.143C313.003 251.366 322.226 273.443 330.049 279.464C332.118 277.234 340.94 268.617 356.764 265.192C356.86 265.171 356.958 265.17 357.054 265.187C357.15 265.205 357.242 265.241 357.324 265.294C357.406 265.347 357.477 265.416 357.532 265.496C357.588 265.577 357.627 265.667 357.647 265.763C357.668 265.858 357.669 265.957 357.652 266.053C357.634 266.149 357.598 266.24 357.545 266.322C357.492 266.404 357.423 266.475 357.343 266.531C357.262 266.586 357.172 266.625 357.077 266.646C339.745 270.365 330.816 280.811 330.727 280.918C330.659 281.004 330.572 281.075 330.473 281.124C330.375 281.173 330.266 281.2 330.156 281.203V281.203Z" fill="#263238"/>
<path d="M333.456 262.186C333.456 262.186 331.324 246.513 321.298 244.8C311.272 243.088 314.296 235.506 311.683 232.571C309.069 229.636 302.245 238.289 308.115 246.674C313.984 255.058 309.176 252.427 311.683 260.223C314.189 268.019 334.375 275.182 333.456 262.186Z" fill="#2452B3"/>
<path opacity="0.2" d="M333.456 262.186C333.456 262.186 331.324 246.513 321.298 244.8C311.272 243.088 314.296 235.506 311.683 232.571C309.069 229.636 302.245 238.289 308.115 246.674C313.984 255.058 309.176 252.427 311.683 260.223C314.189 268.019 334.375 275.182 333.456 262.186Z" fill="white"/>
<path d="M331.333 273.255C331.204 273.258 331.077 273.214 330.976 273.133C330.875 273.051 330.805 272.937 330.78 272.809C329.71 268.166 328.4 263.581 326.856 259.072C323.635 249.145 320.308 238.869 322.583 227.852C324.447 218.808 329.005 210.485 333.421 202.439C334.158 201.09 334.889 199.746 335.615 198.408C336.204 197.31 336.801 196.213 337.399 195.116C341.449 187.623 345.641 179.872 348.594 171.781C352.286 161.684 352.804 153.049 350.172 145.289C350.134 145.149 350.151 144.999 350.22 144.871C350.288 144.743 350.403 144.645 350.54 144.599C350.678 144.552 350.828 144.56 350.96 144.62C351.092 144.68 351.197 144.789 351.252 144.923C353.928 152.907 353.446 161.818 349.664 172.174C346.676 180.345 342.466 188.123 338.389 195.651L336.605 198.943C335.883 200.29 335.142 201.619 334.402 202.984C330.031 210.958 325.482 219.2 323.698 228.075C321.486 238.779 324.59 248.467 327.944 258.707C329.502 263.252 330.821 267.876 331.895 272.56C331.925 272.706 331.895 272.858 331.813 272.983C331.732 273.108 331.604 273.196 331.458 273.229L331.333 273.255Z" fill="#263238"/>
<path d="M353.232 153.353C353.232 153.353 360.065 134.344 345.73 133.55C331.396 132.756 346.72 151.132 353.232 153.353Z" fill="#2452B3"/>
<path d="M340.369 167.758C340.369 167.758 336.569 150.204 326.276 153.602C315.982 157.001 330.21 167.812 340.369 167.758Z" fill="#2452B3"/>
<path d="M357.612 169.739C357.612 169.739 356.452 155.779 367.272 155.797C378.092 155.815 372.945 167.91 357.612 169.739Z" fill="#2452B3"/>
<path d="M349.664 197.944C349.664 197.944 364.525 185.402 369.484 195.17C374.444 204.937 358.209 206.498 349.664 197.944Z" fill="#2452B3"/>
<path d="M324.046 194.947C324.046 194.947 321.896 173.396 309.997 179.783C298.097 186.169 313.77 196.82 324.046 194.947Z" fill="#2452B3"/>
<path d="M312.896 225.426C312.896 225.426 322.137 203.956 305.992 205.963C289.846 207.97 301.692 219.851 312.896 225.426Z" fill="#2452B3"/>
<path d="M337.354 233.838C337.354 233.838 351.368 218.21 361.599 223.562C371.83 228.914 362.928 244.595 337.354 233.838Z" fill="#2452B3"/>
<g opacity="0.2">
<path opacity="0.2" d="M353.232 153.353C353.232 153.353 360.065 134.344 345.73 133.55C331.396 132.756 346.72 151.132 353.232 153.353Z" fill="white"/>
<path opacity="0.2" d="M340.369 167.758C340.369 167.758 336.569 150.204 326.276 153.602C315.982 157.001 330.209 167.812 340.369 167.758Z" fill="white"/>
<path opacity="0.2" d="M357.612 169.739C357.612 169.739 356.452 155.779 367.272 155.797C378.092 155.815 372.945 167.91 357.612 169.739Z" fill="white"/>
<path opacity="0.2" d="M349.664 197.944C349.664 197.944 364.525 185.402 369.484 195.17C374.444 204.937 358.209 206.498 349.664 197.944Z" fill="white"/>
<path opacity="0.2" d="M324.046 194.947C324.046 194.947 321.896 173.396 309.997 179.783C298.097 186.169 313.77 196.82 324.046 194.947Z" fill="white"/>
<path opacity="0.2" d="M312.896 225.426C312.896 225.426 322.137 203.956 305.992 205.963C289.846 207.97 301.692 219.851 312.896 225.426Z" fill="white"/>
<path opacity="0.2" d="M337.354 233.838C337.354 233.838 351.368 218.21 361.599 223.562C371.83 228.914 362.928 244.595 337.354 233.838Z" fill="white"/>
</g>
<path d="M346.337 179.346C346.278 179.355 346.218 179.355 346.158 179.346C346.086 179.323 346.018 179.286 345.96 179.237C345.902 179.188 345.854 179.128 345.819 179.06C345.775 178.953 340.548 168.24 336.445 165.627C336.329 165.541 336.25 165.415 336.224 165.273C336.197 165.132 336.225 164.986 336.302 164.864C336.378 164.742 336.498 164.654 336.637 164.617C336.776 164.58 336.924 164.596 337.051 164.663C340.922 167.134 345.445 175.778 346.578 178.043C354.686 173.583 360.805 165.065 360.85 164.984C360.948 164.902 361.071 164.856 361.199 164.852C361.327 164.848 361.452 164.887 361.555 164.963C361.658 165.04 361.733 165.148 361.766 165.272C361.8 165.395 361.791 165.526 361.742 165.644C361.474 166.01 355.141 174.805 346.578 179.319C346.501 179.346 346.418 179.355 346.337 179.346V179.346Z" fill="#263238"/>
<path d="M332.448 205.651H332.324C332.247 205.632 332.175 205.598 332.112 205.551C332.049 205.503 331.996 205.443 331.958 205.374C331.895 205.258 325.339 193.555 316.66 188.123C316.596 188.084 316.541 188.032 316.497 187.971C316.453 187.91 316.422 187.841 316.405 187.768C316.389 187.695 316.387 187.619 316.4 187.545C316.413 187.471 316.441 187.401 316.482 187.338C316.52 187.274 316.571 187.219 316.631 187.175C316.691 187.131 316.759 187.1 316.832 187.084C316.904 187.067 316.979 187.065 317.052 187.078C317.126 187.091 317.195 187.119 317.258 187.159C325.205 192.128 331.217 201.851 332.636 204.277C345.249 195.589 360.698 196.401 360.859 196.409C361.009 196.419 361.149 196.487 361.249 196.598C361.349 196.71 361.401 196.857 361.394 197.007C361.378 197.156 361.307 197.294 361.195 197.393C361.083 197.492 360.937 197.545 360.787 197.542C360.636 197.542 345.151 196.731 332.778 205.57C332.68 205.633 332.564 205.661 332.448 205.651V205.651Z" fill="#263238"/>
<path d="M323.118 240.644C322.984 240.644 322.854 240.597 322.752 240.51C314.314 233.374 308.159 215.944 307.909 215.204C307.884 215.134 307.873 215.059 307.877 214.985C307.881 214.91 307.899 214.837 307.932 214.77C307.964 214.702 308.01 214.642 308.066 214.593C308.122 214.543 308.187 214.505 308.257 214.481C308.327 214.456 308.401 214.445 308.475 214.449C308.549 214.453 308.621 214.472 308.688 214.504C308.754 214.537 308.814 214.582 308.862 214.638C308.911 214.694 308.948 214.759 308.971 214.829C309.033 215.008 315.135 232.277 323.189 239.395C325.821 237.995 341.921 229.752 354.142 229.752H354.347C354.497 229.755 354.64 229.816 354.745 229.923C354.85 230.03 354.909 230.173 354.909 230.323C354.907 230.473 354.845 230.616 354.739 230.721C354.632 230.826 354.488 230.885 354.338 230.885H354.124C341.333 230.885 323.546 240.474 323.368 240.572C323.291 240.615 323.206 240.64 323.118 240.644Z" fill="#263238"/>
<path d="M327.899 265.013C327.899 265.013 322.636 254.541 332.52 250.679C342.403 246.816 343.786 251.045 349.967 248.154C356.149 245.264 361.563 237.103 361.849 242.802C362.134 248.502 355.141 250.83 357.184 253.676C359.226 256.521 339.272 270.811 327.899 265.013Z" fill="#2452B3"/>
<path d="M327.997 259.786C327.997 259.786 320.647 252.365 314.252 252.498C307.856 252.632 303.637 246.165 302.326 250.911C301.014 255.656 310.416 268.34 327.997 259.786Z" fill="#2452B3"/>
<path d="M293.539 258.537L296.01 279.812L296.331 282.63L297.357 291.55L298.098 297.857L298.579 301.96L300.97 322.654H362.589L364.989 301.96L365.461 297.857L366.202 291.55L367.228 282.63L367.558 279.812L370.028 258.537H293.539Z" fill="#263238"/>
<path opacity="0.4" d="M297.357 291.55L298.097 297.857H365.461L366.202 291.55H297.357Z" fill="black"/>
<path opacity="0.4" d="M298.579 301.96L300.97 322.654H362.589L364.989 301.96H298.579Z" fill="black"/>
<path opacity="0.4" d="M296.01 279.812L296.331 282.63H367.227L367.558 279.812H296.01Z" fill="black"/>
<path d="M215.373 104.801H181.388C178.289 104.801 175.317 106.032 173.125 108.224C170.934 110.415 169.703 113.387 169.703 116.486V149.49C169.705 152.589 170.937 155.559 173.128 157.75C175.319 159.941 178.29 161.173 181.388 161.175H194.929L198.497 173.512L202.752 161.175H215.338C218.437 161.175 221.409 159.944 223.6 157.753C225.792 155.562 227.023 152.589 227.023 149.49V116.486C227.025 113.393 225.8 110.424 223.616 108.234C221.431 106.043 218.467 104.808 215.373 104.801V104.801Z" fill="#2452B3"/>
<path opacity="0.7" d="M215.373 104.801H181.388C178.289 104.801 175.317 106.032 173.125 108.224C170.934 110.415 169.703 113.387 169.703 116.486V149.49C169.705 152.589 170.937 155.559 173.128 157.75C175.319 159.941 178.29 161.173 181.388 161.175H194.929L198.497 173.512L202.752 161.175H215.338C218.437 161.175 221.409 159.944 223.6 157.753C225.792 155.562 227.023 152.589 227.023 149.49V116.486C227.025 113.393 225.8 110.424 223.616 108.234C221.431 106.043 218.467 104.808 215.373 104.801V104.801Z" fill="white"/>
<path d="M186.58 126.379C189.523 121.446 195.312 123.257 198.336 127.021C201.262 123.176 206.989 121.223 210.066 126.075C215.257 134.264 204.883 142.042 199.977 145.102C199.424 145.45 198.961 145.744 198.577 145.994C198.185 145.78 197.685 145.503 197.159 145.164C192.172 142.212 181.602 134.692 186.58 126.379Z" fill="#2452B3"/>
<path d="M334.723 322.654H84.74C83.8225 321.226 83.2485 319.605 83.0631 317.918C83.0631 317.748 83.0631 317.57 83.0185 317.4C82.9739 317.231 83.0185 317.052 83.0185 316.883C83.0185 316.714 83.0185 316.535 83.0185 316.357C83.0282 315.986 83.061 315.617 83.1166 315.251C83.1166 315.108 83.1166 314.965 83.1969 314.831C83.2772 314.698 83.2682 314.501 83.3039 314.35C83.342 314.175 83.3897 314.002 83.4466 313.832C83.5429 313.503 83.6621 313.181 83.8034 312.869C83.8659 312.717 83.9372 312.557 84.0086 312.405L84.2494 311.95L84.517 311.513C84.7031 311.222 84.9056 310.942 85.1236 310.675C85.2306 310.532 85.3466 310.407 85.4626 310.273L85.748 309.961L86.3813 309.381C86.6039 309.194 86.8362 309.018 87.0771 308.855C87.2734 308.711 87.479 308.58 87.6926 308.463H87.7461L88.3348 308.141L88.5578 308.043C88.7982 307.925 89.0454 307.82 89.2982 307.731C89.5212 307.642 89.762 307.553 90.0028 307.481C96.898 305.358 115.817 307.071 117.976 307.071C118.105 307.068 118.232 307.041 118.351 306.991C119.698 306.456 121.731 303.334 123.158 300.872L123.39 300.47C124.211 299.043 124.791 297.91 124.853 297.794H122.748C123.332 296.728 123.853 295.629 124.309 294.503C124.559 293.905 124.791 293.299 124.996 292.719C125.085 292.478 125.165 292.246 125.246 292.005C125.522 291.167 125.763 290.346 125.977 289.579C126.084 289.195 126.182 288.812 126.272 288.446C126.361 288.08 126.441 287.732 126.512 287.385C126.584 287.037 126.646 286.805 126.7 286.493C126.753 286.18 126.78 286.073 126.807 285.886C126.896 285.467 126.958 285.092 127.012 284.762C127.012 284.61 127.057 284.468 127.074 284.334L127.128 283.995C127.128 283.888 127.128 283.799 127.128 283.71C127.128 283.62 127.128 283.54 127.128 283.469C127.128 283.228 127.128 283.094 127.128 283.094H125.549C125.496 282.639 125.46 282.202 125.433 281.72V281.096C125.433 280.926 125.433 280.748 125.433 280.579C125.433 280.07 125.433 279.553 125.433 279.035C125.433 278.696 125.433 278.358 125.433 278.01C125.433 277.662 125.433 277.421 125.487 277.118C125.54 276.814 125.487 276.797 125.487 276.627C125.549 275.789 125.629 274.959 125.736 274.138C125.736 273.862 125.808 273.585 125.843 273.309C125.879 273.032 125.915 272.774 125.959 272.497C126.04 271.962 126.129 271.427 126.218 270.9C126.307 270.374 126.405 269.857 126.503 269.348C126.655 268.581 126.816 267.841 126.976 267.127C127.039 266.895 127.083 266.663 127.146 266.431C127.253 265.968 127.36 265.522 127.467 265.093C127.475 265.058 127.475 265.022 127.467 264.986C127.565 264.594 127.672 264.21 127.77 263.854C127.877 263.461 127.984 263.095 128.082 262.748C128.43 261.499 128.742 260.5 128.974 259.849C128.974 259.75 129.028 259.67 129.055 259.59C129.081 259.51 129.153 259.322 129.179 259.224C129.206 259.126 129.242 259.055 129.251 259.019C129.26 258.983 129.251 259.019 129.251 259.019H127.538L134.416 230.555C134.416 230.555 159.713 222.358 170.988 222.991C171.407 222.991 171.799 223.045 172.174 223.098C172.361 223.098 172.549 223.152 172.718 223.178C173.019 223.227 173.317 223.293 173.61 223.375C173.984 223.463 174.346 223.595 174.689 223.767C174.886 223.861 175.074 223.971 175.251 224.097C175.354 224.168 175.45 224.249 175.537 224.338C175.624 224.415 175.704 224.498 175.778 224.588C175.927 224.765 176.045 224.968 176.125 225.185C176.177 225.293 176.216 225.407 176.241 225.524C176.437 226.347 176.691 227.155 177 227.942L177.223 228.486C177.374 228.887 177.562 229.298 177.758 229.726C177.865 229.975 177.99 230.225 178.115 230.493C178.462 231.215 178.846 231.956 179.256 232.714C181.195 236.125 183.308 239.432 185.59 242.624C186.348 243.73 187.061 244.747 187.695 245.63L188.167 246.281L188.908 247.298L189.514 248.11L189.746 248.422L189.853 248.565L190.148 248.948L190.299 249.145H186.874C192.583 253.48 210.655 261.311 210.655 261.311L208.978 262.551C225.712 269 286.136 266.583 286.939 266.556L286.047 266.922L283.656 267.868C284.245 267.948 284.833 268.028 285.44 268.126C287.973 268.548 290.461 269.208 292.87 270.098L294.378 270.677C295.118 270.981 295.85 271.293 296.554 271.623C301.495 273.885 306.059 276.894 310.086 280.543H305.688C309.025 282.327 315.5 291.523 321.548 300.889C324.224 305.109 326.856 309.346 329.014 312.949C332.395 318.578 334.723 322.654 334.723 322.654Z" fill="#2452B3"/>
<path opacity="0.3" d="M334.723 322.654H84.74C83.8225 321.226 83.2485 319.605 83.0631 317.918C83.0631 317.748 83.0631 317.57 83.0185 317.4C82.9739 317.231 83.0185 317.053 83.0185 316.883C83.0185 316.714 83.0185 316.535 83.0185 316.357C83.0282 315.986 83.061 315.617 83.1166 315.251C83.1166 315.108 83.1166 314.965 83.1969 314.832C83.2772 314.698 83.2682 314.501 83.3039 314.35C83.342 314.175 83.3897 314.002 83.4466 313.832C83.5429 313.503 83.6621 313.181 83.8034 312.869C83.8659 312.717 83.9372 312.557 84.0086 312.405L84.2494 311.95L84.517 311.513C84.7031 311.222 84.9056 310.943 85.1236 310.675C85.2306 310.532 85.3466 310.407 85.4626 310.273L85.748 309.961L86.3813 309.381C86.6039 309.194 86.8362 309.018 87.0771 308.855C87.2734 308.711 87.479 308.58 87.6926 308.463H87.7461L88.3348 308.142L88.5578 308.043C88.7982 307.925 89.0454 307.821 89.2982 307.731C89.5212 307.642 89.762 307.553 90.0028 307.481C96.898 305.358 115.817 307.071 117.976 307.071C118.105 307.068 118.232 307.041 118.351 306.991C119.698 306.456 121.731 303.334 123.158 300.872L123.39 300.47C124.211 299.043 124.791 297.91 124.853 297.794H122.739C123.318 296.725 123.842 295.626 124.309 294.503C124.479 294.093 124.639 293.673 124.791 293.263C124.871 293.076 124.934 292.897 124.996 292.71C125.058 292.523 125.165 292.237 125.246 291.996C125.522 291.158 125.763 290.337 125.977 289.57C126.084 289.187 126.182 288.803 126.272 288.437C126.361 288.071 126.441 287.724 126.512 287.376C126.584 287.028 126.646 286.796 126.7 286.484C126.753 286.172 126.78 286.065 126.807 285.877C126.896 285.458 126.958 285.083 127.012 284.753C127.012 284.602 127.057 284.459 127.074 284.325L127.128 283.986C127.128 283.879 127.128 283.79 127.128 283.701C127.128 283.611 127.128 283.531 127.128 283.46C127.128 283.219 127.128 283.085 127.128 283.085H125.549C125.496 282.63 125.46 282.193 125.433 281.712V281.087C125.433 280.918 125.433 280.739 125.433 280.57C125.433 280.061 125.433 279.544 125.433 279.027C125.433 278.688 125.433 278.349 125.433 278.001C125.433 277.653 125.433 277.412 125.487 277.109C125.54 276.806 125.487 276.788 125.487 276.618C125.549 275.78 125.629 274.95 125.736 274.13C125.736 273.853 125.808 273.577 125.843 273.3C125.879 273.023 125.915 272.765 125.959 272.488C126.04 271.953 126.129 271.418 126.218 270.892C126.307 270.365 126.405 269.848 126.503 269.34C126.655 268.572 126.816 267.832 126.976 267.118C127.039 266.887 127.083 266.655 127.146 266.423C127.253 265.959 127.36 265.513 127.467 265.085C127.475 265.049 127.475 265.013 127.467 264.978C127.565 264.585 127.672 264.202 127.77 263.845C127.877 263.452 127.984 263.087 128.082 262.739C128.439 261.49 128.751 260.491 128.974 259.84C128.974 259.742 129.028 259.661 129.055 259.581C129.081 259.501 129.153 259.313 129.179 259.215C129.206 259.117 129.242 259.046 129.251 259.01C129.26 258.974 129.251 259.01 129.251 259.01H127.529L134.407 230.546C134.407 230.546 159.704 222.349 170.979 222.982C171.398 222.982 171.79 223.036 172.165 223.089C172.352 223.089 172.54 223.143 172.709 223.17C173.01 223.218 173.308 223.284 173.601 223.366C173.975 223.454 174.337 223.586 174.68 223.758C174.877 223.852 175.065 223.962 175.242 224.088C175.345 224.159 175.441 224.24 175.528 224.329C175.615 224.406 175.695 224.489 175.769 224.579C175.918 224.757 176.036 224.959 176.117 225.177C176.163 225.283 176.199 225.393 176.224 225.507C176.418 226.333 176.675 227.144 176.991 227.933C177.055 228.118 177.129 228.3 177.214 228.477C177.365 228.878 177.553 229.289 177.749 229.717C177.856 229.967 177.981 230.216 178.106 230.484C178.454 231.207 178.837 231.947 179.247 232.705C181.188 236.119 183.305 239.43 185.59 242.624C186.348 243.73 187.061 244.747 187.695 245.63L188.167 246.281L188.908 247.298L189.514 248.11L189.746 248.422L189.853 248.565C189.969 248.716 190.076 248.841 190.148 248.948L190.299 249.145H186.874C192.583 253.48 210.655 261.312 210.655 261.312L208.978 262.551C225.712 269.001 286.136 266.583 286.939 266.556L286.047 266.922L283.656 267.868C284.245 267.939 284.833 268.019 285.44 268.126C287.973 268.549 290.461 269.209 292.87 270.098L294.378 270.678C295.118 270.981 295.85 271.293 296.554 271.623C301.495 273.885 306.059 276.894 310.086 280.543H305.688C309.025 282.327 315.5 291.524 321.548 300.89C324.224 305.109 326.856 309.346 329.014 312.949C332.395 318.578 334.723 322.654 334.723 322.654Z" fill="white"/>
<path opacity="0.6" d="M171.621 239.395V249.537H169.168C169.168 249.537 166.082 263.577 167.143 268.367C167.143 268.367 165.805 267.77 164.842 264.273C164.842 264.273 158.838 279.339 154.138 283.38L153.843 280.704C153.843 280.704 146.966 301.22 163.557 322.672H155.44C151.114 319.256 146.27 313.44 142.015 303.583C131.106 278.286 133.702 268.385 133.702 268.385L131.267 269.678L134.835 255.299H132.257C132.257 255.299 132.462 240.813 139.901 236.942C147.341 233.071 171.621 239.395 171.621 239.395Z" fill="white"/>
<path opacity="0.1" d="M185.59 246.005C184.86 247.148 183.957 248.171 182.914 249.038L181.87 247.735C181.326 251.499 177.57 257.101 177.57 257.101L176.429 255.897L175.679 258.296C167.571 258.537 150.703 252.534 150.703 252.534L150.864 254.461C146.593 252.422 142.846 249.432 139.908 245.722C136.971 242.011 134.921 237.678 133.916 233.053C133.916 233.053 163.959 232.339 179.408 232.705C181.219 237.219 183.556 242.035 185.59 246.005Z" fill="black"/>
<path opacity="0.1" d="M208.817 322.654H84.74C81.172 317.142 83.0987 309.551 90.0028 307.437C96.9069 305.323 115.817 307.026 117.976 307.026C120.135 307.026 124.88 297.759 124.88 297.759H122.739C125.097 293.176 126.608 288.205 127.199 283.085H125.62C125.41 280.938 125.392 278.777 125.567 276.627C126.031 278.759 126.459 280.195 126.459 280.195L127.226 277.653C127.11 281.56 130.054 289.784 130.054 289.784L131.088 286.653C132.997 298.981 141.935 303.601 141.935 303.601L142.122 301.362C145.548 303.913 152.978 305.189 152.978 305.189C152.8 299.837 155.547 293.53 155.547 293.53H153.897C157.411 283.317 164.128 279.196 164.128 279.196C164.128 279.196 203.153 285.627 208.086 299.525C211.252 308.347 210.084 317.32 208.817 322.654Z" fill="black"/>
<path opacity="0.1" d="M274.781 291.461C274.781 291.461 262.649 290.801 255.237 291.461C247.824 292.121 235.408 299.569 235.693 305.831C235.979 312.093 250.813 316.401 250.813 316.401C250.813 316.401 232.839 312.361 227.558 312.717C222.278 313.074 220.69 322.654 220.69 322.654H215.061C215.061 322.654 212.894 311.95 217.229 308.284C221.564 304.618 231.421 308.284 231.421 308.284C231.421 308.284 229.788 294.904 239.779 288.794L239.663 291.47C239.663 291.47 245.96 285.868 259.385 286.064C259.385 286.064 256.459 288.223 257.03 288.027C257.601 287.831 262.302 286.885 274.781 291.461Z" fill="black"/>
<path opacity="0.1" d="M329.014 312.949C328.417 316.589 325.874 319.978 322.208 322.654H285.725C276.003 315.831 275.646 308.124 275.646 308.124L278.598 309.453C276.466 301.969 278.027 291.461 278.027 291.461C282.809 296.447 302.763 300.809 303.378 300.943C302.816 300.533 288.856 290.337 299.186 296.233C300.105 296.761 301.052 297.241 302.022 297.669C309.774 301.05 318.203 301.05 321.548 300.89C324.242 305.109 326.856 309.346 329.014 312.949Z" fill="black"/>
<path d="M154.486 194.643C154.486 194.643 161.452 175.233 173.048 169.899C175.028 169.007 180.523 196.365 171.362 208.255C170.684 209.183 154.486 194.643 154.486 194.643Z" fill="#2452B3"/>
<path opacity="0.3" d="M176.322 192.931C176.15 195.275 175.774 197.6 175.198 199.879C174.499 202.912 173.198 205.772 171.371 208.291C170.693 209.183 154.477 194.643 154.477 194.643C154.477 194.643 161.452 175.233 173.048 169.908C174.368 169.293 177.285 181.353 176.322 192.931Z" fill="white"/>
<path opacity="0.6" d="M172.887 172.156C172.887 172.156 164.663 187.873 171.246 196.409C177.713 204.821 177.205 178.115 172.887 172.156Z" fill="white"/>
<path opacity="0.1" d="M176.322 192.931C176.15 195.275 175.774 197.6 175.198 199.879C171.139 198.898 165.966 196.356 160.97 191.477C160.97 191.477 167.384 188.988 176.322 192.931Z" fill="black"/>
<path d="M199.077 217.808C197.694 215.061 187.213 213.348 187.213 213.348C187.213 213.348 187.026 207.051 184.296 203.073C181.567 199.094 169.846 191.941 162.826 191.539C155.806 191.138 140.883 193.457 140.883 193.457L130.509 214.927C130.509 214.927 130.509 215.052 130.509 215.284C129.47 218.453 128.92 221.762 128.876 225.096L129.67 224.356C129.67 224.356 129.081 230.662 131.409 234.783L132.221 233.891C133.37 235.64 134.77 237.209 136.378 238.547C139.17 241.081 143.514 243.391 151.141 244.256C160.061 245.264 170.854 248.351 177.437 248.11C192.217 247.575 192.984 232.839 192.984 232.839C200.887 233.222 200.459 220.547 199.077 217.808Z" fill="#2452B3"/>
<path opacity="0.3" d="M192.949 232.812C192.949 232.812 192.181 247.548 177.401 248.083C170.818 248.324 159.989 245.238 151.105 244.23C143.505 243.338 139.134 241.054 136.342 238.521C134.735 237.179 133.332 235.61 132.177 233.865L131.374 234.757C129.046 230.627 129.59 224.32 129.59 224.32L128.805 225.06C128.85 221.726 129.4 218.418 130.437 215.248C130.437 215.017 130.437 214.892 130.437 214.892L140.811 193.421L141.578 193.305C142.328 193.198 143.621 193.011 145.209 192.806C150.159 192.146 158.161 191.245 162.754 191.503C169.774 191.905 181.486 198.996 184.225 203.037C186.151 205.847 186.812 209.816 187.035 211.903C187.124 212.795 187.142 213.313 187.142 213.313C187.142 213.313 197.623 215.043 199.014 217.773C200.406 220.502 200.887 233.222 192.949 232.812Z" fill="white"/>
<path opacity="0.6" d="M197.132 231.331C196.575 231.862 195.912 232.268 195.186 232.522C194.46 232.776 193.688 232.872 192.922 232.803C192.922 232.803 192.413 242.571 184.243 246.486C182.09 247.491 179.75 248.032 177.374 248.074C170.791 248.315 159.962 245.229 151.078 244.221C143.478 243.329 139.107 241.045 136.315 238.512C136.735 236.523 137.609 233.115 139.045 230.921L136.851 231.01C136.851 231.01 135.825 226.47 146.582 224.222C157.34 221.974 165.564 216.97 168.097 214.339C170.631 211.707 169.391 201.851 167.865 200.21C166.34 198.568 163.174 197.578 163.959 196.517C164.743 195.455 169.56 198.479 171.291 201.681C173.021 204.884 176.402 212.269 177.695 213.135C180.86 213.042 184.028 213.107 187.186 213.331C187.186 213.331 197.667 215.061 199.059 217.791C200.147 219.923 200.646 227.96 197.132 231.331Z" fill="white"/>
<path d="M160.738 211.654C160.382 213.607 158.838 214.927 157.286 214.615C155.734 214.303 154.744 212.474 155.083 210.512C155.422 208.55 156.974 207.203 158.544 207.515C160.114 207.827 161.095 209.682 160.738 211.654Z" fill="#263238"/>
<path d="M183.806 208.264C184.278 210.218 183.529 212.073 182.138 212.421C180.746 212.769 179.239 211.484 178.766 209.54C178.293 207.595 179.024 205.713 180.425 205.356C181.825 204.999 183.342 206.311 183.806 208.264Z" fill="#263238"/>
<path d="M198.193 217.648C195.205 215.4 189.015 216.257 186.99 219.503C185.304 222.179 194.331 225.747 194.331 225.747C194.331 225.747 200.325 219.28 198.193 217.648Z" fill="#263238"/>
<path opacity="0.1" d="M197.132 231.331C196.575 231.862 195.912 232.268 195.186 232.522C194.46 232.776 193.688 232.871 192.922 232.803C192.922 232.803 192.413 242.571 184.243 246.486C174.11 245.425 168.74 236.674 168.74 236.674C179.685 238.637 192.94 231.322 192.94 231.322C193.582 231.67 194.301 231.852 195.031 231.852C195.762 231.852 196.481 231.67 197.123 231.322L197.132 231.331Z" fill="black"/>
<path d="M194.857 232.313C194.109 232.271 193.39 232.01 192.788 231.563C192.753 231.541 192.723 231.511 192.7 231.476C192.677 231.441 192.661 231.402 192.654 231.361C192.646 231.32 192.648 231.278 192.658 231.237C192.667 231.196 192.686 231.158 192.711 231.125C192.736 231.092 192.768 231.064 192.804 231.044C192.841 231.023 192.881 231.011 192.923 231.007C192.964 231.003 193.006 231.007 193.046 231.02C193.086 231.033 193.122 231.054 193.154 231.082C193.729 231.509 194.436 231.721 195.152 231.679C195.191 231.671 195.231 231.672 195.271 231.679C195.31 231.687 195.347 231.703 195.38 231.725C195.414 231.748 195.442 231.776 195.464 231.81C195.486 231.843 195.501 231.881 195.509 231.92C195.516 231.959 195.516 232 195.508 232.039C195.5 232.078 195.485 232.115 195.462 232.149C195.44 232.182 195.411 232.21 195.378 232.232C195.345 232.254 195.307 232.269 195.268 232.277C195.132 232.302 194.995 232.314 194.857 232.313V232.313Z" fill="#263238"/>
<path d="M190.629 232.812C190.629 232.812 190.513 242.33 181.914 242.339C176.973 242.339 171.282 237.468 171.282 237.468C177.922 236.86 184.439 235.292 190.629 232.812Z" fill="#263238"/>
<path d="M175.724 237.459C177.76 240.655 180.105 243.643 182.726 246.379C186.428 250.09 190.888 244.408 186.152 234.596C182.747 235.794 179.263 236.751 175.724 237.459V237.459Z" fill="#2452B3"/>
<path d="M172.433 237.691C171.335 237.734 170.239 237.567 169.203 237.201L168.713 237.004C167.679 236.702 166.717 236.195 165.883 235.513C165.05 234.831 164.362 233.988 163.86 233.035C163.825 232.962 163.82 232.877 163.847 232.8C163.874 232.723 163.93 232.66 164.003 232.625C164.076 232.589 164.161 232.584 164.238 232.611C164.315 232.638 164.378 232.694 164.413 232.767C164.884 233.65 165.527 234.429 166.304 235.058C167.08 235.688 167.975 236.156 168.936 236.434L169.435 236.639C173.949 238.521 190.219 233.758 192.752 231.108C195.08 228.682 193.51 222.759 193.493 222.697C193.482 222.658 193.479 222.618 193.484 222.578C193.489 222.538 193.502 222.5 193.521 222.465C193.541 222.43 193.568 222.399 193.6 222.375C193.632 222.35 193.668 222.332 193.707 222.322C193.745 222.311 193.786 222.308 193.826 222.313C193.865 222.318 193.904 222.331 193.939 222.351C193.974 222.371 194.004 222.397 194.029 222.429C194.053 222.461 194.071 222.497 194.081 222.536C194.153 222.795 195.758 228.86 193.189 231.536C191.147 233.704 179.203 237.691 172.433 237.691Z" fill="#263238"/>
<path d="M184.234 241.25C184.167 241.251 184.102 241.229 184.049 241.189C183.995 241.149 183.957 241.092 183.939 241.027C183.412 239.291 182.578 237.663 181.477 236.22C181.452 236.189 181.433 236.153 181.422 236.114C181.411 236.076 181.407 236.036 181.411 235.996C181.415 235.956 181.427 235.918 181.446 235.883C181.465 235.848 181.491 235.817 181.522 235.791C181.553 235.766 181.589 235.747 181.627 235.736C181.665 235.725 181.706 235.721 181.745 235.725C181.785 235.729 181.824 235.741 181.859 235.76C181.894 235.779 181.925 235.805 181.95 235.836C183.108 237.339 183.982 239.041 184.528 240.858C184.55 240.937 184.54 241.022 184.5 241.094C184.46 241.166 184.393 241.219 184.314 241.242L184.234 241.25Z" fill="#263238"/>
<path opacity="0.1" d="M145.28 192.824C145.234 193.933 144.908 195.013 144.335 195.964L141.659 193.288C142.399 193.216 143.692 193.029 145.28 192.824Z" fill="black"/>
<path d="M144.343 195.963C144.343 195.963 139.562 177.231 127.895 170.649C122.962 167.857 123.158 211.35 133.809 219.994C144.263 228.468 144.343 195.963 144.343 195.963Z" fill="#2452B3"/>
<path opacity="0.3" d="M144.343 195.963C144.343 195.963 139.562 177.231 127.895 170.649C122.962 167.857 123.158 211.35 133.809 219.994C144.263 228.468 144.343 195.963 144.343 195.963Z" fill="white"/>
<path opacity="0.6" d="M128.216 172.78C128.582 171.362 137.136 188.542 138.322 198.55C139.482 208.362 132.337 214.794 132.337 214.794C132.337 214.794 121.66 198.666 128.216 172.78Z" fill="white"/>
<path opacity="0.2" d="M186.544 228.352C186.544 228.442 186.517 228.53 186.467 228.605C186.417 228.68 186.346 228.738 186.263 228.772C186.18 228.807 186.089 228.816 186 228.798C185.912 228.781 185.831 228.737 185.767 228.674C185.704 228.61 185.66 228.529 185.643 228.441C185.625 228.353 185.634 228.261 185.669 228.178C185.703 228.095 185.762 228.024 185.836 227.974C185.911 227.924 185.999 227.897 186.089 227.897C186.21 227.897 186.325 227.945 186.411 228.03C186.496 228.116 186.544 228.231 186.544 228.352V228.352Z" fill="black"/>
<path opacity="0.2" d="M197.516 230.243C197.391 230.457 197.23 230.591 197.15 230.546C197.07 230.502 197.096 230.288 197.221 230.074C197.346 229.859 197.516 229.717 197.596 229.761C197.676 229.806 197.64 230.02 197.516 230.243Z" fill="black"/>
<path opacity="0.2" d="M199.407 226.015C199.407 226.265 199.273 226.452 199.184 226.443C199.094 226.434 199.041 226.22 199.068 225.97C199.094 225.721 199.201 225.533 199.291 225.542C199.38 225.551 199.433 225.765 199.407 226.015Z" fill="black"/>
<path opacity="0.2" d="M197.203 227.46C197.203 227.71 197.07 227.906 196.98 227.888C196.891 227.87 196.829 227.665 196.864 227.424C196.9 227.184 196.989 226.978 197.087 226.996C197.186 227.014 197.23 227.228 197.203 227.46Z" fill="black"/>
<path opacity="0.2" d="M184.118 231.322C184.118 231.412 184.091 231.5 184.041 231.575C183.991 231.65 183.92 231.708 183.837 231.743C183.754 231.777 183.662 231.786 183.574 231.769C183.486 231.751 183.405 231.708 183.341 231.644C183.278 231.581 183.234 231.499 183.217 231.411C183.199 231.323 183.208 231.231 183.243 231.148C183.277 231.065 183.335 230.994 183.41 230.944C183.485 230.894 183.573 230.868 183.663 230.868C183.783 230.868 183.899 230.915 183.984 231.001C184.07 231.086 184.118 231.202 184.118 231.322Z" fill="black"/>
<path opacity="0.2" d="M182.191 227.46C182.17 227.563 182.115 227.656 182.033 227.722C181.952 227.789 181.85 227.825 181.745 227.825C181.64 227.825 181.538 227.789 181.457 227.722C181.375 227.656 181.32 227.563 181.299 227.46C181.32 227.357 181.375 227.264 181.457 227.198C181.538 227.131 181.64 227.095 181.745 227.095C181.85 227.095 181.952 227.131 182.033 227.198C182.115 227.264 182.17 227.357 182.191 227.46Z" fill="black"/>
<path opacity="0.2" d="M179.265 231.171C179.517 231.171 179.72 230.967 179.72 230.716C179.72 230.465 179.517 230.261 179.265 230.261C179.014 230.261 178.81 230.465 178.81 230.716C178.81 230.967 179.014 231.171 179.265 231.171Z" fill="black"/>
<path opacity="0.2" d="M176.884 232.812C176.863 232.915 176.807 233.008 176.726 233.074C176.645 233.141 176.543 233.177 176.438 233.177C176.333 233.177 176.231 233.141 176.149 233.074C176.068 233.008 176.012 232.915 175.992 232.812C176.012 232.709 176.068 232.616 176.149 232.55C176.231 232.483 176.333 232.447 176.438 232.447C176.543 232.447 176.645 232.483 176.726 232.55C176.807 232.616 176.863 232.709 176.884 232.812Z" fill="black"/>
<path opacity="0.2" d="M172.218 231.322C172.47 231.322 172.673 231.119 172.673 230.868C172.673 230.616 172.47 230.413 172.218 230.413C171.967 230.413 171.764 230.616 171.764 230.868C171.764 231.119 171.967 231.322 172.218 231.322Z" fill="black"/>
<path opacity="0.2" d="M176.429 228.352C176.429 228.473 176.381 228.588 176.295 228.674C176.21 228.759 176.094 228.807 175.974 228.807C175.871 228.786 175.778 228.731 175.711 228.649C175.645 228.568 175.609 228.466 175.609 228.361C175.609 228.256 175.645 228.154 175.711 228.073C175.778 227.991 175.871 227.936 175.974 227.915C176.091 227.915 176.204 227.96 176.289 228.042C176.374 228.123 176.424 228.235 176.429 228.352V228.352Z" fill="black"/>
<path opacity="0.1" d="M187.213 213.331C187.213 213.331 176.161 212.581 171.282 214.223C171.282 214.223 175.688 210.655 187.106 211.939C187.195 212.787 187.213 213.331 187.213 213.331Z" fill="black"/>
<path d="M165.76 275.334C165.76 275.334 157.92 285.306 157.179 292.282H158.963C157.262 297.073 156.626 302.178 157.099 307.241C157.099 307.241 150.855 307.526 142.417 307.044C128.145 306.224 123.471 311.808 127.957 322.69H194.179C194.179 322.69 199.879 317.507 199.772 314.082L200.254 318.596C200.254 318.596 208.487 309.488 208.336 301.559C208.184 293.629 194.92 254.72 165.76 275.334Z" fill="#2452B3"/>
<path opacity="0.3" d="M208.327 301.496C208.478 309.426 200.245 318.533 200.245 318.533L199.763 314.029C199.87 317.445 194.171 322.628 194.171 322.628H127.949C123.489 311.745 128.127 306.161 142.408 306.982C150.855 307.464 157.09 307.169 157.09 307.169C156.618 302.11 157.254 297.008 158.954 292.219H157.17C157.911 285.279 165.751 275.271 165.751 275.271C194.92 254.72 208.166 293.593 208.327 301.496Z" fill="white"/>
<path opacity="0.1" d="M157.09 307.205C165.555 306.955 170.934 310.184 171.567 313.449C171.567 313.449 169.988 308.338 168.392 307.205H170.907C168.598 305.384 165.72 304.436 162.781 304.529C161.691 304.511 160.611 304.742 159.625 305.206C158.638 305.67 157.771 306.354 157.09 307.205Z" fill="black"/>
<path opacity="0.1" d="M134.692 322.654H132.524C132.524 322.654 128.662 315.946 132.087 312.218C132.105 312.61 131.784 319.336 134.692 322.654Z" fill="black"/>
<path opacity="0.1" d="M142.613 322.654H139.553C139.366 322.298 136.431 316.5 139.063 313.413C139.063 313.413 139.152 319.407 142.613 322.654Z" fill="black"/>
<path opacity="0.1" d="M151.774 322.654H148.964C148.964 322.654 151.096 320.514 150.133 318.953C150.088 318.953 152.809 319.407 151.774 322.654Z" fill="black"/>
<path opacity="0.1" d="M321.254 303.066C321.664 303.066 322.074 302.995 322.485 302.95C321.928 303.107 321.346 303.152 320.772 303.084L321.254 303.066Z" fill="black"/>
<path d="M356.247 311.834L353.152 309.729C353.152 309.729 356.515 319.407 346.845 322.654H291.8C291.086 322.315 282.595 318.069 281.15 308.828C281.15 308.828 282.157 310.14 285.03 310.47C282.909 307.208 281.482 303.546 280.838 299.709C280.193 295.873 280.345 291.945 281.283 288.17C281.283 288.17 289.311 295.127 298.909 297.732L297.732 293.557C298.768 294.431 299.849 295.249 300.97 296.01C301.148 296.144 301.344 296.278 301.55 296.412C302.442 297.018 303.485 297.678 304.627 298.329C304.841 298.463 305.064 298.588 305.296 298.713L305.715 298.936C305.929 299.061 306.152 299.177 306.375 299.284C306.75 299.489 307.133 299.685 307.526 299.864L308.418 300.301C308.659 300.408 308.9 300.524 309.14 300.613C309.604 300.818 310.077 301.014 310.559 301.193C310.835 301.3 311.121 301.407 311.406 301.496C311.692 301.585 311.888 301.674 312.129 301.746L312.289 301.808L312.914 301.996H312.967C313.979 302.294 315.006 302.538 316.045 302.727L316.678 302.834L316.99 302.879L317.588 302.95C317.729 302.974 317.872 302.989 318.016 302.995C318.275 302.995 318.524 303.039 318.774 303.057C319.428 303.097 320.083 303.097 320.736 303.057H321.218C321.628 303.057 322.039 302.986 322.449 302.941L318.721 296.652C321.947 292.89 326.52 290.543 331.458 290.114L330.37 293.771C330.37 293.771 341.618 291.158 349.548 297.857C357.478 304.556 356.247 311.834 356.247 311.834Z" fill="#2452B3"/>
<path opacity="0.3" d="M356.247 311.834L353.152 309.729C353.152 309.729 356.515 319.407 346.845 322.654H291.8C291.086 322.315 282.595 318.069 281.15 308.828C281.15 308.828 282.157 310.14 285.03 310.47C282.909 307.208 281.482 303.546 280.838 299.709C280.193 295.873 280.345 291.945 281.283 288.17C281.283 288.17 289.311 295.127 298.909 297.732L297.732 293.557C298.768 294.431 299.849 295.249 300.97 296.01C301.148 296.144 301.344 296.278 301.55 296.412C302.442 297.018 303.485 297.678 304.627 298.329L305.296 298.713L305.715 298.936C305.929 299.061 306.152 299.168 306.375 299.284C306.75 299.489 307.133 299.685 307.526 299.864L308.418 300.301L309.14 300.613C309.604 300.818 310.077 301.014 310.559 301.193C310.835 301.3 311.121 301.407 311.406 301.496C311.692 301.585 311.888 301.674 312.129 301.746L312.289 301.808L312.914 301.996H312.967C313.979 302.294 315.006 302.538 316.045 302.727L316.678 302.834L316.99 302.879C317.186 302.879 317.391 302.941 317.588 302.95C317.729 302.974 317.872 302.989 318.016 302.995C318.266 302.995 318.524 303.039 318.774 303.057C319.428 303.097 320.083 303.097 320.736 303.057H321.218C321.628 303.057 322.039 302.986 322.449 302.941L318.721 296.652C321.947 292.89 326.52 290.543 331.458 290.114L330.37 293.771C330.37 293.771 341.618 291.158 349.548 297.857C357.478 304.556 356.247 311.834 356.247 311.834Z" fill="white"/>
<path opacity="0.1" d="M329.915 298.749C327.498 302.45 322.485 302.95 322.485 302.95L318.756 296.661C324.858 294.289 328.568 297.116 328.568 297.116C329.083 296.596 329.426 295.929 329.549 295.207C329.549 295.207 332.324 295.065 329.915 298.749Z" fill="black"/>
<path opacity="0.6" d="M320.612 315.376C320.612 315.376 318.337 318.997 304.877 317.525C306.403 318.666 308.154 319.468 310.015 319.88C310.015 319.88 308.525 321.575 304.716 322.654H291.8C291.086 322.315 282.595 318.069 281.15 308.828C281.15 308.828 282.157 310.14 285.03 310.47C282.909 307.208 281.482 303.546 280.838 299.709C280.193 295.873 280.345 291.945 281.283 288.17C281.283 288.17 289.311 295.127 298.909 297.732L297.732 293.557C297.732 293.557 304.556 299.507 313.003 302.013C314.255 303.427 315.77 304.584 317.463 305.421C317.463 305.421 311.585 305.724 308.632 304.368C308.632 304.359 309.89 311.906 320.612 315.376Z" fill="white"/>
<path d="M252.186 226.318C252.186 226.318 265.102 233.981 265.415 239.074C265.415 239.074 310.996 264.719 296.189 322.654H228.967C228.967 322.654 219.824 301.808 226.291 288.482L225.712 288.58C227.861 285.315 229.619 285.815 229.619 285.815C229.619 285.815 231.706 261.151 230.885 254.015C230.065 246.879 226.291 231.313 226.291 231.313L252.186 226.318Z" fill="#263238"/>
<path opacity="0.2" d="M299.15 300.711C299.15 301.255 299.15 301.799 299.15 302.361C299.054 305.712 298.756 309.054 298.258 312.369L298.044 313.806C297.592 316.666 296.977 319.615 296.198 322.654H228.967C228.967 322.654 228.138 320.754 227.183 317.721C225.98 314.105 225.084 310.393 224.507 306.625C223.615 300.613 223.615 293.923 226.291 288.482L225.712 288.58C227.103 286.466 228.334 285.904 229.03 285.815C229.227 285.775 229.43 285.775 229.628 285.815C229.628 285.815 229.735 284.468 229.904 282.309C230.439 275.236 231.519 259.483 230.885 254.015C230.671 252.142 230.252 249.689 229.744 247.084C228.352 239.779 226.291 231.313 226.291 231.313L252.213 226.318C252.213 226.318 253.283 226.952 254.809 227.977C258.305 230.323 264.219 234.694 265.272 238.218C265.368 238.506 265.425 238.806 265.441 239.11C265.441 239.11 265.905 239.377 266.717 239.894C268.824 241.262 270.849 242.751 272.783 244.354C273.505 244.97 274.272 245.63 275.057 246.335C277.356 248.411 279.527 250.624 281.56 252.962C282.282 253.801 283.023 254.684 283.745 255.638C285.714 258.124 287.519 260.734 289.151 263.452V263.452C289.846 264.612 290.515 265.807 291.167 267.02C292.887 270.289 294.336 273.693 295.502 277.198V277.198C295.796 278.09 296.073 278.982 296.322 279.874C297.184 282.833 297.849 285.845 298.312 288.892C298.428 289.632 298.526 290.373 298.615 291.122C298.997 294.304 299.175 297.507 299.15 300.711V300.711Z" fill="white"/>
<path opacity="0.2" d="M239.136 236.487C239.136 236.487 234.427 240.439 234.025 242.927L232.946 242.33C232.946 242.33 233.285 249.368 232.669 253.301L231.938 251.348C231.95 254.276 231.697 257.199 231.18 260.08C231.135 257.717 231.037 255.62 230.859 254.015C230.038 246.879 226.265 231.313 226.265 231.313L229.36 230.716C232.714 232.473 235.977 234.399 239.136 236.487Z" fill="white"/>
<path opacity="0.2" d="M254.782 227.977C253.765 231.18 250.955 238.146 245.255 240.688V239.796C242.282 241.037 239.488 242.672 236.951 244.658L237.352 242.356C234.533 243.451 231.943 245.063 229.717 247.111C228.325 239.805 226.265 231.34 226.265 231.34L252.186 226.345C252.186 226.345 253.257 226.952 254.782 227.977Z" fill="black"/>
<path opacity="0.2" d="M229.601 285.815H229.003C229.2 285.775 229.404 285.775 229.601 285.815V285.815Z" fill="black"/>
<path opacity="0.2" d="M243.65 297.642C243.65 297.642 237.575 287.786 229.601 285.815C229.601 285.815 229.708 284.468 229.877 282.309C230.896 282.181 231.927 282.181 232.946 282.309L235.033 274.522C237.21 273.237 240.519 266.663 240.519 266.663V268.492C243.275 266.378 242.089 258.796 242.089 258.796C243.873 261.356 242.722 268.492 242.722 268.492L242.089 266.619C242.089 266.619 242.312 269.437 239.136 271.864C235.961 274.29 236.621 280.668 236.621 280.668C240.983 285.823 243.65 297.642 243.65 297.642Z" fill="black"/>
<g opacity="0.4">
<path opacity="0.4" d="M232.669 260.081C233.043 260.194 233.437 260.229 233.826 260.183C234.214 260.137 234.589 260.011 234.926 259.813C235.617 259.416 236.285 258.978 236.924 258.502C237.609 258.015 238.348 257.611 239.127 257.297C239.916 256.967 240.781 256.865 241.625 257.003C240.061 257.388 238.6 258.11 237.343 259.117C236.667 259.619 235.93 260.033 235.149 260.348C234.946 260.432 234.733 260.489 234.516 260.518C234.297 260.549 234.075 260.549 233.856 260.518C233.636 260.495 233.42 260.444 233.213 260.366C233.025 260.284 232.843 260.189 232.669 260.081V260.081Z" fill="black"/>
<path opacity="0.4" d="M233.784 254.532C234.517 254.284 235.161 253.829 235.64 253.221C236.166 252.65 236.683 252.044 237.245 251.437C237.818 250.841 238.48 250.338 239.208 249.947C239.944 249.538 240.808 249.423 241.625 249.626C240.859 249.715 240.128 249.997 239.502 250.447C238.882 250.901 238.303 251.408 237.771 251.963C237.22 252.542 236.639 253.093 236.032 253.613C235.74 253.912 235.39 254.147 235.003 254.305C234.617 254.463 234.202 254.541 233.784 254.532Z" fill="black"/>
<path opacity="0.4" d="M240.528 260.883C239.526 262.135 238.431 263.31 237.254 264.398C236.654 264.95 235.999 265.44 235.301 265.861C234.614 266.342 233.781 266.566 232.946 266.494C233.695 266.278 234.387 265.897 234.971 265.379C235.577 264.897 236.166 264.371 236.755 263.845C237.343 263.318 237.932 262.783 238.539 262.284C239.156 261.755 239.822 261.286 240.528 260.883V260.883Z" fill="black"/>
<path opacity="0.4" d="M231.92 289.418C230.857 290.258 230.043 291.371 229.565 292.638C228.998 293.871 228.507 295.137 228.093 296.429C227.665 297.714 227.29 299.016 226.969 300.336C226.634 301.662 226.393 303.009 226.247 304.368C226.102 302.989 226.151 301.596 226.39 300.229C226.619 298.859 226.953 297.508 227.389 296.189C227.817 294.864 228.375 293.585 229.057 292.371C229.226 292.068 229.422 291.773 229.61 291.479C229.797 291.184 230.029 290.917 230.243 290.64C230.686 290.094 231.264 289.673 231.92 289.418Z" fill="black"/>
<path opacity="0.4" d="M229.601 312.138C229.757 310.632 230.029 309.141 230.412 307.678C230.786 306.218 231.263 304.787 231.84 303.396C232.407 301.985 233.15 300.651 234.052 299.427C234.893 298.133 236.199 297.213 237.7 296.858C236.356 297.459 235.242 298.479 234.525 299.765C233.746 301.01 233.077 302.321 232.526 303.681C231.947 305.046 231.447 306.438 230.974 307.838C230.502 309.239 230.038 310.701 229.601 312.138Z" fill="black"/>
<path opacity="0.4" d="M235.113 317.641C235.583 315.367 236.492 313.207 237.789 311.281C238.438 310.294 239.212 309.394 240.091 308.605C240.973 307.841 242.002 307.264 243.115 306.91C242.156 307.511 241.273 308.224 240.483 309.033C239.725 309.853 239.03 310.73 238.405 311.656C237.78 312.59 237.202 313.554 236.674 314.546C236.121 315.59 235.595 316.598 235.113 317.641Z" fill="black"/>
<path opacity="0.4" d="M252.614 230.716C257.666 236.161 262.235 242.035 266.271 248.27C268.287 251.392 270.178 254.604 271.917 257.895C273.652 261.202 275.189 264.61 276.52 268.1C279.115 275.117 280.648 282.483 281.069 289.954C281.31 293.669 281.31 297.397 281.069 301.112C280.843 304.82 280.342 308.505 279.571 312.138C280.053 308.47 280.309 304.776 280.338 301.077C280.399 297.394 280.259 293.71 279.918 290.043C279.587 286.384 279.03 282.75 278.25 279.16C278.081 278.268 277.831 277.376 277.608 276.484C277.385 275.592 277.189 274.7 276.895 273.808C276.342 272.024 275.824 270.312 275.111 268.608C272.462 261.737 269.177 255.128 265.299 248.868C261.439 242.568 257.203 236.506 252.614 230.716V230.716Z" fill="black"/>
<path opacity="0.4" d="M254.782 238.012C253.343 238.673 252.044 239.602 250.955 240.751C249.925 241.898 249.068 243.19 248.413 244.586C247.699 245.978 247.129 247.468 246.522 248.966C245.956 250.51 245.257 252.002 244.435 253.426C244.729 251.803 245.006 250.215 245.416 248.627C245.802 247.012 246.358 245.442 247.075 243.944C247.813 242.403 248.864 241.033 250.161 239.921C251.465 238.819 253.08 238.151 254.782 238.012V238.012Z" fill="black"/>
<path opacity="0.4" d="M257.895 243.784C256.951 244.05 256.089 244.55 255.388 245.238C254.677 245.9 254.021 246.619 253.426 247.387C252.235 248.938 251.155 250.571 250.197 252.275C249.207 253.97 248.315 255.727 247.467 257.511C246.62 259.295 245.871 261.124 245.148 263.015C245.289 260.988 245.706 258.989 246.388 257.074C247.034 255.155 247.865 253.303 248.868 251.544C249.879 249.766 251.104 248.118 252.516 246.638C253.233 245.888 254.039 245.229 254.916 244.676C255.791 244.074 256.833 243.762 257.895 243.784Z" fill="black"/>
<path opacity="0.4" d="M263.015 251.303C262.231 251.535 261.519 251.961 260.946 252.543C260.338 253.079 259.769 253.658 259.242 254.274C258.174 255.499 257.179 256.785 256.263 258.127C255.371 259.465 254.479 260.803 253.658 262.239C252.837 263.675 252.079 265.076 251.392 266.547L250.313 268.786C249.903 269.536 249.492 270.267 249.029 270.972C248.137 272.363 247.12 273.701 246.121 275.004C245.126 276.273 244.231 277.618 243.445 279.027C242.63 280.439 242.165 282.027 242.089 283.656C241.85 281.983 242.076 280.277 242.74 278.723C243.401 277.184 244.214 275.713 245.166 274.335C246.058 272.943 247.013 271.614 247.842 270.223L248.449 269.188L249.02 268.126L250.054 265.914C251.487 262.898 253.259 260.055 255.335 257.44C256.371 256.129 257.507 254.9 258.733 253.765C259.349 253.199 260.008 252.683 260.705 252.222C261.377 251.711 262.176 251.394 263.015 251.303V251.303Z" fill="black"/>
<path opacity="0.4" d="M267.778 260.08C266.146 260.558 264.618 261.339 263.274 262.382C261.95 263.395 260.752 264.562 259.706 265.861C258.648 267.158 257.703 268.543 256.878 269.999L255.692 272.247C255.29 273.014 254.898 273.79 254.47 274.54C253.578 276.056 252.686 277.519 251.749 279L248.841 283.246C247.865 284.619 247.023 286.083 246.326 287.616C245.657 289.179 245.279 290.851 245.211 292.549C244.97 290.814 245.116 289.047 245.639 287.376C246.188 285.71 246.93 284.114 247.851 282.621C249.635 279.642 251.535 276.832 253.203 273.844C253.64 273.113 254.033 272.363 254.434 271.614C254.835 270.865 255.264 270.08 255.701 269.33C256.611 267.823 257.672 266.413 258.867 265.12C260.069 263.833 261.444 262.719 262.953 261.811C264.412 260.881 266.061 260.29 267.778 260.08V260.08Z" fill="black"/>
<path opacity="0.4" d="M272.506 272.453C269.491 273.163 266.623 274.395 264.032 276.092C262.773 276.927 261.619 277.913 260.598 279.027C260.33 279.294 260.116 279.606 259.875 279.919C259.634 280.231 259.402 280.498 259.153 280.811C258.671 281.444 258.163 282.059 257.645 282.657C255.531 285.039 253.185 287.162 250.973 289.32C249.857 290.38 248.82 291.518 247.869 292.728C246.866 293.905 246.26 295.369 246.138 296.911C245.957 295.299 246.352 293.675 247.253 292.326C248.091 290.97 249.052 289.695 250.126 288.517C252.231 286.154 254.496 284.004 256.521 281.676C257.03 281.096 257.529 280.516 258.002 279.892C258.234 279.606 258.493 279.285 258.76 279C259.012 278.686 259.283 278.388 259.572 278.108C260.708 276.944 262.006 275.949 263.425 275.155C266.192 273.54 269.306 272.613 272.506 272.453V272.453Z" fill="black"/>
<path opacity="0.4" d="M274.424 283.656C271.782 284.401 269.226 285.42 266.797 286.698C265.621 287.335 264.507 288.082 263.47 288.928C262.976 289.357 262.511 289.819 262.078 290.31C261.864 290.533 261.632 290.81 261.392 291.095C261.151 291.381 260.91 291.63 260.651 291.889C258.576 293.797 256.29 295.46 253.836 296.849C252.668 297.58 251.482 298.285 250.384 299.088C249.828 299.473 249.311 299.912 248.841 300.399C248.356 300.876 248.005 301.473 247.824 302.129C247.86 301.413 248.101 300.722 248.52 300.14C248.923 299.552 249.389 299.011 249.912 298.526C250.946 297.566 252.039 296.672 253.185 295.85C255.438 294.326 257.573 292.635 259.572 290.792C259.813 290.56 260.036 290.319 260.259 290.078C260.482 289.838 260.696 289.579 260.955 289.302C261.445 288.76 261.979 288.259 262.551 287.804C263.694 286.934 264.937 286.203 266.253 285.627C268.837 284.488 271.604 283.821 274.424 283.656V283.656Z" fill="black"/>
<path opacity="0.4" d="M275.164 296.893C272.804 296.887 270.453 297.187 268.171 297.785C265.911 298.395 263.703 299.185 261.57 300.149C259.385 301.041 257.208 301.996 255.076 302.995C254.015 303.503 252.962 304.02 251.954 304.627C251.45 304.919 250.967 305.247 250.509 305.608C250.283 305.784 250.076 305.985 249.894 306.206C249.693 306.421 249.555 306.686 249.492 306.973C249.519 306.348 249.78 305.755 250.224 305.314C250.62 304.846 251.059 304.416 251.535 304.029C252.477 303.263 253.479 302.574 254.532 301.969C256.611 300.755 258.772 299.688 260.999 298.775C262.114 298.329 263.211 297.883 264.38 297.491C265.546 297.12 266.739 296.837 267.948 296.644C270.344 296.218 272.803 296.303 275.164 296.893Z" fill="black"/>
<path opacity="0.4" d="M275.164 306.955C273.104 307.142 271.061 307.276 269.018 307.401C266.976 307.526 264.96 307.677 262.944 307.892C261.936 307.972 260.928 308.088 259.929 308.23C258.93 308.373 257.94 308.525 256.949 308.712C254.952 309.029 253.029 309.709 251.276 310.719C251.969 309.923 252.804 309.264 253.738 308.775C254.675 308.288 255.654 307.888 256.664 307.579C258.664 306.979 260.721 306.585 262.801 306.402C264.876 306.209 266.962 306.155 269.045 306.241C271.101 306.312 273.147 306.551 275.164 306.955Z" fill="black"/>
<path opacity="0.4" d="M266.708 239.859L265.905 239.529C264.496 238.985 263.077 238.458 261.57 238.012C262.804 237.897 264.049 237.966 265.263 238.218C265.359 238.506 265.416 238.806 265.432 239.11C265.432 239.11 265.878 239.341 266.708 239.859Z" fill="black"/>
<path opacity="0.4" d="M275.03 246.335L273.496 245.737C271.166 244.854 268.755 244.2 266.298 243.784C268.467 243.626 270.648 243.819 272.756 244.355C273.478 244.97 274.245 245.63 275.03 246.335Z" fill="black"/>
<path opacity="0.4" d="M283.718 255.603C282.764 255.014 281.801 254.443 280.819 253.908C278.18 252.432 275.394 251.237 272.506 250.34C274.037 250.464 275.548 250.763 277.011 251.232C278.489 251.674 279.935 252.219 281.337 252.864L281.533 252.953C282.255 253.801 282.996 254.684 283.718 255.603Z" fill="black"/>
<path opacity="0.4" d="M291.149 267.038C290.988 266.869 290.819 266.717 290.64 266.556C288.531 264.577 286.122 262.943 283.504 261.713C280.811 260.524 278.024 259.557 275.173 258.823C278.174 258.975 281.136 259.577 283.959 260.607C285.381 261.146 286.747 261.824 288.036 262.632L289.133 263.381C289.829 264.594 290.498 265.816 291.149 267.038Z" fill="black"/>
<path opacity="0.4" d="M296.304 279.874L294.868 278.581C294.306 278.09 293.673 277.689 293.084 277.225C292.496 276.761 291.853 276.395 291.229 275.976C290.604 275.572 289.958 275.203 289.293 274.87C286.637 273.433 283.781 272.402 280.819 271.81C283.927 271.841 286.992 272.535 289.811 273.844C291.834 274.74 293.74 275.881 295.484 277.243V277.243C295.778 278.09 296.055 278.973 296.304 279.874Z" fill="black"/>
<path opacity="0.4" d="M298.597 291.122C298.276 290.801 297.928 290.515 297.58 290.23C297.174 289.847 296.742 289.492 296.287 289.169C294.514 287.79 292.575 286.639 290.515 285.743C288.43 284.809 286.246 284.115 284.004 283.674C286.356 283.537 288.713 283.87 290.935 284.655C293.186 285.41 295.296 286.535 297.179 287.982C297.553 288.277 297.919 288.589 298.276 288.874C298.41 289.632 298.508 290.373 298.597 291.122Z" fill="black"/>
<path opacity="0.4" d="M299.15 300.711C299.15 301.255 299.15 301.799 299.15 302.361L298.891 302.201C298.463 301.933 297.999 301.683 297.571 301.443C297.143 301.202 296.679 300.943 296.242 300.729L294.877 300.06L293.477 299.453C292.585 299.061 291.595 298.704 290.631 298.383C288.687 297.721 286.691 297.223 284.664 296.893C286.751 296.643 288.866 296.77 290.908 297.268C292.979 297.722 294.985 298.439 296.875 299.4C297.642 299.81 298.41 300.247 299.15 300.711Z" fill="black"/>
<path opacity="0.4" d="M298.249 312.369L298.035 313.806L297.339 313.476C296.536 313.083 295.716 312.726 294.886 312.396C293.236 311.683 291.532 311.112 289.82 310.505L284.628 308.721C286.479 308.73 288.324 308.936 290.132 309.337C291.96 309.724 293.751 310.271 295.484 310.969C296.403 311.424 297.348 311.87 298.249 312.369Z" fill="black"/>
<path opacity="0.4" d="M290.185 322.654H288.187L286.671 320.977C285.779 319.969 284.887 318.943 283.995 317.846C285.228 318.48 286.388 319.246 287.456 320.13C288.429 320.9 289.341 321.744 290.185 322.654V322.654Z" fill="black"/>
</g>
<path d="M257.306 214.24C261.525 203.849 255.942 192.449 255.942 192.449C250.818 194.152 246.25 197.21 242.722 201.298C239.765 200.889 236.787 200.651 233.802 200.584C232.419 197.676 228.521 190.977 221.43 189.541C221.43 189.541 217.229 202.413 220.699 209.513C219.274 211.384 217.966 213.341 216.783 215.373C214.267 219.833 217.211 226.077 219.459 229.529C221.707 232.981 228.227 237.343 234.703 238.039C244.158 239.047 254.666 232.25 256.842 228.414C257.966 226.39 258.939 220.235 257.306 214.24Z" fill="#263238"/>
<path opacity="0.2" d="M256.825 228.414C256.662 228.704 256.474 228.979 256.263 229.235C256.138 229.396 255.995 229.565 255.835 229.744C252.579 233.419 244.123 238.36 236.077 238.128C235.613 238.128 235.14 238.128 234.685 238.039C230.301 237.448 226.159 235.682 222.697 232.928C221.435 231.975 220.333 230.828 219.432 229.529C217.89 227.197 216.767 224.613 216.114 221.894C216.069 221.707 216.025 221.51 215.998 221.314C215.567 219.303 215.844 217.204 216.783 215.373C216.908 215.159 217.033 214.927 217.175 214.696C217.318 214.464 217.363 214.374 217.47 214.205C218.362 212.804 219.45 211.172 220.681 209.531C220.34 208.836 220.073 208.106 219.887 207.354C217.969 200.085 221.403 189.559 221.403 189.559C228.04 190.897 231.884 196.847 233.49 199.995C233.597 200.209 233.695 200.415 233.784 200.611H234.204C234.471 200.611 234.739 200.611 235.015 200.611C235.292 200.611 235.577 200.611 235.854 200.611H236.023C236.657 200.611 237.281 200.682 237.896 200.727H238.057C238.878 200.789 239.671 200.87 240.412 200.95H240.501L241.215 201.039C241.75 201.101 242.258 201.155 242.704 201.217C246.232 197.13 250.8 194.072 255.924 192.369C255.924 192.369 261.508 203.769 257.288 214.16C258.019 216.922 258.293 219.784 258.1 222.634C258.1 223.107 258.02 223.526 257.966 223.99C257.851 225.521 257.464 227.019 256.825 228.414V228.414Z" fill="white"/>
<path opacity="0.2" d="M236.112 238.012C235.64 238.012 235.167 238.012 234.694 238.012C230.249 237.534 226.078 235.632 222.804 232.589C221.771 230.693 221.513 228.472 222.081 226.39L222.277 227.139C222.201 226.612 222.251 226.076 222.421 225.572C222.592 225.068 222.879 224.612 223.259 224.24V225.828C223.259 225.828 224.106 220.788 228.2 222.26L231.073 222.732C235.533 222.09 237.602 228.325 237.602 228.325L237.995 226.934C237.995 226.934 240.751 229.119 241.009 231.982L242.071 231.492C242.071 231.492 241.099 236.799 236.112 238.012Z" fill="white"/>
<path d="M243.284 218.362C243.124 220.146 242.026 221.528 240.84 221.421C239.654 221.314 238.806 219.78 238.967 217.987C239.127 216.194 240.216 214.82 241.411 214.919C242.606 215.017 243.445 216.569 243.284 218.362Z" fill="#263238"/>
<path d="M227.237 216.176C226.809 217.96 225.524 219.12 224.356 218.852C223.187 218.585 222.572 216.917 223.027 215.168C223.482 213.42 224.748 212.225 225.908 212.492C227.068 212.76 227.665 214.428 227.237 216.176Z" fill="#263238"/>
<path d="M227.014 222.153C227.553 221.818 228.19 221.676 228.821 221.75C229.451 221.825 230.038 222.111 230.484 222.563C231.09 223.071 228.7 224.829 228.7 224.829C228.7 224.829 226.488 222.902 227.014 222.153Z" fill="#263238"/>
<path d="M233.32 230.207C231.358 230.207 228.691 228.994 228.316 228.272C227.826 227.317 228.272 223.865 228.316 223.178C228.332 223.086 228.382 223.003 228.457 222.947C228.531 222.89 228.625 222.865 228.718 222.875C228.811 222.888 228.895 222.938 228.952 223.013C229.009 223.088 229.034 223.183 229.021 223.276C228.816 224.775 228.602 227.362 228.896 227.942C229.19 228.521 232.464 229.949 234.105 229.387C234.346 229.297 235.087 229.039 234.846 227.603C234.838 227.556 234.84 227.509 234.85 227.463C234.861 227.418 234.881 227.375 234.908 227.336C234.935 227.298 234.97 227.266 235.01 227.241C235.049 227.217 235.094 227.2 235.14 227.192C235.186 227.185 235.234 227.186 235.279 227.197C235.325 227.208 235.368 227.227 235.406 227.254C235.444 227.282 235.477 227.316 235.501 227.356C235.526 227.396 235.543 227.44 235.55 227.487C235.845 229.271 234.89 229.868 234.302 230.065C233.984 230.164 233.653 230.213 233.32 230.207Z" fill="#263238"/>
<path d="M227.326 228.878C226.59 228.853 225.88 228.601 225.292 228.156C224.971 227.963 224.693 227.704 224.478 227.397C224.263 227.089 224.115 226.74 224.044 226.372C223.994 225.928 224.123 225.482 224.4 225.132C224.467 225.067 224.557 225.03 224.65 225.03C224.744 225.03 224.833 225.067 224.9 225.132C224.963 225.2 224.999 225.289 224.999 225.382C224.999 225.474 224.963 225.564 224.9 225.631C224.822 225.728 224.765 225.84 224.733 225.96C224.701 226.079 224.694 226.205 224.713 226.327C224.78 226.59 224.899 226.836 225.063 227.052C225.227 227.268 225.432 227.449 225.667 227.585C227.282 228.727 228.343 227.852 228.343 227.844C228.415 227.782 228.509 227.752 228.603 227.759C228.698 227.767 228.786 227.812 228.847 227.884C228.909 227.956 228.939 228.049 228.931 228.144C228.924 228.239 228.879 228.326 228.807 228.388C228.376 228.7 227.859 228.872 227.326 228.878V228.878Z" fill="#263238"/>
<path opacity="0.4" d="M257.984 224.07C256.593 222.581 253.069 220.039 244.435 218.139C244.435 218.139 254.131 218.727 258.118 222.715C258.082 223.187 258.038 223.642 257.984 224.07Z" fill="black"/>
<path opacity="0.4" d="M231.67 215.409C231.67 215.632 232.134 206.123 236.041 200.664C236.674 200.664 237.299 200.736 237.914 200.78H238.075C234.831 205.092 232.638 210.101 231.67 215.409V215.409Z" fill="black"/>
<path opacity="0.2" d="M243.641 204.768C243.641 204.768 249.314 196.472 255.344 193.662C256.863 196.745 257.716 200.114 257.848 203.549C257.981 206.983 257.389 210.407 256.111 213.598C256.111 213.598 251.99 212.706 250.759 210.922C250.759 210.922 251.696 208.425 253.435 207.533C252.285 207.869 251.234 208.481 250.375 209.317C250.375 209.317 251.018 205.196 252.641 203.269C252.641 203.269 249.492 205.526 248.681 208.621C248.627 208.648 244.408 207.212 243.641 204.768Z" fill="white"/>
<path opacity="0.2" d="M242.722 201.298C242.327 202.064 241.992 202.86 241.723 203.679C241.073 202.921 240.655 201.992 240.519 201.003C241.331 201.119 242.08 201.208 242.722 201.298Z" fill="black"/>
<path opacity="0.2" d="M221.377 209.013C221.377 209.013 224.392 205.927 226.077 205.044C226.077 205.044 224.766 202.529 224.213 202.297C225.051 202.607 225.816 203.087 226.461 203.706C226.461 203.706 226.193 201.03 225.105 199.71C226.288 200.804 227.246 202.119 227.924 203.581L230.6 201.967C228.978 197.287 225.838 193.284 221.68 190.594C221.68 190.594 217.889 202.109 221.377 209.013Z" fill="white"/>
<path opacity="0.2" d="M216.801 215.356C217.978 213.329 219.279 211.378 220.699 209.513C220.357 208.818 220.091 208.088 219.905 207.336C223.473 203.965 229.039 202.921 229.039 202.921C224.271 206.327 220.13 210.534 216.801 215.356V215.356Z" fill="black"/>
<path opacity="0.4" d="M241.232 201.119C240.602 201.818 240.029 202.567 239.52 203.358C239.119 203.967 238.775 204.612 238.494 205.285C238.218 205.936 238.048 206.703 237.682 207.381C236.923 208.664 236.025 209.861 235.006 210.949C233.987 211.993 233.197 213.239 232.687 214.606C233.14 213.21 233.882 211.924 234.864 210.833C235.829 209.715 236.669 208.494 237.37 207.194C237.641 206.511 237.876 205.814 238.075 205.107C238.337 204.395 238.662 203.708 239.047 203.055C239.472 202.343 239.939 201.658 240.448 201.003H240.537L241.232 201.119Z" fill="black"/>
<path opacity="0.4" d="M231.073 209.62C231.134 210.982 231.065 212.347 230.867 213.696C230.992 212.343 230.992 210.982 230.867 209.629C230.818 208.943 230.818 208.254 230.867 207.568C230.965 206.875 231.185 206.204 231.519 205.588C231.816 204.979 232.078 204.354 232.304 203.715C232.583 203.093 232.914 202.497 233.294 201.931C233.579 201.503 233.873 201.039 234.186 200.682C234.453 200.682 234.721 200.682 234.997 200.682C234.56 201.182 234.15 201.69 233.758 202.234C233.365 202.77 233.022 203.34 232.732 203.938C232.473 204.536 232.179 205.205 231.84 205.793C231.485 206.354 231.243 206.978 231.126 207.631C231.069 208.292 231.051 208.956 231.073 209.62V209.62Z" fill="black"/>
<path opacity="0.4" d="M256.263 229.244C256.138 229.405 255.995 229.574 255.834 229.752C253.95 228.928 252.171 227.88 250.536 226.63C249.345 225.778 248.348 224.684 247.61 223.419C247.269 222.792 246.783 222.255 246.191 221.854C245.6 221.454 244.921 221.201 244.212 221.118C244.94 221.176 245.643 221.407 246.264 221.792C246.884 222.176 247.404 222.704 247.78 223.33C248.55 224.531 249.569 225.553 250.768 226.327C252.476 227.517 254.32 228.496 256.263 229.244V229.244Z" fill="black"/>
<path opacity="0.4" d="M222.108 213.83C221.285 213.781 220.459 213.826 219.646 213.964C218.84 214.102 218.053 214.332 217.3 214.651H217.229C217.318 214.49 217.416 214.33 217.523 214.16C218.207 213.958 218.909 213.82 219.619 213.75C220.449 213.683 221.284 213.71 222.108 213.83V213.83Z" fill="black"/>
<path opacity="0.4" d="M221.359 217.14C220.43 217.384 219.581 217.866 218.897 218.54C218.206 219.202 217.576 219.924 217.015 220.699C216.702 221.091 216.408 221.492 216.123 221.885C216.078 221.698 216.033 221.501 216.007 221.305L216.729 220.458C217.354 219.714 218.04 219.025 218.781 218.397C219.517 217.763 220.405 217.329 221.359 217.14V217.14Z" fill="black"/>
<path opacity="0.2" d="M267.778 310.532C267.778 310.532 239.056 322.369 227.148 317.721C225.944 314.105 225.049 310.393 224.472 306.625C232.33 309.14 252.516 313.618 267.778 310.532Z" fill="black"/>
<path d="M271.168 308.391C271.168 308.391 231.92 322.19 213.563 306.786C191.539 288.312 210.887 264.291 206.141 260.08C201.396 255.87 194.795 255.959 191.869 270.098C188.943 284.236 190.576 322.654 228.932 322.654H275.869L271.168 308.391Z" fill="#263238"/>
<path opacity="0.2" d="M275.905 322.654H228.967C227.79 322.654 226.648 322.654 225.533 322.547C225.034 322.547 224.534 322.476 224.044 322.422C219.062 322.036 214.208 320.653 209.772 318.355C209.317 318.123 208.88 317.864 208.451 317.605C204.883 315.482 201.777 312.664 199.317 309.319C199.005 308.891 198.711 308.427 198.425 308.034C196.126 304.536 194.375 300.707 193.234 296.679C193.082 296.18 192.94 295.671 192.824 295.172C191.94 291.732 191.378 288.217 191.147 284.673C191.147 284.156 191.093 283.638 191.066 283.13C190.941 280.339 191.009 277.544 191.272 274.763C191.417 273.197 191.644 271.64 191.949 270.098C194.848 255.959 201.458 255.826 206.221 260.08C208.353 261.98 205.606 267.894 203.956 275.512C203.43 277.827 203.09 280.181 202.939 282.55C202.939 283.041 202.885 283.54 202.876 284.04C202.816 286.622 203.098 289.202 203.715 291.711C203.84 292.201 203.974 292.692 204.134 293.183C205.007 295.934 206.327 298.522 208.041 300.845C208.335 301.264 208.657 301.683 208.996 302.094C210.396 303.804 211.955 305.378 213.652 306.794C214.501 307.497 215.395 308.144 216.328 308.73C216.774 309.007 217.22 309.283 217.693 309.533C220.065 310.833 222.591 311.831 225.212 312.503L226.666 312.86C230.621 313.702 234.656 314.109 238.699 314.073H240.26C244.195 313.969 248.118 313.615 252.008 313.012L253.622 312.753C259.574 311.755 265.44 310.3 271.168 308.4L275.905 322.654Z" fill="white"/>
<path opacity="0.4" d="M203.876 275.512C199.505 273.666 194.572 274.085 191.227 274.763C191.373 273.197 191.599 271.64 191.905 270.098C194.804 255.959 201.414 255.826 206.177 260.08C208.273 261.98 205.526 267.894 203.876 275.512Z" fill="black"/>
<g opacity="0.4">
<path opacity="0.4" d="M202.859 282.55C202.859 283.04 202.805 283.54 202.796 284.04C198.895 283.465 194.918 283.681 191.102 284.673C191.102 284.155 191.049 283.638 191.022 283.13C194.895 282.187 198.912 281.99 202.859 282.55V282.55Z" fill="black"/>
<path opacity="0.4" d="M204.054 293.183C200.232 293.594 196.534 294.784 193.189 296.679C193.038 296.18 192.895 295.671 192.779 295.172C196.14 293.322 199.826 292.138 203.635 291.684C203.76 292.201 203.893 292.692 204.054 293.183Z" fill="black"/>
<path opacity="0.4" d="M208.915 302.094C205.166 303.682 201.862 306.162 199.291 309.319C198.978 308.891 198.684 308.427 198.399 308.034C200.99 304.926 204.27 302.464 207.979 300.845C208.255 301.264 208.576 301.683 208.915 302.094Z" fill="black"/>
<path opacity="0.4" d="M216.212 308.73C216.658 309.007 217.104 309.283 217.577 309.533C214.561 312.087 211.924 315.058 209.745 318.355C209.29 318.123 208.853 317.864 208.425 317.606C210.601 314.303 213.221 311.317 216.212 308.73V308.73Z" fill="black"/>
<path opacity="0.4" d="M226.568 312.86C226.044 316.067 225.705 319.301 225.551 322.547C225.052 322.547 224.552 322.476 224.061 322.422C224.218 319.098 224.569 315.786 225.114 312.503L226.568 312.86Z" fill="black"/>
<path opacity="0.4" d="M240.144 314.064C239.44 316.87 239.166 319.766 239.333 322.654H237.834C237.691 319.773 237.943 316.886 238.583 314.073H240.144V314.064Z" fill="black"/>
<path opacity="0.4" d="M257.387 322.654H255.87C255.281 318.952 253.194 315.179 251.892 313.003L253.506 312.744C255.407 315.777 256.723 319.138 257.387 322.654V322.654Z" fill="black"/>
<path opacity="0.4" d="M268.314 322.654H266.842C267.778 317.641 266.012 311.95 266.012 311.95C267.965 315.156 268.776 318.929 268.314 322.654V322.654Z" fill="black"/>
</g>
<path d="M77.827 303.378C77.8176 302.749 77.9536 302.126 78.2243 301.559C78.4951 300.991 78.8933 300.493 79.388 300.104C79.9245 299.776 80.543 299.606 81.172 299.614C81.172 299.614 80.4584 298.187 82.956 298.062C85.4536 297.937 84.4903 297.758 85.3109 296.679C86.1315 295.6 88.4864 296.01 88.4864 296.01C88.4864 296.01 87.8977 295.02 91.1624 294.226C94.4271 293.432 95.221 295.047 95.221 295.047C95.221 295.047 96.3271 293.53 97.7454 294.226C98.1974 294.497 98.5889 294.857 98.8958 295.285C99.2027 295.713 99.4184 296.2 99.5294 296.715C99.7287 296.511 99.9667 296.349 100.229 296.239C100.492 296.129 100.774 296.072 101.059 296.072C101.344 296.072 101.626 296.129 101.889 296.239C102.152 296.349 102.39 296.511 102.589 296.715L104.114 298.222C105.038 298.297 105.927 298.604 106.701 299.114C107.878 299.908 107.593 299.908 108.485 299.908C109.325 299.747 110.189 299.772 111.018 299.98C111.903 300.343 112.617 301.028 113.016 301.897C114.649 304.654 77.827 303.378 77.827 303.378Z" fill="#2452B3"/>
<path d="M122.293 322.654H68.3004L72.252 302.308C72.2977 302.067 72.3926 301.838 72.5307 301.635C72.6688 301.433 72.8472 301.261 73.0548 301.13C73.3445 300.943 73.6822 300.844 74.0271 300.845H116.567C116.79 300.844 117.011 300.887 117.218 300.97C117.504 301.078 117.758 301.257 117.955 301.492C118.152 301.726 118.285 302.007 118.342 302.308L119.234 307.035L120.126 311.54L120.643 314.216L121.267 317.391L122.293 322.654Z" fill="#263238"/>
<path opacity="0.4" d="M121.312 317.4H97.228C95.8222 317.379 94.4742 316.838 93.4445 315.881C92.4147 314.923 91.7764 313.618 91.653 312.218C91.653 312.084 91.653 311.941 91.653 311.807C91.6458 311.176 91.7651 310.55 92.0041 309.966C92.243 309.382 92.5967 308.852 93.0441 308.407C93.4915 307.962 94.0237 307.612 94.609 307.376C95.1944 307.14 95.821 307.024 96.452 307.035H119.26L120.152 311.54L120.67 314.216L121.312 317.4Z" fill="white"/>
<g opacity="0.4">
<path opacity="0.4" d="M100.341 310.006L99.4491 312.503L98.2003 310.006H97.3797L99.1102 313.386V313.52C98.9853 313.859 98.8247 313.984 98.5482 313.984C98.3271 313.983 98.1141 313.901 97.9506 313.752L97.683 314.332C97.9385 314.53 98.2516 314.64 98.575 314.644C99.128 314.644 99.5472 314.412 99.797 313.645L101.09 310.006H100.341Z" fill="black"/>
<path opacity="0.4" d="M104.846 310.006H104.061L104.195 311.709C104.248 312.387 103.9 312.726 103.303 312.726C102.705 312.726 102.491 312.441 102.411 311.834L102.277 310.05H101.483L101.635 311.977C101.628 312.181 101.664 312.383 101.741 312.572C101.818 312.761 101.934 312.931 102.081 313.072C102.228 313.212 102.404 313.32 102.596 313.388C102.788 313.456 102.992 313.483 103.196 313.467C103.396 313.475 103.595 313.436 103.777 313.354C103.96 313.272 104.121 313.149 104.248 312.994V313.422H104.997L104.846 310.006Z" fill="black"/>
<path opacity="0.4" d="M111.625 311.451C111.604 311.149 111.494 310.861 111.309 310.622C111.124 310.383 110.872 310.204 110.586 310.109C110.299 310.013 109.99 310.005 109.699 310.085C109.407 310.165 109.146 310.33 108.949 310.559C108.814 310.376 108.635 310.229 108.43 310.131C108.225 310.033 107.999 309.987 107.771 309.997C107.568 309.986 107.366 310.023 107.18 310.105C106.994 310.187 106.83 310.312 106.701 310.469V310.032H105.952L106.21 313.404H106.995L106.871 311.692C106.817 311.023 107.147 310.684 107.664 310.684C108.182 310.684 108.449 310.978 108.494 311.576L108.628 313.404H109.422L109.288 311.692C109.234 311.023 109.573 310.684 110.091 310.684C110.608 310.684 110.867 310.978 110.911 311.576L111.054 313.404H111.839L111.625 311.451Z" fill="black"/>
<path opacity="0.4" d="M118.261 311.451C118.241 311.149 118.131 310.861 117.946 310.622C117.761 310.383 117.509 310.204 117.222 310.109C116.935 310.013 116.627 310.005 116.335 310.085C116.044 310.165 115.783 310.33 115.585 310.559C115.45 310.376 115.272 310.229 115.067 310.131C114.861 310.033 114.635 309.987 114.408 309.997C114.205 309.986 114.002 310.023 113.816 310.105C113.63 310.187 113.466 310.312 113.338 310.469V310.032H112.588L112.847 313.404H113.632L113.507 311.692C113.454 311.023 113.784 310.684 114.301 310.684C114.818 310.684 115.086 310.978 115.13 311.576L115.264 313.404H115.96L115.826 311.692C115.773 311.023 116.112 310.684 116.629 310.684C117.146 310.684 117.405 310.978 117.45 311.576L117.592 313.404H118.377L118.261 311.451Z" fill="black"/>
<path opacity="0.4" d="M120.135 311.54L119.367 310.006H118.547L120.268 313.386L120.224 313.52C120.099 313.859 119.947 313.984 119.671 313.984C119.45 313.983 119.237 313.901 119.073 313.752L118.797 314.332C119.053 314.529 119.365 314.638 119.689 314.644C119.86 314.651 120.031 314.617 120.186 314.544C120.342 314.471 120.477 314.362 120.581 314.225L120.135 311.54Z" fill="black"/>
</g>
<path opacity="0.2" d="M111.116 299.908C111.011 300.044 110.88 300.159 110.733 300.247C110.422 300.399 110.08 300.479 109.734 300.479C108.221 300.481 106.717 300.252 105.274 299.801L104.275 299.543C104.181 299.521 104.083 299.521 103.989 299.543C103.802 299.543 103.641 299.739 103.454 299.712C103.267 299.685 103.187 299.543 103.035 299.48C102.651 299.337 102.277 299.855 101.875 299.783C101.756 299.748 101.64 299.703 101.527 299.65C101.353 299.627 101.176 299.627 101.001 299.65C100.639 299.661 100.28 299.573 99.9655 299.393C99.6506 299.214 99.3916 298.95 99.2172 298.633C98.6992 299.38 97.9245 299.91 97.0407 300.122C96.599 300.214 96.1396 300.16 95.7312 299.969C95.3227 299.777 94.9873 299.459 94.775 299.061C94.7126 298.918 94.659 298.749 94.5163 298.677C94.3736 298.606 94.106 298.749 93.99 298.936C93.9109 299.131 93.8059 299.314 93.6778 299.48C93.4565 299.642 93.1839 299.718 92.9107 299.694C91.7079 299.853 90.4863 299.605 89.4408 298.989C89.3825 298.925 89.3107 298.874 89.2306 298.84C89.1505 298.806 89.0639 298.79 88.977 298.793C88.8164 298.793 88.7183 298.972 88.6202 299.097C88.3417 299.454 87.995 299.752 87.6002 299.974C87.2054 300.196 86.7704 300.337 86.3205 300.389C85.8706 300.442 85.4148 300.404 84.9796 300.278C84.5445 300.153 84.1386 299.942 83.7856 299.658C83.6549 299.836 83.4632 299.959 83.2475 300.003C83.0318 300.047 82.8072 300.011 82.617 299.899C82.5189 299.837 82.4297 299.748 82.3138 299.748C82.1978 299.748 82.0551 299.864 81.9391 299.962C81.5523 300.192 81.1175 300.329 80.6687 300.363C80.22 300.397 79.7694 300.327 79.3523 300.158C79.8888 299.83 80.5073 299.659 81.1363 299.667C81.1363 299.667 80.4227 298.24 82.9203 298.115C85.4179 297.99 84.4546 297.812 85.2752 296.733C86.0958 295.653 88.4507 296.064 88.4507 296.064C88.4507 296.064 87.862 295.074 91.1267 294.28C94.3914 293.486 95.1853 295.1 95.1853 295.1C95.1853 295.1 96.2914 293.584 97.7097 294.28C98.1617 294.55 98.5533 294.911 98.8601 295.339C99.167 295.767 99.3827 296.253 99.4937 296.768C99.693 296.565 99.931 296.403 100.194 296.293C100.456 296.182 100.738 296.125 101.023 296.125C101.308 296.125 101.591 296.182 101.853 296.293C102.116 296.403 102.354 296.565 102.553 296.768L104.079 298.276C105.002 298.351 105.892 298.658 106.665 299.168C107.843 299.962 107.557 299.962 108.449 299.962C109.323 299.74 110.235 299.721 111.116 299.908V299.908Z" fill="white"/>
<path opacity="0.1" d="M117.236 301.13C117.233 301.534 117.072 301.921 116.786 302.206C116.501 302.492 116.114 302.653 115.71 302.656H74.5801C74.1763 302.653 73.7897 302.492 73.5041 302.206C73.2186 301.921 73.0571 301.534 73.0548 301.13C73.3445 300.943 73.6822 300.844 74.0271 300.845H116.567C116.79 300.844 117.011 300.887 117.218 300.97C117.232 301.022 117.238 301.076 117.236 301.13V301.13Z" fill="white"/>
</svg>
