<svg width="339" height="332" viewBox="0 0 339 332" fill="none" xmlns="http://www.w3.org/2000/svg">
<path d="M49.5918 165.079C-16.5306 203.246 -16.5306 265.173 49.5918 303.355C115.714 341.537 222.979 341.559 289.102 303.355C355.224 265.151 355.224 203.246 289.102 165.079C222.979 126.911 115.714 126.897 49.5918 165.079Z" fill="#FAFAFA"/>
<path d="M170.618 13.2396C169.428 13.5115 168.414 14.3196 167.297 14.7531C165.585 15.407 163.624 15.2086 161.926 15.8919C160.831 16.3701 159.904 17.1635 159.261 18.171C158.619 19.1785 158.291 20.3545 158.319 21.549C158.38 22.7432 158.75 23.9011 159.394 24.9085C160.039 25.9159 160.934 26.7382 161.993 27.2943C163.462 28.0731 165.078 28.5213 166.555 29.3C167.892 30.0347 168.957 31.0706 170.442 31.5555C171.813 32.0298 173.31 31.9854 174.651 31.4306C175.459 31.0823 176.141 30.4952 176.606 29.7482C177.406 28.5213 178.384 26.6111 178.185 25.0829C178.001 23.687 177.135 22.5702 176.591 21.3066C176.047 20.0429 175.974 18.5 175.673 17.0968C175.158 14.687 173.299 12.6152 170.618 13.2396Z" fill="#F5F5F5"/>
<path d="M164.27 12.8283C164.662 12.6543 165.04 12.4504 165.401 12.2185C165.883 11.9299 166.271 11.5094 166.521 11.0069C166.771 10.5043 166.872 9.94067 166.812 9.38261C166.758 8.37211 166.532 7.37824 166.143 6.44384C165.893 5.71569 165.526 5.03325 165.056 4.42343C164.902 4.22346 164.706 4.06035 164.481 3.94596C164.256 3.83158 164.008 3.7688 163.756 3.76221C163.398 3.80633 163.056 3.92945 162.752 4.12261C162.448 4.31577 162.191 4.57413 162 4.87894C161.332 5.76855 160.813 6.76117 160.464 7.81771C160.145 8.67586 160.042 9.59922 160.163 10.5067C160.225 10.9614 160.389 11.3962 160.644 11.778C160.898 12.1598 161.236 12.4788 161.632 12.7108C162.381 13.0761 163.241 13.1393 164.035 12.8871L164.27 12.8283Z" fill="#F5F5F5"/>
<path d="M169.655 2.85844C170.427 1.27151 171.654 -0.0288992 173.49 0.000488506C175.636 0.0372232 176.275 2.64538 176.091 4.40865C175.964 6.32392 175.186 8.13827 173.887 9.5515C172.139 11.2192 169.927 10.4184 169.126 8.26578C168.587 6.46373 168.777 4.52172 169.655 2.85844V2.85844Z" fill="#F5F5F5"/>
<path d="M179.493 20.7483C179.37 20.3355 179.284 19.9126 179.236 19.4846C179.149 18.9319 179.222 18.3658 179.446 17.8531C179.669 17.3403 180.035 16.9021 180.499 16.5899C181.318 15.9768 182.234 15.5072 183.21 15.2013C183.926 14.9239 184.684 14.7675 185.451 14.7385C185.705 14.7272 185.958 14.7728 186.192 14.872C186.426 14.9712 186.635 15.1213 186.803 15.3116C186.992 15.6199 187.11 15.9666 187.148 16.3262C187.186 16.6859 187.144 17.0496 187.023 17.3907C186.766 18.479 186.334 19.5185 185.745 20.4691C185.285 21.2603 184.643 21.9303 183.872 22.4234C183.483 22.6638 183.046 22.8137 182.592 22.8621C182.138 22.9104 181.679 22.8559 181.249 22.7026C180.489 22.361 179.889 21.7402 179.574 20.9687C179.544 20.8952 179.515 20.8217 179.493 20.7483Z" fill="#F5F5F5"/>
<path d="M184.283 10.095C185.018 8.48603 185.187 6.70073 183.974 5.32685C182.564 3.71053 180.154 4.91542 178.964 6.17175C177.59 7.51787 176.713 9.28892 176.473 11.197C176.341 13.6068 178.391 14.7677 180.543 13.9889C182.248 13.2257 183.589 11.8293 184.283 10.095V10.095Z" fill="#F5F5F5"/>
<path d="M27.4554 21.3876C26.8089 22.6366 26.7722 24.106 26.302 25.4285C25.5673 27.4195 23.9583 28.977 23.2824 30.9754C22.8819 32.2914 22.8818 33.6968 23.2821 35.0129C23.6824 36.329 24.4651 37.4963 25.5305 38.3664C26.6244 39.1995 27.9162 39.7337 29.279 39.9166C30.6418 40.0995 32.0287 39.9248 33.3036 39.4097C35.0889 38.675 36.6832 37.6317 38.4464 36.919C40.0701 36.2799 41.7893 36.1476 43.3248 35.2072C44.7658 34.3639 45.8459 33.0197 46.3591 31.4309C46.6631 30.4749 46.6631 29.4481 46.3591 28.4921C45.8889 26.8684 44.9411 24.5909 43.4644 23.6211C41.9877 22.6513 40.4815 22.6513 38.9681 22.1517C37.4546 21.6521 36.0293 20.6015 34.5599 19.808C32.1134 18.5003 28.9101 18.5811 27.4554 21.3876Z" fill="#EBEBEB"/>
<path d="M22.3493 26.633C22.4973 26.1533 22.603 25.6617 22.6653 25.1636C22.7769 24.5272 22.7017 23.872 22.4487 23.2774C22.1957 22.6829 21.7759 22.1743 21.2399 21.8134C20.3096 21.0954 19.2635 20.5414 18.1469 20.175C17.3219 19.8549 16.4517 19.6665 15.5681 19.6167C15.277 19.6039 14.9866 19.6552 14.7175 19.7669C14.4484 19.8786 14.2071 20.048 14.0106 20.2632C13.7886 20.6151 13.6483 21.0122 13.6 21.4254C13.5517 21.8386 13.5966 22.2574 13.7314 22.6509C14.0215 23.9092 14.518 25.1108 15.2008 26.2069C15.7166 27.1269 16.4477 27.9084 17.3314 28.4844C17.7742 28.767 18.2753 28.9456 18.797 29.0067C19.3187 29.0678 19.8475 29.0098 20.3436 28.8371C21.1983 28.46 21.8801 27.7756 22.2538 26.9195C22.2906 26.802 22.3199 26.7211 22.3493 26.633Z" fill="#EBEBEB"/>
<path d="M17.662 14.4667C16.8465 12.6152 16.6334 10.5655 18.0294 8.97852C19.6604 7.12709 22.4375 8.52301 23.7893 9.97036C25.1412 11.4177 26.5297 13.6438 26.64 15.7524C26.7942 18.5295 24.4359 19.8667 21.96 18.9556C19.991 18.2356 18.4849 16.3401 17.662 14.4667Z" fill="#EBEBEB"/>
<path d="M40.6652 19.2423C40.2122 19.0338 39.7772 18.7881 39.3648 18.5076C38.8126 18.1748 38.3691 17.6884 38.0886 17.1079C37.8081 16.5273 37.7027 15.8776 37.7852 15.2382C37.8502 14.07 38.1161 12.9217 38.5714 11.8439C38.8698 11.01 39.2988 10.2289 39.8424 9.52961C40.0264 9.30486 40.2571 9.12276 40.5184 8.99591C40.7797 8.86906 41.0654 8.80048 41.3559 8.79492C41.7677 8.85966 42.1598 9.01607 42.5031 9.25258C42.8464 9.4891 43.1323 9.7997 43.3395 10.1614C44.0983 11.1991 44.6838 12.3528 45.0734 13.5778C45.4253 14.5558 45.5361 15.6041 45.3967 16.6341C45.3268 17.1555 45.139 17.6542 44.8474 18.0921C44.5559 18.5301 44.1683 18.8958 43.7142 19.1614C42.8479 19.5741 41.856 19.6372 40.9444 19.3378L40.6652 19.2423Z" fill="#EBEBEB"/>
<path d="M34.8979 7.08297C34.0163 5.25358 32.6056 3.75481 30.4897 3.77685C28.0285 3.81359 27.2791 6.81848 27.4922 8.80215C27.7052 10.7858 28.4693 13.2103 30.0195 14.7311C32.0326 16.6487 34.582 15.7303 35.5003 13.2617C36.2644 11.3075 35.8089 8.92705 34.8979 7.08297Z" fill="#EBEBEB"/>
<path d="M292.356 24.767C291.989 25.8764 292.158 27.096 291.945 28.2495C291.629 29.9833 290.476 31.4895 290.196 33.2233C290.042 34.3624 290.231 35.5215 290.739 36.5527C291.247 37.5839 292.05 38.4403 293.047 39.0127C294.059 39.5589 295.195 39.8319 296.344 39.8049C297.493 39.7778 298.616 39.4516 299.6 38.8584C300.967 38.0429 302.142 36.9409 303.516 36.118C304.765 35.3833 306.169 35.0307 307.307 34.0462C308.383 33.1579 309.094 31.9054 309.306 30.527C309.423 29.6918 309.282 28.8405 308.902 28.0878C308.292 26.8168 307.212 25.0609 305.86 24.4658C304.508 23.8707 303.274 24.0691 301.966 23.8854C300.658 23.7017 299.387 22.9964 298.043 22.5115C295.809 21.7768 293.179 22.2544 292.356 24.767Z" fill="#F5F5F5"/>
<path d="M288.852 29.7775C288.907 29.366 288.929 28.9508 288.918 28.5358C288.925 27.9972 288.775 27.4683 288.486 27.0131C288.198 26.558 287.784 26.1963 287.294 25.9718C286.432 25.5034 285.495 25.1878 284.525 25.0387C283.801 24.8821 283.057 24.8424 282.321 24.9211C282.08 24.9482 281.849 25.0281 281.643 25.1551C281.437 25.2821 281.262 25.4531 281.13 25.6558C280.992 25.9763 280.929 26.3239 280.944 26.6725C280.959 27.0211 281.053 27.3617 281.219 27.6689C281.617 28.6653 282.178 29.5888 282.879 30.402C283.426 31.0917 284.132 31.6387 284.936 31.9962C285.338 32.1703 285.775 32.2502 286.213 32.2299C286.651 32.2095 287.079 32.0894 287.463 31.8787C288.139 31.4502 288.621 30.7757 288.808 29.9979C288.823 29.9244 288.845 29.8583 288.852 29.7775Z" fill="#F5F5F5"/>
<path d="M283.357 20.3808C282.438 18.9555 281.983 17.2951 282.923 15.8037C284.018 14.0624 286.486 14.8339 287.809 15.8477C289.32 16.9197 290.421 18.4745 290.931 20.2559C291.424 22.5261 289.66 23.9294 287.5 23.5253C285.761 23.0601 284.273 21.9311 283.357 20.3808V20.3808Z" fill="#F5F5F5"/>
<path d="M302.951 21.2256C302.552 21.1211 302.163 20.981 301.79 20.8068C301.29 20.605 300.86 20.2634 300.549 19.8229C300.239 19.3824 300.063 18.8618 300.041 18.3235C299.942 17.3394 300.011 16.3455 300.247 15.3848C300.38 14.6571 300.628 13.9552 300.982 13.3056C301.101 13.094 301.266 12.9114 301.464 12.7705C301.662 12.6295 301.889 12.5338 302.128 12.4901C302.476 12.4873 302.819 12.5632 303.134 12.7121C303.448 12.8609 303.724 13.0789 303.942 13.3497C304.709 14.1024 305.347 14.9761 305.831 15.9358C306.256 16.7035 306.488 17.5634 306.507 18.4411C306.512 18.88 306.418 19.3145 306.231 19.7116C306.044 20.1088 305.769 20.4581 305.427 20.7333C304.771 21.1922 303.961 21.3767 303.171 21.2476C303.097 21.2474 303.023 21.2401 302.951 21.2256V21.2256Z" fill="#F5F5F5"/>
<path d="M296.596 11.976C295.626 10.5875 294.259 9.5442 292.525 9.85277C290.498 10.2054 290.285 12.7915 290.718 14.3932C291.139 16.1899 292.157 17.7907 293.605 18.9336C295.516 20.2487 297.492 19.154 297.925 16.994C298.152 15.212 297.675 13.4121 296.596 11.976V11.976Z" fill="#F5F5F5"/>
<path d="M250.383 70.8544C248.635 71.5891 247.334 73.1099 245.703 74.0944C243.257 75.5638 240.201 75.8063 237.776 77.3197C236.227 78.3566 235.021 79.831 234.311 81.5554C233.602 83.2797 233.422 85.176 233.794 87.003C234.221 88.818 235.111 90.4912 236.378 91.8589C237.646 93.2266 239.246 94.2419 241.023 94.8054C243.492 95.5915 246.093 95.8266 248.576 96.6201C250.824 97.3548 252.742 98.6773 255.188 99.0079C257.424 99.359 259.712 98.878 261.617 97.656C262.753 96.888 263.627 95.7907 264.122 94.5116C265.011 92.403 265.981 89.2071 265.254 86.9222C264.592 84.8209 262.961 83.3442 261.771 81.5589C260.581 79.7736 260.052 77.4299 259.2 75.3508C257.745 71.8242 254.321 69.1573 250.383 70.8544Z" fill="#EBEBEB"/>
<path d="M240.524 71.9709C241.084 71.6026 241.61 71.1846 242.096 70.722C243.565 69.4069 243.859 67.9228 243.477 65.9905C243.121 64.4271 242.5 62.9362 241.64 61.5824C241.057 60.5396 240.313 59.595 239.436 58.7832C239.141 58.5167 238.79 58.3197 238.408 58.2066C238.027 58.0934 237.625 58.067 237.232 58.1293C236.123 58.3424 235.388 59.3857 234.881 60.3922C234.103 61.9513 233.582 63.6259 233.338 65.3514C233.091 66.7567 233.187 68.2008 233.618 69.5612C233.841 70.235 234.215 70.8494 234.709 71.3584C235.204 71.8674 235.808 72.2576 236.476 72.4999C237.723 72.86 239.062 72.7204 240.208 72.1105L240.524 71.9709Z" fill="#EBEBEB"/>
<path d="M246.049 55.1907C246.783 52.5458 248.319 50.2094 251.147 49.7466C254.446 49.2103 256.151 53.038 256.342 55.7343C256.54 58.5629 256.077 61.9058 254.365 64.2421C252.161 67.2837 248.488 66.6592 246.703 63.5809C245.263 61.1417 245.307 57.8576 246.049 55.1907Z" fill="#EBEBEB"/>
<path d="M266.069 79.9352C265.772 79.3352 265.526 78.7109 265.334 78.069C264.717 76.1956 265.195 74.7703 266.488 73.2788C267.568 72.1089 268.84 71.1324 270.25 70.3915C271.277 69.772 272.399 69.3229 273.57 69.0617C273.953 68.9826 274.348 68.9876 274.729 69.0764C275.11 69.1652 275.466 69.3357 275.774 69.576C276.627 70.3107 276.752 71.5817 276.685 72.7058C276.592 74.4451 276.214 76.1574 275.569 77.7752C275.087 79.1184 274.288 80.3256 273.24 81.2943C272.711 81.7706 272.082 82.121 271.398 82.3195C270.715 82.518 269.996 82.5594 269.294 82.4405C268.029 82.1326 266.935 81.3414 266.245 80.2364C266.194 80.1482 266.128 80.0454 266.069 79.9352Z" fill="#EBEBEB"/>
<path d="M270.485 62.2655C271.138 59.5986 270.94 56.8141 268.699 55.0288C266.084 52.9423 262.726 55.4549 261.242 57.7104C259.685 60.0835 258.458 63.228 258.81 66.1006C259.266 69.8402 262.726 71.0671 265.819 69.2671C268.266 67.8418 269.831 64.9545 270.485 62.2655Z" fill="#EBEBEB"/>
<path d="M318.71 89.8242C317.711 90.2062 316.932 91.0144 315.991 91.5213C314.581 92.256 312.854 92.3368 311.451 93.123C310.551 93.6621 309.832 94.4579 309.387 95.4082C308.942 96.3585 308.791 97.4201 308.953 98.4568C309.141 99.4886 309.596 100.453 310.271 101.256C310.946 102.059 311.819 102.672 312.803 103.034C314.169 103.541 315.624 103.769 316.998 104.261C318.24 104.724 319.283 105.532 320.635 105.782C321.89 106.046 323.198 105.837 324.308 105.194C324.977 104.806 325.507 104.218 325.822 103.512C326.38 102.351 327.004 100.573 326.659 99.2797C326.314 97.9866 325.469 97.2079 324.852 96.1719C324.308 95.0296 323.88 93.836 323.573 92.6087C322.824 90.5736 320.973 88.9793 318.71 89.8242Z" fill="#EBEBEB"/>
<path d="M313.141 90.1914C313.465 89.997 313.772 89.7758 314.059 89.5302C314.448 89.2275 314.74 88.8185 314.9 88.3529C315.061 87.8873 315.082 87.3851 314.963 86.9073C314.801 86.0263 314.49 85.1792 314.044 84.402C313.745 83.7971 313.351 83.244 312.876 82.7636C312.718 82.6076 312.528 82.4885 312.318 82.4148C312.108 82.3411 311.885 82.3148 311.664 82.3375C311.358 82.421 311.074 82.5728 310.835 82.7814C310.596 82.9901 310.407 83.2503 310.283 83.5424C309.802 84.3984 309.462 85.3262 309.276 86.2902C309.103 87.0736 309.118 87.8868 309.32 88.6632C309.428 89.0497 309.621 89.407 309.886 89.7084C310.15 90.0099 310.479 90.2478 310.849 90.4045C311.541 90.6352 312.295 90.5931 312.957 90.2869L313.141 90.1914Z" fill="#EBEBEB"/>
<path d="M316.697 80.9122C317.189 79.4428 318.115 78.1718 319.709 77.9734C321.582 77.7603 322.435 79.9571 322.471 81.4779C322.571 83.1617 322.097 84.8296 321.127 86.2093C319.797 87.855 317.777 87.4068 316.836 85.6289C316.182 84.1338 316.132 82.4433 316.697 80.9122V80.9122Z" fill="#EBEBEB"/>
<path d="M327.306 95.3563C327.154 95.012 327.031 94.6557 326.938 94.291C326.791 93.8229 326.782 93.3223 326.912 92.8492C327.043 92.3762 327.307 91.9508 327.673 91.6241C328.315 90.9967 329.061 90.4848 329.877 90.1106C330.472 89.7896 331.114 89.5663 331.78 89.4494C331.998 89.4131 332.222 89.4253 332.435 89.4849C332.649 89.5446 332.846 89.6503 333.014 89.7947C333.215 90.0413 333.358 90.3296 333.432 90.6384C333.507 90.9472 333.513 91.2689 333.448 91.58C333.347 92.5563 333.086 93.5095 332.676 94.4012C332.37 95.1439 331.888 95.8017 331.273 96.3188C330.963 96.5715 330.599 96.751 330.21 96.8439C329.821 96.9367 329.416 96.9406 329.025 96.8551C328.325 96.6459 327.733 96.1749 327.372 95.54C327.346 95.4803 327.324 95.4189 327.306 95.3563Z" fill="#EBEBEB"/>
<path d="M330.244 85.5482C330.678 84.0788 330.641 82.4918 329.436 81.4339C328.018 80.1923 326.064 81.5074 325.168 82.7343C324.13 84.0622 323.569 85.6999 323.573 87.3849C323.735 89.5008 325.645 90.2796 327.431 89.3539C328.827 88.499 329.836 87.1341 330.244 85.5482V85.5482Z" fill="#EBEBEB"/>
<path d="M23.804 114.039C23.0693 115.443 22.9444 117.125 22.3714 118.631C21.5118 120.887 19.6016 122.628 18.7714 124.898C18.2716 126.399 18.2312 128.014 18.6553 129.538C19.0793 131.061 19.9486 132.424 21.1518 133.45C22.3795 134.436 23.8421 135.086 25.3965 135.337C26.9509 135.589 28.5439 135.432 30.0195 134.883C32.0767 134.148 33.9281 132.928 35.9926 132.164C37.8661 131.474 39.8424 131.371 41.6203 130.328C43.2864 129.405 44.5547 127.901 45.1836 126.103C45.554 125.005 45.5771 123.82 45.2497 122.709C44.7501 120.835 43.7289 118.205 42.0612 117.059C40.5256 116.008 38.6742 115.876 36.9183 115.303C35.1624 114.73 33.6195 113.452 31.9738 112.504C29.2114 110.858 25.5453 110.858 23.804 114.039Z" fill="#F5F5F5"/>
<path d="M17.8237 119.91C18.0007 119.37 18.1334 118.818 18.2204 118.257C18.5143 116.618 17.9339 115.48 16.6776 114.392C15.6298 113.543 14.4446 112.88 13.1731 112.431C12.2385 112.032 11.2466 111.784 10.2343 111.696C9.90147 111.673 9.56774 111.724 9.2567 111.845C8.94566 111.965 8.66491 112.153 8.43431 112.394C8.17012 112.79 7.99859 113.241 7.93246 113.713C7.86632 114.185 7.90727 114.666 8.05227 115.12C8.34154 116.564 8.86519 117.951 9.60247 119.227C10.1666 120.292 10.981 121.205 11.9755 121.886C12.4745 122.222 13.0436 122.44 13.6395 122.523C14.2353 122.605 14.8422 122.551 15.4139 122.364C16.434 121.955 17.254 121.164 17.6988 120.16C17.7502 120.101 17.787 120.005 17.8237 119.91Z" fill="#F5F5F5"/>
<path d="M12.7764 105.862C11.8874 103.717 11.6964 101.366 13.3348 99.5882C15.2523 97.5163 18.3821 99.1767 19.947 100.874C21.5119 102.571 22.9813 105.12 23.0548 107.567C23.1503 110.748 20.4172 112.21 17.6107 111.108C15.3405 110.234 13.6654 108.022 12.7764 105.862Z" fill="#F5F5F5"/>
<path d="M38.9755 111.931C38.4609 111.689 37.9692 111.401 37.5061 111.071C36.1176 110.153 35.6988 108.948 35.7796 107.288C35.8937 105.945 36.234 104.631 36.7861 103.401C37.1534 102.458 37.6665 101.577 38.3069 100.793C38.5203 100.54 38.7857 100.337 39.0849 100.196C39.3841 100.055 39.7102 99.9808 40.0408 99.9775C40.5044 100.066 40.9425 100.256 41.3237 100.534C41.7048 100.813 42.0195 101.172 42.2449 101.587C43.1029 102.787 43.7582 104.119 44.1845 105.532C44.5618 106.677 44.6576 107.897 44.4637 109.088C44.359 109.68 44.1215 110.241 43.769 110.728C43.4165 111.216 42.9583 111.617 42.4286 111.902C41.4294 112.353 40.2936 112.398 39.262 112.026L38.9755 111.931Z" fill="#F5F5F5"/>
<path d="M32.6939 97.869C31.7388 95.7531 30.1592 93.9971 27.742 93.9751C24.9208 93.9751 23.9877 97.3694 24.1714 99.6396C24.3698 102.027 25.1853 104.782 26.9118 106.494C29.1673 108.75 32.1061 107.758 33.2302 104.959C34.1632 102.733 33.693 99.9996 32.6939 97.869Z" fill="#F5F5F5"/>
<path d="M64.7558 290.226C51.3036 297.537 29.4906 297.537 16.0604 290.226C2.63021 282.916 2.60817 271.066 16.0604 263.777C29.5126 256.489 51.3257 256.467 64.7558 263.777C78.186 271.088 78.2007 282.916 64.7558 290.226Z" fill="#E6E6E6"/>
<path d="M294.935 274.982C261.088 293.386 206.206 293.386 172.359 274.982C138.512 256.578 138.49 226.756 172.359 208.389C206.228 190.022 261.088 190.022 294.935 208.389C328.782 226.756 328.775 256.585 294.935 274.982Z" fill="#E6E6E6"/>
<path d="M136.337 267.605C113.319 280.095 75.9893 280.095 52.9714 267.605C29.9535 255.115 29.9461 234.801 52.9714 222.289C75.9967 209.777 113.319 209.799 136.337 222.289C159.355 234.779 159.362 255.093 136.337 267.605Z" fill="#E6E6E6"/>
<path d="M325.138 290.226C311.686 297.537 289.873 297.537 276.443 290.226C263.013 282.916 262.991 271.066 276.443 263.777C289.895 256.489 311.708 256.467 325.138 263.777C338.568 271.088 338.583 282.916 325.138 290.226Z" fill="#E6E6E6"/>
<path d="M108.117 171.419L107.632 171.375C103.709 171.052 100.77 171.375 97.3468 173.432L88.8831 178.487C86.9068 179.662 84.9305 180.845 83.057 182.16C81.5765 183.074 80.3409 184.335 79.457 185.834C79.1578 186.416 78.983 187.055 78.9438 187.709C78.9046 188.363 79.0018 189.018 79.2292 189.632C79.4113 190.094 79.6587 190.526 79.9639 190.918C80.3518 191.204 80.7567 191.466 81.1762 191.704C81.6002 193.17 82.5778 194.414 83.9023 195.172C85.2268 195.93 86.7944 196.143 88.2733 195.767C88.5043 195.666 88.7583 195.631 89.008 195.664C89.2419 195.748 89.4496 195.893 89.6105 196.083C90.464 196.803 91.4784 197.307 92.5679 197.553C93.6574 197.798 94.7901 197.778 95.87 197.493C98.0301 196.901 100.016 195.797 101.659 194.275C103.357 192.806 104.877 191.197 106.604 189.786C110.872 186.304 116.037 187.582 120.938 188.567C127.139 189.801 133.303 191.187 139.43 192.725C141.392 193.217 143.647 193.989 144.272 195.914C144.477 196.553 144.47 197.251 144.69 197.883C144.771 198.209 144.961 198.497 145.228 198.7C145.495 198.904 145.824 199.009 146.16 198.999C146.461 198.921 146.736 198.767 146.961 198.551L149.238 196.766C148.856 197.897 150.311 198.97 151.442 198.654C152.574 198.338 153.301 197.185 153.646 196.046C153.911 194.882 154.293 193.747 154.785 192.659C155.309 191.868 155.948 191.16 156.681 190.558C162.191 185.532 167.282 179.905 170.779 173.314C171.89 171.414 172.637 169.324 172.983 167.15C173.512 162.632 170.294 159.568 167.378 156.512C164.275 153.258 160.769 150.414 156.945 148.048C155.042 146.873 152.97 145.793 150.737 145.69C150.219 145.642 149.698 145.728 149.223 145.94C148.66 146.297 148.209 146.806 147.923 147.409C143.765 154.756 142.332 163.477 137.637 170.486C137.173 171.298 136.501 171.972 135.69 172.44C134.823 172.773 133.888 172.891 132.965 172.785C124.672 172.55 116.39 172.095 108.117 171.419Z" fill="#455A64"/>
<path d="M154.219 189.331C154.983 188.504 155.586 187.543 155.997 186.495C156.186 185.974 156.23 185.411 156.122 184.867C156.015 184.323 155.761 183.819 155.387 183.409C154.776 182.927 154.039 182.629 153.264 182.55C150.815 182.088 148.31 182.006 145.836 182.307C146.211 180.757 146.571 179.111 146.079 177.613C145.587 176.114 143.787 174.924 142.369 175.636C142.87 172.905 143.116 170.133 143.103 167.356C143.148 166.762 143.02 166.168 142.736 165.644C142.497 165.327 142.162 165.096 141.78 164.985C141.399 164.874 140.992 164.889 140.62 165.027C139.775 166.951 138.767 168.8 137.608 170.552C137.143 171.364 136.471 172.039 135.661 172.506C134.793 172.839 133.858 172.958 132.935 172.852C124.643 172.573 116.361 172.095 108.088 171.419L107.603 171.375C103.68 171.052 100.741 171.375 97.3174 173.432L88.8537 178.487C86.8774 179.662 84.901 180.845 83.0276 182.16C81.547 183.074 80.3114 184.335 79.4276 185.834C79.1283 186.416 78.9536 187.055 78.9144 187.709C78.8751 188.363 78.9724 189.018 79.1998 189.632C79.3819 190.094 79.6293 190.527 79.9345 190.918C80.2532 191.293 80.6746 191.566 81.1468 191.704C81.5707 193.17 82.5484 194.414 83.8729 195.172C85.1974 195.93 86.7649 196.144 88.2439 195.767C88.4749 195.667 88.7289 195.631 88.9786 195.664C89.2125 195.749 89.4202 195.893 89.581 196.083C90.4346 196.803 91.449 197.307 92.5385 197.553C93.628 197.798 94.7606 197.778 95.8406 197.493C98.0006 196.901 99.9863 195.797 101.63 194.275C103.327 192.806 104.848 191.197 106.574 189.786C110.843 186.304 116.008 187.582 120.908 188.567C127.109 189.801 133.273 191.187 139.401 192.725C141.362 193.217 143.618 193.989 144.242 195.914C144.448 196.553 144.441 197.251 144.661 197.883C144.741 198.209 144.931 198.497 145.198 198.701C145.466 198.904 145.795 199.009 146.13 198.999C146.431 198.921 146.707 198.767 146.931 198.551L149.209 196.766C148.827 197.897 150.281 198.97 151.413 198.654C152.544 198.338 153.272 197.185 153.617 196.046C153.882 194.882 154.264 193.747 154.756 192.659C155.28 191.868 155.918 191.16 156.651 190.558L157.349 189.904C156.394 189.382 155.297 189.182 154.219 189.331Z" fill="#E0E0E0"/>
<path opacity="0.2" d="M88.9566 195.517C88.1043 192.916 88.9125 190.741 91.0578 189.088C92.8915 187.599 94.9273 186.377 97.1043 185.459L94.2537 187.509C91.3149 189.772 88.457 191.256 88.9566 195.517Z" fill="black"/>
<path opacity="0.2" d="M81.1835 191.586C81.0145 189.154 82.5794 187.237 84.6145 186.106C86.5162 184.921 88.5769 184.013 90.7345 183.409C89.0447 184.364 86.6349 185.672 84.9966 186.657C83.0423 187.729 81.5803 189.279 81.2056 191.557L81.1835 191.586Z" fill="black"/>
<path d="M195.854 167.246C194.581 167.949 193.373 168.765 192.247 169.685C190.371 171.258 188.702 173.063 187.28 175.056C181.087 183.542 178.714 195.282 183.151 204.796C187.839 214.862 199.484 220.651 210.57 220.034C205.714 222.238 199.829 220.533 194.723 222.12C192.144 222.921 190.205 225.72 189.712 228.373C189.22 231.025 190.028 233.758 193.386 233.758C193.386 235.058 195.854 237.431 200.233 236.241C200.453 237.196 200.968 238.93 208.315 237.711C215.662 236.491 236.968 227.829 245.667 222.877C249.117 221.049 252.346 218.83 255.291 216.265C260.625 211.651 264.151 204.936 265.753 197.993C267.773 189.177 267.075 180.037 265.863 171.103C263.909 156.725 260.478 139.879 244.146 135.985C242.281 135.471 240.325 135.383 238.422 135.728C235.395 136.382 232.912 138.63 231.23 141.231C227.387 147.189 227.189 154.756 227.608 161.883C227.946 167.709 223.633 164.822 219.923 164.234C216.12 163.56 212.249 163.351 208.396 163.609C204.004 163.917 199.729 165.156 195.854 167.246V167.246Z" fill="#37474F"/>
<path d="M193.386 233.758C192.872 230.672 193.063 226.977 195.987 225.713C198.911 224.449 204.259 224.736 204.259 224.736C204.259 224.736 197.155 223.67 194.525 225.323C191.894 226.977 192.541 231.392 193.386 233.758Z" fill="#263238"/>
<path d="M200.204 236.219C199.682 233.141 199.88 229.438 202.797 228.174C205.714 226.911 211.07 227.204 211.07 227.204C211.07 227.204 203.965 226.132 201.342 227.785C198.72 229.438 199.381 233.853 200.204 236.219Z" fill="#263238"/>
<path d="M215.787 211.004C217.256 211.158 218.894 210.438 219.372 209.043C218.101 212.246 220.107 216.044 223.148 217.705C226.19 219.365 229.827 219.328 233.228 218.763C245.351 216.749 256.393 207.904 259.898 196.127C261.764 189.845 261.529 183.101 260.228 176.679C258.262 167.131 254.09 158.174 248.047 150.524C243.396 144.647 237.379 139.416 230.084 137.674C222.788 135.933 214.119 138.512 210.467 145.065C209.302 147.341 208.555 149.807 208.263 152.346C206.926 161.67 208.734 171.096 207.595 180.426C206.86 186.363 205.391 192.453 206.544 198.434C207.47 203.246 209.931 210.372 215.787 211.004Z" fill="#F5F5F5"/>
<path d="M248.473 184.82C245.094 183.203 241.17 183.057 237.453 183.615C234.756 184.019 231.906 184.915 230.297 187.127C229.952 185.312 227.358 184.798 225.801 185.797C224.243 186.796 223.53 188.655 222.906 190.396C222.48 187.795 221.789 184.82 219.438 183.622C217.087 182.425 213.81 184.063 212.187 185.922C210.914 187.475 209.992 189.284 209.483 191.226C209.079 190.389 207.867 190.396 206.978 190.683C206.728 190.77 206.482 190.87 206.243 190.984C206.019 193.47 206.123 195.975 206.552 198.434C207.485 203.275 209.946 210.372 215.801 211.004C217.271 211.159 218.909 210.439 219.387 209.043C218.116 212.246 220.121 216.044 223.163 217.705C226.205 219.365 229.841 219.328 233.243 218.763C236.765 218.169 240.173 217.031 243.345 215.39C247.286 211.028 250.509 206.069 252.896 200.697C253.939 198.426 254.902 196.009 254.769 193.511C254.571 189.742 251.86 186.443 248.473 184.82Z" fill="#E0E0E0"/>
<path d="M179.383 112.702C179.14 113.121 178.905 113.54 178.648 113.966C174.894 120.931 172.462 129.196 174.974 136.991C177.619 145.154 185.018 151.95 191.975 156.564C195.766 159.069 206.926 165.211 210.291 158.973C211.195 157.284 211.143 155.3 211.202 153.353C211.276 150.906 211.614 148.342 213.076 146.388C214.538 144.434 217.484 143.383 219.526 144.684C221.179 145.727 221.782 147.843 221.973 149.826C222.164 151.81 222.09 153.816 222.935 155.579C223.119 156.035 223.443 156.421 223.861 156.681C224.471 156.997 225.213 156.828 225.881 156.99C230.128 158.004 228.879 169.553 228.445 172.609C228.254 173.968 228.284 175.739 229.57 176.239C230.466 176.584 231.443 176.04 232.288 175.57C234.233 174.483 236.338 173.711 238.525 173.285C239.26 173.146 240.237 173.16 240.524 173.858C240.81 174.556 240.215 175.144 239.789 175.688C239.051 176.623 238.595 177.749 238.474 178.935C238.442 179.095 238.442 179.259 238.477 179.418C238.511 179.578 238.577 179.728 238.672 179.861C238.905 180.065 239.208 180.172 239.517 180.162C241.236 180.301 242.963 180.081 244.66 180.118C249.245 180.228 253.476 184.46 253.234 189.081C242.081 184.306 231.303 192.057 225.183 201.042C221.768 205.964 220.133 211.904 220.547 217.881C220.828 222.604 222.457 227.148 225.242 230.973C228.526 235.727 237.622 241.259 242.875 241.097C240.403 241.858 237.878 242.437 235.322 242.831C227.417 244.168 224.941 243.345 220.996 244.565C218.417 245.373 216.477 248.165 215.978 250.817C215.478 253.47 216.294 256.203 219.651 256.203C219.688 257.503 222.127 259.876 226.499 258.686C226.726 259.641 227.27 261.375 234.58 260.155C241.89 258.936 263.233 250.274 271.932 245.322C275.383 243.494 278.612 241.275 281.556 238.71C286.898 234.103 290.431 227.395 292.04 220.452C294.068 211.636 293.37 202.497 292.151 193.563C287.089 156.306 266.738 137.954 259.089 130.217C253.109 124.178 246.188 119.579 238.819 115.421C231.921 111.527 224.757 107.559 219.717 101.241C217.55 98.4934 215.779 95.4444 213.575 92.726C211.614 90.3163 209.05 87.473 205.751 87.4436C202.202 87.4436 198.859 89.8975 196.295 92.0942C189.502 97.9274 183.778 104.901 179.383 112.702V112.702Z" fill="#455A64"/>
<path d="M219.688 256.225C219.173 253.139 219.364 249.443 222.281 248.18C225.198 246.916 230.554 247.203 230.554 247.203C230.554 247.203 223.449 246.137 220.827 247.79C218.204 249.443 218.836 253.859 219.688 256.225Z" fill="#263238"/>
<path d="M226.528 258.686C226.014 255.608 226.212 251.905 229.129 250.641C232.045 249.377 237.401 249.671 237.401 249.671C237.401 249.671 230.297 248.599 227.667 250.252C225.037 251.905 225.683 256.32 226.528 258.686Z" fill="#263238"/>
<path d="M190.653 191.777C192.291 199.543 193.158 202.026 193.702 212.305C194.245 222.583 198.573 229.989 197.735 235.528C196.898 241.068 195.134 250.406 189.654 256.379C184.511 262.007 180.007 261.235 180.463 267.399C180.573 267.987 181.263 270.382 183.828 270.338C184.621 272.917 188.096 272.542 188.096 272.542C188.096 272.542 189.25 275.804 199.388 272.777C204.752 271.168 205.854 264.505 206.934 261.206C208.528 256.397 210.399 251.684 212.539 247.092C213.998 244.024 214.859 240.705 215.074 237.314C216.426 236.623 219.137 238.195 219.137 238.195C219.137 238.195 219.291 234.691 216.36 233.001C220.349 230.973 218.865 227.461 218.865 227.461C218.865 227.461 216.661 230.165 214.81 227.461C212.958 224.758 213.722 214.237 215.346 198.397C216.213 189.933 218.351 189.294 219.144 180.816C219.482 177.179 219.952 172.918 219.107 169.325C218.263 165.732 216.014 162.346 214.78 158.841C213.494 155.168 212.863 151.119 214.229 147.512C214.964 145.631 216.161 143.956 216.727 142.024C217.425 139.629 217.05 137.05 216.529 134.604C214.663 125.875 210.857 118.205 206.243 110.631C203.201 105.62 198.632 97.8322 191.821 98.0746C174.468 98.8975 148.9 129.931 153.088 163.462" fill="#455A64"/>
<path d="M216.323 232.994C220.312 230.966 218.828 227.454 218.828 227.454C218.828 227.454 216.624 230.158 214.773 227.454C213.502 225.64 213.45 220.298 214.038 212.209L213.95 212.129C213.735 211.899 213.476 211.716 213.188 211.589C212.9 211.463 212.589 211.396 212.275 211.394C211.268 211.511 210.805 212.672 210.526 213.642C210.09 215.175 209.662 216.708 209.24 218.241C209.071 218.836 208.778 219.542 208.16 219.586C207.543 219.63 207.242 219.137 206.926 218.711C206.54 218.169 206.038 217.72 205.457 217.396C205.169 217.235 204.847 217.147 204.517 217.141C204.188 217.134 203.862 217.21 203.569 217.36C202.54 217.962 202.569 220.195 201.152 220.203C200.905 220.172 200.668 220.091 200.454 219.965C200.241 219.838 200.055 219.669 199.91 219.468C198.409 217.854 197.14 216.039 196.141 214.075C195.765 213.178 195.255 212.343 194.627 211.6C194.346 211.292 193.977 211.079 193.569 210.99C193.569 211.423 193.621 211.849 193.643 212.275C194.179 222.561 198.514 229.96 197.676 235.499C196.839 241.039 195.076 250.377 189.595 256.35C184.452 261.977 179.948 261.206 180.404 267.37C180.514 267.958 181.205 270.353 183.769 270.309C184.562 272.888 188.037 272.513 188.037 272.513C188.037 272.513 189.191 275.775 199.329 272.748C204.693 271.139 205.795 264.475 206.875 261.177C208.469 256.368 210.34 251.655 212.48 247.063C213.94 243.994 214.8 240.676 215.015 237.284C216.367 236.594 219.078 238.166 219.078 238.166C219.078 238.166 219.254 234.684 216.323 232.994Z" fill="#F5F5F5"/>
<path d="M188.059 272.535C187.582 271.19 187.17 268.986 189.11 268.09C191.05 267.194 193.298 265.996 193.298 265.996C193.298 265.996 188.963 267.341 187.993 267.972C187.023 268.604 186.671 270.478 188.059 272.535Z" fill="#E0E0E0"/>
<path d="M183.798 270.345C183.313 269.001 182.902 266.797 184.849 265.901C186.796 265.004 189.036 263.807 189.036 263.807C189.036 263.807 184.694 265.151 183.725 265.79C182.755 266.43 182.409 268.288 183.798 270.345Z" fill="#E0E0E0"/>
<path d="M140.642 140.385C138.791 146.674 138.739 153.75 141.854 159.487L144.742 155.182C144.845 166.452 151.89 176.79 160.986 183.461C170.081 190.132 180.448 193.012 191.329 195.487C190.844 192.497 190.05 189.331 189.565 186.341C188.831 181.859 188.177 177.01 190.3 172.991C192.063 169.634 195.443 167.481 197.978 164.645C200.786 161.469 202.487 157.468 202.827 153.243C202.937 152.481 202.838 151.704 202.54 150.994C201.805 149.635 200.057 149.283 198.529 149.385C197 149.488 195.428 149.87 193.996 149.385C195.215 146.733 197.596 144.838 199.513 142.641C203.163 138.426 205.157 133.03 205.126 127.455C203.491 127.1 201.815 126.972 200.145 127.073C200.747 123.321 201.345 119.562 201.938 115.795C202.148 114.978 202.125 114.117 201.871 113.312C201.328 112.004 199.667 111.497 198.271 111.784C196.909 112.189 195.646 112.872 194.561 113.79C185.974 119.909 175.922 123.65 165.423 124.634C161.988 124.946 158.526 124.776 155.138 124.127C152.86 123.701 151.141 122.9 149.084 124.325C144.955 127.132 141.994 135.808 140.642 140.385Z" fill="#F5F5F5"/>
<path d="M175.437 176.481C175.411 176.037 175.34 175.596 175.224 175.166C175.173 174.997 175.063 174.791 174.886 174.821C174.84 174.834 174.796 174.857 174.758 174.887C174.721 174.917 174.689 174.954 174.666 174.997C174.255 175.74 173.983 176.551 173.865 177.392C173.83 177.661 173.72 177.916 173.549 178.127C173.116 178.575 172.609 178.053 172.205 177.848C170.966 177.122 169.812 176.259 168.766 175.276C167.943 174.593 166.305 173.542 165.504 174.894C164.902 175.908 165.651 177.098 165.673 178.156C161.327 175.746 157.9 171.967 155.924 167.408C155.77 167.055 155.512 167.452 155.579 167.687C156.357 170.387 157.688 172.897 159.486 175.057C161.284 177.217 163.511 178.98 166.026 180.235C166.43 180.448 167.113 180.522 167.37 180.03C167.701 179.366 167.804 178.612 167.664 177.884C167.605 177.473 167.495 177.069 167.444 176.657C167.44 176.626 167.44 176.594 167.444 176.562C167.657 176.76 167.973 176.959 168.179 177.113L169.075 177.848C169.674 178.349 170.313 178.801 170.985 179.199C171.984 179.787 173.924 180.801 174.945 179.758C175.445 179.251 175.43 178.332 175.467 177.679C175.478 177.279 175.468 176.879 175.437 176.481Z" fill="#EBEBEB"/>
<path d="M180.595 151.083C180.312 151.639 180.066 152.213 179.86 152.802C179.642 153.263 179.451 153.737 179.287 154.22C178.912 155.381 178.516 156.519 178.185 157.695C177.913 158.65 177.766 159.649 177.45 160.597C177.384 160.817 177.259 161.288 177.024 161.427L176.921 161.383C176.666 161.281 176.42 161.155 176.187 161.008C175.658 160.744 175.136 160.479 174.6 160.23C174.158 159.95 173.652 159.786 173.13 159.752C172.131 159.804 172.352 160.876 172.352 161.567C172.349 162.153 172.295 162.738 172.19 163.315C172.182 163.764 172.093 164.207 171.925 164.623C171.433 165.27 169.582 163.786 169.082 163.389C168.862 163.22 168.81 163.683 168.899 163.8C169.543 164.678 170.414 165.364 171.419 165.784C172.418 166.188 172.8 165.586 173.13 164.733C173.346 164.187 173.499 163.617 173.586 163.036C173.667 162.515 173.586 161.912 173.711 161.413L174.027 161.618C174.299 161.795 174.57 161.971 174.85 162.14C175.358 162.482 175.888 162.792 176.436 163.066C176.891 163.306 177.414 163.381 177.917 163.276C178.42 163.171 178.871 162.894 179.192 162.493C179.74 161.557 180.111 160.528 180.286 159.458C180.675 158.07 180.977 156.659 181.19 155.234C181.411 154.046 181.527 152.842 181.535 151.634C181.521 151.318 180.874 150.635 180.595 151.083Z" fill="#EBEBEB"/>
<path d="M141.847 125.163C140.826 127.837 141.568 131.04 142.428 133.884C143.917 139.235 145.984 144.408 148.592 149.312C151.31 154.161 154.954 158.584 159.612 161.596C160.501 162.177 161.662 162.706 162.551 162.162C163.285 161.729 163.513 160.788 163.667 159.958C164.182 157.137 164.615 154.242 165.996 151.729C167.466 149.077 169.846 147.086 172.116 145.117C177.215 140.65 181.836 135.75 186.715 131.092C191.596 126.426 195.942 121.232 199.675 115.605C202.797 110.895 206.059 104.841 204.898 99.0005C199.337 100.47 193.952 103.005 188.361 104.547C182.593 106.136 176.737 107.382 170.823 108.28C165.27 109.126 159.672 109.644 154.058 109.83C151.222 109.911 146.02 109.271 144.059 111.938C142.178 114.495 144.441 116.31 145.094 118.631C145.653 120.63 143.537 122.231 142.413 123.98C142.187 124.356 141.998 124.752 141.847 125.163V125.163Z" fill="#2452B3"/>
<path opacity="0.3" d="M141.847 125.163C140.826 127.837 141.568 131.04 142.428 133.884C143.917 139.235 145.984 144.408 148.592 149.312C151.31 154.161 154.954 158.584 159.612 161.596C160.501 162.177 161.662 162.706 162.551 162.162C163.285 161.729 163.513 160.788 163.667 159.958C164.182 157.137 164.615 154.242 165.996 151.729C167.466 149.077 169.846 147.086 172.116 145.117C177.215 140.65 181.836 135.75 186.715 131.092C191.596 126.426 195.942 121.232 199.675 115.605C202.797 110.895 206.059 104.841 204.898 99.0005C199.337 100.47 193.952 103.005 188.361 104.547C182.593 106.136 176.737 107.382 170.823 108.28C165.27 109.126 159.672 109.644 154.058 109.83C151.222 109.911 146.02 109.271 144.059 111.938C142.178 114.495 144.441 116.31 145.094 118.631C145.653 120.63 143.537 122.231 142.413 123.98C142.187 124.356 141.998 124.752 141.847 125.163V125.163Z" fill="white"/>
<path opacity="0.3" d="M155.446 129.777C156.82 130.668 158.415 131.159 160.053 131.195C161.891 131.149 163.712 130.825 165.453 130.232C168.392 129.375 171.291 128.396 174.152 127.294C174.872 126.937 175.671 126.77 176.473 126.809C176.874 126.84 177.248 127.022 177.521 127.318C177.793 127.613 177.944 128.001 177.943 128.403C177.84 129.138 177.127 129.593 176.738 130.152C176.256 130.841 175.68 131.459 175.026 131.988L170.001 136.264L163.998 141.407C162.977 142.274 161.919 143.119 160.927 144.023C159.935 144.926 159.348 145.551 158.04 145.286C156.839 144.972 155.766 144.291 154.969 143.339C152.654 140.746 150.82 137.76 149.554 134.523C148.827 133.032 148.26 131.468 147.864 129.858C147.548 128.19 146.711 126.691 146.601 124.95C146.52 123.664 147.401 122.459 148.665 123.642C150.81 125.626 152.882 128.212 155.446 129.777Z" fill="#2452B3"/>
<path opacity="0.3" d="M162.661 127.822C161.346 127.866 159.921 127.969 158.723 127.338C158.098 127 156.519 126.03 157.658 125.354C158.392 124.928 159.487 125.148 160.281 125.097C161.272 125.031 162.264 124.906 163.219 124.751C165.196 124.443 167.143 124.017 169.097 123.605C169.736 123.48 170.618 123.51 170.772 124.149C170.882 124.56 170.566 124.964 170.25 125.258C168.267 127.117 165.394 127.72 162.661 127.822Z" fill="#2452B3"/>
<path d="M157.665 42.4732L152.919 37.8152C151.78 36.6911 150.634 35.6112 148.871 36.4193L142.993 39.0054C142.154 39.3184 141.376 39.7759 140.694 40.3573C140.114 40.9903 139.68 41.7427 139.423 42.5613C137.987 46.3485 136.931 50.269 136.271 54.265C136.193 54.5081 136.168 54.7654 136.198 55.019C136.229 55.2726 136.314 55.5167 136.447 55.7344C137.108 56.5866 138.651 56.1826 139.621 55.6021C141.333 54.5956 142.81 53.1336 144.448 52.0021C144.874 53.4348 145.719 56.7189 146.329 57.1083C147.85 58.0707 149.863 56.5132 151.281 56.0577C154.05 55.1687 156.835 54.3017 159.553 53.3026C160.766 52.8617 164.637 51.8332 165.093 50.665C165.548 49.4968 162.735 47.4911 161.941 46.6683L157.665 42.4732Z" fill="#455A64"/>
<path d="M151.619 42.4878C152.265 43.3073 152.726 44.2569 152.971 45.2714C153.215 46.2859 153.238 47.3413 153.036 48.3653C153.382 48.5784 153.852 48.3286 154.131 48.0641C154.41 47.7996 154.734 47.4617 155.152 47.5131C155.403 47.5652 155.631 47.6935 155.806 47.8804C156.996 48.9384 158.231 50.0845 158.627 51.4951C158.701 51.6841 158.701 51.8939 158.627 52.0829C158.466 52.3254 158.22 52.4985 157.937 52.5678C156.344 53.1743 154.589 53.2029 152.978 52.6486C153.024 53.0788 152.949 53.5134 152.76 53.903C152.572 54.2926 152.278 54.6216 151.912 54.8527C151.503 55.1034 151.043 55.2611 150.566 55.3144C150.088 55.3677 149.605 55.3154 149.15 55.1612C149.092 55.1506 149.032 55.1506 148.974 55.1612C148.896 55.1707 148.824 55.2103 148.775 55.2714C148.566 55.5195 148.338 55.7505 148.092 55.9621C147.955 56.0715 147.792 56.1417 147.618 56.165C147.445 56.1883 147.268 56.1639 147.107 56.0943C146.946 55.9884 146.818 55.8378 146.74 55.6608C146.187 54.6541 145.754 53.5865 145.447 52.4796C145.31 52.1074 145.292 51.7017 145.396 51.3188C145.512 51.0724 145.674 50.8505 145.873 50.6649C147.155 49.4735 148.355 48.1972 149.466 46.8445C149.943 46.1648 150.367 45.4501 150.737 44.7066C150.891 44.3686 151.832 42.767 151.619 42.4878Z" fill="#37474F"/>
<path d="M197.089 103.857C193.498 106.78 189.402 109.022 185.003 110.469C182.156 111.436 179.129 111.757 176.143 111.409C172.991 110.939 170.14 109.323 167.289 107.993C166.717 107.691 166.103 107.476 165.467 107.354C164.636 107.288 163.8 107.385 163.006 107.64C159.803 108.456 156.622 109.44 153.352 109.962C149.841 110.528 145.432 110.851 142.398 108.698C140.995 107.707 140.135 106.127 139.327 104.599C138.335 102.733 137.38 100.837 136.425 98.9563C136.247 98.5142 135.958 98.1248 135.587 97.8249C134.625 97.1637 132.399 98.0527 131.4 98.2584C131.274 98.2841 131.144 98.2841 131.018 98.2584C130.68 98.1702 130.592 97.7294 130.584 97.3841C130.548 94.5542 131.479 91.7967 133.222 89.567L130.922 90.0959C130.716 90.1474 130.452 90.1694 130.342 89.9931C130.318 89.9372 130.306 89.8773 130.306 89.8167C130.306 89.7562 130.318 89.6962 130.342 89.6404C130.981 85.5188 134.147 82.6608 136.557 79.509C137.866 77.9688 138.864 76.19 139.496 74.2706C140.226 71.6894 140.877 69.0911 141.45 66.4755C141.965 64.1613 142.435 61.7809 143.654 59.7384C145.042 57.6077 146.877 55.805 149.032 54.456C153.204 51.5649 157.785 49.3162 162.624 47.785C167.598 46.2127 172.521 45.1474 177.707 46.4037C191.667 49.7833 198.654 53.589 202.606 67.8127C202.981 69.2233 204.076 80.7066 204.649 81.7719C206 91.3082 203.084 99.1033 197.089 103.857Z" fill="#455A64"/>
<path d="M203.025 105.15C195.73 110.932 185.172 115.612 177.186 110.895C177.12 110.895 176.723 109.646 176.657 109.668C176.591 109.69 170.992 111.042 164.762 112.68C161.699 113.495 158.555 113.973 155.388 114.106C151.472 114.15 147.615 110.036 145.33 107.185C144.316 105.921 143.809 104.54 143.008 103.181C142.81 102.843 140.958 98.8241 141.245 98.7727L137.329 99.5588C137.203 99.5845 137.073 99.5845 136.947 99.5588C136.609 99.4707 136.521 99.0298 136.521 98.6845C136.479 95.8549 137.407 93.0962 139.151 90.8674L136.851 91.3964C136.646 91.4405 136.381 91.4698 136.271 91.2935C136.218 91.1837 136.205 91.0591 136.234 90.9409C136.734 87.6935 139.121 85.0633 141.517 82.8593C143.912 80.6552 146.52 78.3776 147.71 75.314C148.12 74.1111 148.456 72.8844 148.717 71.6405C149.312 69.3115 150.017 67.0413 150.575 64.6903C150.943 63.1254 151.266 61.0756 152.309 59.7899C158.018 52.7221 171.786 44.8462 183.57 47.7115C197.53 51.0911 204.517 54.8968 208.469 69.1205C208.851 70.5238 209.939 82.0144 210.519 83.0797C211.959 92.6013 209.02 100.389 203.025 105.15Z" fill="#455A64"/>
<path d="M216.242 89.3688C215.794 84.7476 212.164 81.1843 208.858 77.9223C205.552 74.6602 202.143 70.7443 202.327 66.1084L169.222 106.046L172.16 112.585C172.403 113.129 172.741 113.746 173.329 113.841C173.785 113.83 174.233 113.711 174.636 113.496C177.061 112.659 179.14 115.465 181.623 116.097C182.902 116.401 184.237 116.379 185.504 116.031C186.772 115.683 187.931 115.021 188.875 114.106C190.858 112.284 192.938 109.228 195.627 109.33C196.567 109.367 197.478 109.676 198.418 109.661C200.292 109.661 201.945 108.272 202.863 106.634C203.685 104.942 204.204 103.12 204.399 101.249C207.036 101.645 209.424 99.221 209.975 96.6128C210.526 94.0047 209.74 91.3231 208.961 88.7737C211.374 89.1191 213.805 89.3179 216.242 89.3688V89.3688Z" fill="#455A64"/>
<path d="M154.322 115.362C155.406 116.669 156.842 117.637 158.459 118.154C159.467 118.375 160.518 118.291 161.478 117.913C162.438 117.535 163.264 116.88 163.851 116.031C166.121 117.456 169.516 119.087 172.271 118.911C172.541 118.916 172.804 118.819 173.005 118.639C173.127 118.451 173.188 118.231 173.182 118.007L173.336 115.553C177.49 116.775 181.88 116.954 186.12 116.075C184.685 114.076 183.247 112.081 181.807 110.087C180.518 108.443 179.444 106.64 178.611 104.724C178.303 103.93 177.994 103.005 177.201 102.689C176.72 102.555 176.212 102.555 175.731 102.689C169.233 103.821 162.895 105.735 156.857 108.39C154.77 109.308 152.588 109.066 150.421 109.778C150.053 109.886 149.705 110.055 149.392 110.278C148.401 111.094 148.614 112.769 149.466 113.731C149.987 114.295 150.668 114.687 151.417 114.855C152.166 115.023 152.949 114.959 153.661 114.672L154.322 115.362Z" fill="#E0E0E0"/>
<path opacity="0.05" d="M154.322 115.362C155.406 116.669 156.842 117.637 158.459 118.154C159.467 118.375 160.518 118.291 161.478 117.913C162.438 117.535 163.264 116.88 163.851 116.031C166.121 117.456 169.516 119.087 172.271 118.911C172.541 118.916 172.804 118.819 173.005 118.639C173.127 118.451 173.188 118.231 173.182 118.007L173.336 115.553C177.49 116.775 181.88 116.954 186.12 116.075C184.685 114.076 183.247 112.081 181.807 110.087C180.518 108.443 179.444 106.64 178.611 104.724C178.303 103.93 177.994 103.005 177.201 102.689C176.72 102.555 176.212 102.555 175.731 102.689C169.233 103.821 162.895 105.735 156.857 108.39C154.77 109.308 152.588 109.066 150.421 109.778C150.053 109.886 149.705 110.055 149.392 110.278C148.401 111.094 148.614 112.769 149.466 113.731C149.987 114.295 150.668 114.687 151.417 114.855C152.166 115.023 152.949 114.959 153.661 114.672L154.322 115.362Z" fill="black"/>
<path d="M138.592 106.435C138.761 106.788 138.938 107.17 139.114 107.493C139.427 108.201 139.873 108.843 140.429 109.382C141.01 109.832 141.667 110.175 142.369 110.395C144.286 111.235 146.311 111.802 148.386 112.078C150.198 112.172 152.014 112.004 153.779 111.578C156.343 111.049 158.87 110.359 161.368 109.58C162.335 109.222 163.346 108.994 164.373 108.904C166.827 108.816 168.957 110.3 171.205 111.049C172.3 111.417 173.299 111.718 174.299 111.049C174.786 110.761 175.176 110.333 175.417 109.821C175.658 109.309 175.739 108.736 175.65 108.177C176.525 108.625 179.361 109.646 179.89 108.375C180.793 106.237 178.354 102.762 177.45 100.866C176.084 98.0305 174.512 93.0346 172.888 90.3383C169.259 84.3138 161.045 81.4044 161.133 79.1048C161.287 71.464 161.699 66.5636 163.337 62.0526C164.975 57.5416 170.743 52.1857 168.899 51.7081C167.429 51.3408 159.002 58.1661 157.709 60.4436C156.166 63.1546 151.912 75.7399 148.981 78.1497C147.254 79.575 140.958 81.7864 140.899 81.8232C140.429 82.0289 138.614 85.7464 138.071 86.8044C137.093 88.6966 136.215 90.6388 135.441 92.6232C135.06 93.4624 134.786 94.346 134.625 95.2534C134.427 97.3913 135.566 99.4191 136.359 101.322C137.02 103.012 137.755 104.746 138.592 106.435Z" fill="#F5F5F5"/>
<path opacity="0.05" d="M153.029 105.172C152.882 105.155 152.733 105.191 152.61 105.275C149.429 106.935 144.477 106.009 143.059 102.453C142.78 101.777 142.641 101.05 142.325 100.389C142.3 100.311 142.259 100.24 142.204 100.179C142.15 100.118 142.083 100.069 142.009 100.036C140.73 99.6762 141.561 102.681 141.693 103.181C142.237 105.157 144.47 106.457 146.358 106.92C147.654 107.233 149.003 107.261 150.311 107.001C150.964 106.874 151.587 106.625 152.148 106.266C152.331 106.149 153.426 105.341 153.103 105.172H153.029Z" fill="black"/>
<path d="M143.632 91.9106H143.772C144.45 92.0477 145.1 92.2959 145.697 92.6453C146.175 92.9627 146.605 93.3461 146.975 93.7841C147.546 94.3541 147.987 95.0408 148.268 95.7972C148.484 96.3727 148.497 97.0049 148.305 97.5888C148.113 98.1728 147.726 98.6734 147.21 99.0078C145.838 99.9813 144.344 100.769 142.765 101.351C141.578 101.707 140.304 101.634 139.165 101.146C138.565 100.79 138.047 100.312 137.645 99.7425C136.848 98.719 136.163 97.6131 135.602 96.4437C135.381 96.045 135.246 95.6046 135.205 95.1506C135.139 93.0714 138.019 91.4772 139.812 91.3596C141.105 91.3629 142.391 91.5484 143.632 91.9106V91.9106Z" fill="#263238"/>
<path d="M192.225 36.4706C192.754 35.7873 193.393 35.038 194.253 35.0012C194.885 35.0721 195.475 35.3542 195.928 35.802C198.323 37.7049 202.158 39.7473 203.943 42.2233C205.413 44.273 204.436 48.189 204.156 50.6502C203.374 57.4411 202.135 64.1715 200.446 70.7955C199.542 71.3171 197.221 70.4649 196.339 69.9065C191.371 66.7815 186.652 63.2763 182.226 59.4224C180.668 58.0706 178.001 55.8959 177.759 53.6771C177.516 51.4583 179.743 50.2681 181.124 48.931C185.121 45.0522 188.832 40.8878 192.225 36.4706V36.4706Z" fill="#455A64"/>
<path d="M190.168 42.6202C190.171 42.6813 190.171 42.7427 190.168 42.8038C190.13 43.4408 190.046 44.0742 189.918 44.6994C189.56 45.605 188.966 46.3988 188.199 46.9989L186.076 48.9606C185.032 49.8216 184.168 50.8802 183.534 52.0757C183.478 52.1789 183.457 52.2976 183.475 52.4136C183.526 52.59 183.739 52.6561 183.923 52.6928C184.865 52.8729 185.832 52.8729 186.774 52.6928C186.715 53.1189 186.663 53.5451 186.605 53.9712C186.435 54.855 186.408 55.7603 186.524 56.6528C186.579 57.1096 186.741 57.547 186.996 57.9298C187.251 58.3126 187.593 58.6302 187.993 58.8569C188.287 59.0179 188.628 59.07 188.956 59.0038C189.226 58.9142 189.476 58.7718 189.69 58.5851L191.16 57.4316C191.075 58.6617 191.305 59.8932 191.828 61.0095C192.137 61.6781 192.673 62.3687 193.408 62.3761C194.143 62.3834 194.73 61.5826 195.149 60.9802C195.686 61.8471 197.236 64.4626 198.558 63.6838C198.899 63.4417 199.168 63.1116 199.337 62.7287C201.181 59.1948 201.475 55.1908 202.173 51.341C201.577 52.1775 200.801 52.8703 199.903 53.3687C198.933 53.8977 197.699 54.1769 196.758 53.5891C196.305 53.264 195.94 52.8325 195.693 52.3328C194.697 50.2826 194.151 48.0432 194.091 45.7647C193.981 44.3761 193.93 42.9802 193.761 41.5916C193.683 40.3854 193.489 39.1896 193.18 38.021C191.865 39.3434 190.513 40.8055 190.168 42.6202Z" fill="#37474F"/>
<path d="M171.029 72.0959C170.225 72.2232 169.493 72.6368 168.97 73.2604C168.446 73.884 168.165 74.6758 168.178 75.4901C168.178 77.2461 169.376 78.5612 170.926 78.4289C171.725 78.297 172.45 77.8824 172.97 77.2608C173.489 76.6392 173.767 75.8518 173.755 75.042C173.806 73.2861 172.579 71.971 171.029 72.0959Z" fill="white"/>
<path d="M171.191 71.5006C170.384 71.6265 169.65 72.0404 169.124 72.6658C168.599 73.2911 168.318 74.0856 168.333 74.9022C168.333 76.6508 169.538 77.9659 171.081 77.841C171.886 77.7152 172.619 77.3024 173.145 76.6786C173.67 76.0548 173.952 75.2621 173.939 74.4467C173.968 72.6982 172.734 71.3757 171.191 71.5006Z" fill="#263238"/>
<path d="M171.896 74.4836C171.785 74.5086 171.669 74.5086 171.558 74.4836C171.446 74.4586 171.342 74.4091 171.252 74.3388C171.162 74.2685 171.089 74.1792 171.037 74.0772C170.986 73.9751 170.958 73.863 170.956 73.7489C170.922 73.5017 170.978 73.2507 171.112 73.0407C171.247 72.8307 171.452 72.6755 171.69 72.6028C171.802 72.5777 171.917 72.5777 172.029 72.6028C172.14 72.6278 172.244 72.6772 172.334 72.7475C172.424 72.8178 172.498 72.9072 172.549 73.0092C172.6 73.1112 172.628 73.2233 172.631 73.3375C172.664 73.5846 172.609 73.8356 172.474 74.0456C172.339 74.2556 172.135 74.4108 171.896 74.4836Z" fill="#FAFAFA"/>
<path d="M146.814 69.811C146.1 69.8849 145.437 70.2141 144.947 70.7379C144.457 71.2617 144.173 71.9448 144.147 72.6616C144.095 72.9934 144.115 73.3323 144.206 73.6557C144.296 73.9791 144.454 74.2795 144.67 74.5368C144.885 74.7942 145.153 75.0025 145.456 75.1479C145.758 75.2933 146.089 75.3725 146.424 75.38C147.137 75.3046 147.799 74.975 148.289 74.4515C148.778 73.9281 149.063 73.2457 149.091 72.5294C149.142 72.1976 149.122 71.8587 149.032 71.5353C148.942 71.212 148.784 70.9116 148.568 70.6542C148.353 70.3969 148.085 70.1885 147.782 70.0431C147.479 69.8977 147.149 69.8186 146.814 69.811V69.811Z" fill="white"/>
<path d="M146.983 69.2966C146.269 69.3705 145.606 69.6997 145.116 70.2235C144.626 70.7473 144.342 71.4304 144.316 72.1472C144.264 72.479 144.284 72.8179 144.375 73.1413C144.465 73.4647 144.623 73.7651 144.839 74.0224C145.054 74.2798 145.322 74.4881 145.625 74.6335C145.927 74.7789 146.258 74.858 146.593 74.8656C147.308 74.7976 147.974 74.47 148.464 73.9448C148.954 73.4196 149.235 72.7331 149.253 72.015C149.305 71.6836 149.286 71.3449 149.197 71.0215C149.108 70.6981 148.95 70.3976 148.735 70.1401C148.52 69.8826 148.253 69.6741 147.95 69.5286C147.648 69.3831 147.318 69.304 146.983 69.2966V69.2966Z" fill="#263238"/>
<path d="M147.46 71.9489C147.362 71.9662 147.261 71.9616 147.165 71.9355C147.069 71.9094 146.98 71.8624 146.904 71.7978C146.829 71.7332 146.768 71.6527 146.727 71.5619C146.686 71.4712 146.665 71.3725 146.667 71.273C146.649 71.0569 146.708 70.8414 146.833 70.6642C146.958 70.487 147.141 70.3592 147.35 70.3032C147.448 70.286 147.549 70.2906 147.646 70.3167C147.742 70.3427 147.832 70.3896 147.908 70.4541C147.985 70.5185 148.046 70.599 148.088 70.6897C148.13 70.7804 148.151 70.8792 148.151 70.9791C148.168 71.1961 148.108 71.4123 147.982 71.5897C147.856 71.7671 147.671 71.8943 147.46 71.9489V71.9489Z" fill="#FAFAFA"/>
<path d="M211.224 94.754C211.01 92.913 210.451 91.1287 209.578 89.4936C209.446 89.2512 209.263 89.6112 209.299 89.7581C209.696 90.9193 209.854 92.149 209.762 93.3728C209.577 94.8514 209.148 96.289 208.491 97.6267C207.492 99.4928 205.405 101.124 203.194 100.969C202.562 100.925 201.783 101.256 201.982 102.042C202.227 103.05 202.171 104.108 201.821 105.085C201.471 106.062 200.842 106.915 200.013 107.538C198.186 108.797 195.944 109.304 193.753 108.956C191.953 108.779 190.778 110.285 189.749 111.549C188.276 113.365 186.586 114.994 184.716 116.398C185.021 116.406 185.326 116.387 185.627 116.339C186.07 116.174 186.495 115.967 186.898 115.722C188.199 114.918 189.405 113.97 190.491 112.894C191.02 112.409 191.534 111.916 192.071 111.424C192.334 111.143 192.664 110.934 193.03 110.816C193.397 110.697 193.787 110.674 194.165 110.748C196.802 111.027 199.645 110.55 201.739 108.831C202.619 108.131 203.323 107.235 203.795 106.214C204.267 105.194 204.494 104.077 204.458 102.953C205.643 102.824 206.782 102.422 207.785 101.778C208.788 101.134 209.628 100.266 210.24 99.243C211.056 97.8968 211.402 96.318 211.224 94.754V94.754Z" fill="#37474F"/>
<path d="M239.076 126.177C239.022 125.135 238.704 124.123 238.151 123.238C236.329 120.079 233.214 117.897 230.069 116.038C228.6 115.171 226.998 114.319 225.308 114.495C225.396 114.98 225.859 115.281 226.271 115.531C228.408 116.821 230.439 118.278 232.347 119.888C233.97 121.254 235.895 122.761 236.476 124.876C236.681 125.325 236.709 125.834 236.553 126.301C236.398 126.769 236.071 127.16 235.638 127.396C234.764 127.993 233.753 128.359 232.699 128.462C232.251 128.506 231.678 128.594 231.59 129.035C231.502 129.476 231.884 129.733 232.192 129.983C233 130.644 233.625 131.731 233.287 132.723C233.143 133.078 232.912 133.392 232.616 133.634C232.319 133.877 231.966 134.041 231.59 134.112C230.834 134.248 230.059 134.225 229.312 134.045C228.996 133.987 228.614 133.935 228.401 134.178C227.916 134.707 229.085 135.647 229.525 135.853C230.581 136.26 231.743 136.299 232.824 135.963C233.419 135.8 233.968 135.5 234.426 135.087C234.884 134.673 235.239 134.158 235.462 133.583C235.671 133.002 235.695 132.371 235.53 131.776C235.366 131.181 235.021 130.652 234.543 130.262C235.669 130.077 236.737 129.638 237.666 128.976C238.11 128.659 238.471 128.238 238.717 127.751C238.963 127.263 239.086 126.723 239.076 126.177V126.177Z" fill="#37474F"/>
<path d="M208.234 190.022C208.094 189.853 207.654 190.124 207.235 190.22C206.741 190.325 206.231 190.324 205.738 190.216C205.246 190.108 204.781 189.897 204.377 189.595C203.856 189.175 203.433 188.645 203.138 188.043C202.844 187.442 202.685 186.783 202.672 186.113C202.06 186.79 201.325 187.343 200.505 187.744C200.091 187.939 199.631 188.013 199.176 187.96C198.722 187.907 198.292 187.728 197.934 187.443C197.609 187.108 197.38 186.692 197.272 186.238C197.042 185.313 196.987 184.354 197.111 183.409C197.267 181.629 197.653 179.875 198.257 178.193C198.536 177.422 198.801 176.643 199.138 175.901C199.476 175.159 200.101 174.512 200.167 173.697C199.697 173.579 199.271 173.991 198.97 174.373C196.207 177.914 194.561 182.528 195.384 186.943C195.509 188.045 196.031 189.064 196.854 189.809C197.439 190.174 198.109 190.383 198.799 190.415C199.488 190.447 200.174 190.302 200.792 189.992C200.837 189.964 200.888 189.946 200.941 189.938C200.994 189.93 201.048 189.934 201.1 189.948C201.165 189.985 201.216 190.042 201.247 190.11C201.63 190.726 202.145 191.249 202.755 191.642C203.365 192.034 204.054 192.287 204.774 192.38C205.58 192.496 206.402 192.341 207.11 191.939C207.641 191.631 208.04 191.14 208.234 190.558C208.285 190.286 208.285 190.124 208.234 190.022Z" fill="#37474F"/>
<path d="M197.265 83.9467C197.074 83.6795 196.854 83.4332 196.611 83.212C196.753 83.1923 196.893 83.1603 197.03 83.1165C197.513 82.9791 197.969 82.7631 198.382 82.4773C199.344 81.6985 198.69 80.6038 197.992 79.8765C197.161 79.0604 196.256 78.3226 195.289 77.6724C194.243 76.8686 193.081 76.2293 191.843 75.7769C191.534 75.674 191.593 76.2912 191.733 76.4087C192.666 77.1875 193.665 77.8781 194.627 78.6128C195.09 78.9655 195.539 79.3475 195.979 79.7001C196.389 79.9689 196.754 80.3012 197.059 80.6846C197.177 80.8977 197.184 80.8169 197.059 81.0079C196.837 81.1594 196.588 81.2667 196.325 81.3238C195.866 81.4742 195.397 81.592 194.921 81.6765C194.707 81.7048 194.505 81.7949 194.34 81.9359C194.176 82.0769 194.056 82.2626 193.995 82.4705C193.935 82.6784 193.936 82.8994 193.998 83.1067C194.061 83.314 194.183 83.4987 194.348 83.6381C194.62 83.9393 194.973 84.1157 195.259 84.3728C195.567 84.709 195.805 85.1038 195.957 85.5336C196.315 86.2993 196.413 87.161 196.236 87.9875C196.117 88.3076 195.878 88.5686 195.569 88.7153C195.261 88.8621 194.907 88.883 194.583 88.7736C194.135 88.6244 193.716 88.4009 193.342 88.1124C192.938 87.8479 192.497 87.6936 192.093 87.4438C191.901 87.307 191.697 87.1889 191.483 87.0912C191.233 86.9883 191.248 87.4585 191.285 87.5687C191.39 88.1142 191.602 88.6335 191.909 89.0969C192.147 89.3716 192.416 89.6181 192.71 89.8316C193.279 90.2549 193.942 90.5347 194.642 90.6471C195.261 90.7822 195.905 90.7386 196.499 90.5214C197.094 90.3041 197.614 89.9222 198 89.4201C198.734 88.3328 198.543 86.9075 198.169 85.7467C197.963 85.1032 197.658 84.4958 197.265 83.9467V83.9467Z" fill="#37474F"/>
<path d="M308.593 219.159C311.253 218.616 314.302 218.498 316.542 216.955C311.363 227.241 297.742 231.032 287.36 231.862C289.539 228.343 291.12 224.488 292.04 220.452C293.285 214.528 293.642 208.452 293.098 202.423C295.427 197.471 296.037 192.314 297.58 187.186C298.374 187.607 299.064 188.202 299.598 188.925C300.132 189.649 300.497 190.483 300.666 191.366C301.797 186.974 301.623 182.348 300.166 178.053C298.594 173.858 295.273 170.185 290.997 168.715C287.581 167.591 284.062 168.326 279.58 168.95C274.687 169.641 268.405 168.95 264.313 166.46C265.974 165.255 270 163.279 272.218 157.798C262.803 165.134 250.972 168.659 239.076 167.672C240.92 167.826 242.353 162.404 242.412 161.207C242.559 158.496 242.346 155.711 242.728 152.949C243.616 146.442 246.688 140.429 251.441 135.897C247.452 137.796 243.713 140.182 240.311 143.001C242.427 137.858 244.616 132.517 248.392 128.417C248.598 128.204 248.796 127.984 249.017 127.778C250.152 126.606 251.362 125.509 252.639 124.494C257.605 120.49 263.659 117.603 269.588 117.089C279.837 116.214 288.44 117.772 294.663 121.614C293.305 118.676 291.076 116.227 288.279 114.598C313.538 117.368 330.737 144.911 331.192 168.12C331.92 187.347 325.682 207.698 308.593 219.159Z" fill="#263238"/>
<path d="M290.997 168.715C292.455 169.211 293.814 169.957 295.016 170.919C295.302 171.14 296.948 168.252 297.036 167.929C297.355 166.74 297.227 165.475 296.676 164.373C296.085 163.449 295.34 162.634 294.472 161.963C296.144 161.847 297.805 161.602 299.439 161.229C301.217 160.832 303.112 160.2 304.178 158.745C305.243 157.291 305.118 154.8 303.443 154.029C307.388 153.963 311.613 153.801 314.779 151.45C315.33 151.08 315.775 150.574 316.072 149.981C316.409 149.003 316.373 147.935 315.969 146.983C315.022 144.096 313.244 142.193 311.135 140.121C309.938 138.945 306.477 134.912 304.523 135.206C307.834 134.716 311.125 134.099 314.397 133.354C315.551 133.199 316.642 132.737 317.556 132.017L317.659 131.907C310.246 122.672 300.151 115.883 288.271 114.583C291.069 116.212 293.297 118.661 294.656 121.599C288.433 117.757 279.83 116.199 269.581 117.074C263.623 117.588 257.598 120.475 252.632 124.479C251.354 125.494 250.144 126.591 249.009 127.763C248.789 127.969 248.591 128.19 248.385 128.403C244.579 132.502 242.39 137.814 240.303 142.986C243.706 140.17 247.445 137.786 251.434 135.889C246.681 140.421 243.609 146.434 242.721 152.941C242.338 155.704 242.552 158.488 242.405 161.199C242.346 162.397 240.935 167.812 239.069 167.665C250.957 168.66 262.785 165.149 272.204 157.827C270 163.308 265.959 165.284 264.298 166.489C268.391 168.98 274.672 169.67 279.565 168.98C284.062 168.355 287.581 167.62 290.997 168.715Z" fill="#F5F5F5"/>
<path d="M264.313 166.511C268.405 169.002 274.687 169.692 279.58 169.002C284.062 168.377 287.581 167.643 290.997 168.767C292.454 169.262 293.814 170.008 295.016 170.971C295.302 171.191 296.948 168.304 297.036 167.98C297.355 166.791 297.227 165.526 296.676 164.425C296.085 163.501 295.34 162.686 294.472 162.015C296.144 161.899 297.805 161.653 299.439 161.28C301.082 161.027 302.615 160.296 303.847 159.179L302.98 159.267C299.61 159.551 296.259 158.542 293.605 156.446C292.87 155.88 292.187 155.043 292.452 154.176C288.933 156.438 285.002 158.789 280.858 158.202C280.147 158.154 279.474 157.861 278.955 157.372C278.686 156.98 278.502 156.537 278.413 156.07C278.324 155.603 278.334 155.123 278.441 154.66C278.638 152.98 279.053 151.333 279.675 149.76C273.364 148.416 267.222 153.059 260.764 152.993C259.912 152.993 258.847 152.706 258.707 151.869C258.682 151.471 258.774 151.075 258.972 150.73L261.124 146.057C257.828 148.214 254.335 150.054 250.692 151.553C249.259 152.148 247.437 152.633 246.284 151.589C245.627 150.859 245.277 149.904 245.306 148.923C245.179 146.868 245.456 144.809 246.122 142.861C244.371 146.002 243.224 149.444 242.742 153.007C242.36 155.77 242.573 158.554 242.426 161.265C242.368 162.463 240.957 167.878 239.091 167.731C250.98 168.702 262.8 165.167 272.204 157.827C269.999 163.308 265.973 165.284 264.313 166.511Z" fill="#E0E0E0"/>
<path d="M111.174 215.001C107.5 251.736 119.579 261.052 123.01 262.117C126.441 263.182 131.04 263.513 133.67 259.362C136.3 255.211 127.903 252.838 127.903 252.838C125.118 243.14 128.307 228.226 131.716 222.642C136.646 214.56 139.063 201.108 135.389 190.639C131.716 180.169 111.718 196.634 111.174 215.001Z" fill="#37474F"/>
<path d="M127.278 250.083C127.44 251.013 127.648 251.935 127.903 252.845C126.683 252.537 125.408 252.518 124.18 252.79C122.952 253.062 121.804 253.616 120.828 254.41C120.828 254.41 119.461 250.443 127.278 250.083Z" fill="#263238"/>
<path d="M125.375 257.011C125.441 256.996 125.509 256.996 125.574 257.011C126.182 257.03 126.781 257.167 127.337 257.415C128.187 257.889 128.84 258.649 129.181 259.56C129.5 260.404 129.583 261.318 129.424 262.205C129.424 262.33 129.372 262.462 129.343 262.587C128.897 262.7 128.442 262.774 127.984 262.808C127.984 262.697 128.05 262.595 128.079 262.477C128.231 261.744 128.185 260.983 127.947 260.273C127.433 259.016 126.533 257.956 125.375 257.246C125.348 257.23 125.326 257.207 125.309 257.18C125.299 257.163 125.293 257.144 125.293 257.125C125.293 257.105 125.299 257.086 125.309 257.07C125.323 257.042 125.347 257.021 125.375 257.011Z" fill="#263238"/>
<path d="M132.09 261.176C132.135 260.647 132.112 260.114 132.024 259.59C131.802 258.256 131.155 257.029 130.18 256.092C130.092 256.004 129.989 255.909 130.011 255.776C130.107 255.409 131.65 256.467 131.811 256.614C132.438 257.217 132.887 257.979 133.112 258.818C133.211 259.163 133.275 259.518 133.303 259.876C132.953 260.357 132.546 260.794 132.09 261.176V261.176Z" fill="#263238"/>
<path d="M47.8066 229.695C40.5258 227.792 34.5233 223.457 29.307 218.168C28.2049 217.051 27.1029 215.905 26.1258 214.7C15.289 201.674 14.8335 182.08 25.3911 168.833C29.689 163.448 35.2653 159.209 41.1943 155.704C45.6025 153.118 49.9225 151.546 53.3976 147.769C56.5347 144.368 56.3804 140.217 55.3519 137.241C58.1636 138.563 60.667 140.459 62.7006 142.808C64.7342 145.156 66.2528 147.905 67.1584 150.877C69.2669 157.952 67.4229 165.49 63.022 171.28C57.5633 178.465 49.6874 183.49 44.6547 190.874C40.0555 197.626 38.8506 206.53 42.5315 213.973C44.0631 216.949 46.2702 219.526 48.976 221.497C51.6818 223.468 54.8114 224.778 58.1143 225.324C58.8896 225.358 59.6391 225.612 60.2743 226.058C61.2882 226.991 60.8914 228.799 59.8261 229.666C58.6733 230.432 57.2984 230.794 55.9176 230.694C53.1815 230.723 50.4538 230.387 47.8066 229.695Z" fill="#37474F"/>
<path d="M67.1805 150.892C69.289 157.967 67.445 165.505 63.0442 171.294C62.2654 172.323 61.4352 173.3 60.5682 174.233C61.5798 172.212 62.2029 170.019 62.405 167.768C62.2801 169.193 55.2197 174.453 54.7862 173.285C54.7271 173.04 54.7476 172.783 54.845 172.551C55.7119 169.803 57.0491 167.408 57.3944 164.528C53.5078 166.511 50.2238 169.619 46.1168 171.081C45.8523 171.177 45.4923 171.235 45.3381 171C45.2659 170.868 45.2475 170.713 45.2866 170.567C45.4601 169.694 45.77 168.853 46.205 168.076C47.6169 165.296 49.2559 162.637 51.1054 160.127C48.421 161.396 45.8479 162.887 43.4132 164.586C42.3258 165.321 41.0915 166.188 39.7911 165.924C39.8534 163.462 40.8641 161.119 42.6123 159.385C36.9198 161.48 31.4945 164.239 26.4491 167.606C30.697 162.872 35.6841 158.857 41.2164 155.719C45.6246 153.133 49.9446 151.56 53.4197 147.784C56.5568 144.382 56.4025 140.231 55.374 137.256C58.1857 138.577 60.6891 140.474 62.7227 142.822C64.7563 145.171 66.2749 147.92 67.1805 150.892V150.892Z" fill="#F5F5F5"/>
<path d="M76.5845 249.869C82.8441 252.808 93.9453 251.86 98.302 243.705C102.659 235.55 102.872 215.956 91.4473 212.202C80.0229 208.447 66.4384 237.776 76.5845 249.869Z" fill="#455A64"/>
<path d="M73.4253 242.817L78.0318 225.647C77.2599 223.923 76.2183 222.333 74.9461 220.937C75.2032 220.041 75.4751 219.152 75.7616 218.285C78.0929 220.099 80.0239 222.375 81.4334 224.971C86.5763 234.573 83.3877 247.188 83.3877 247.188C83.3877 247.188 87.1641 250.259 94.1583 243.118C97.1853 240.025 99.2204 235.771 100.55 231.958C100.396 236.917 99.6097 241.252 98.302 243.713C93.9453 251.868 82.8734 252.838 76.5845 249.877C74.9755 247.814 73.8914 245.391 73.4253 242.817V242.817Z" fill="#37474F"/>
<path d="M127.925 163.418C123.517 172.969 139.746 185.459 135.595 204.069C132.495 217.969 116.64 226.418 112.423 231.421C108.206 236.425 105.899 251.023 108.977 260.64C108.977 260.64 117.433 262.749 114.935 266.981C112.438 271.212 107.824 271.014 104.363 270.059C100.903 269.104 87.0612 259.487 87.6416 222.767C87.6416 222.767 80.2506 217.962 78.0319 225.647C79.8515 229.646 80.7575 234 80.6841 238.394C80.471 244.55 76.5845 249.87 76.5845 249.87C79.1599 249.771 81.738 249.966 84.2694 250.45C87.5388 251.185 88.3102 254.123 87.5388 256.019C86.7673 257.914 83.1306 259.869 79.4572 259.097C75.7837 258.326 58.2686 254.902 49.6654 244.874C41.0621 234.845 37.6384 218.057 42.8841 208.271C49.7609 195.444 55.8662 191.146 78.7886 180.125C88.6702 175.379 92.9755 167.466 93.3576 159.142L127.925 163.418Z" fill="#455A64"/>
<path d="M135.72 193.012C135.111 192.318 134.382 191.74 133.567 191.307C134.675 194.115 134.743 197.226 133.758 200.079C133.344 201.135 132.853 202.159 132.289 203.143C132.171 202.167 131.924 201.211 131.554 200.3C131.914 201.608 131.231 204.062 130.856 205.083C128.807 210.136 125.663 214.673 121.65 218.366C123.12 215.251 122.716 211.394 120.637 209.028L120.196 212.349C117.889 211.239 116.728 208.999 115.435 206.942C114.656 205.707 112.944 201.145 114.465 199.866C113.427 200.748 112.776 202 112.65 203.356C112.606 203.937 112.43 204.745 111.85 204.686C111.641 204.647 111.452 204.538 111.313 204.377C105.34 198.823 102.615 187.964 109.109 177.194C110.579 174.799 128.343 174.255 129.181 174.924C132.281 177.304 132.737 178.244 133.736 180.066C135.066 182.506 135.94 184.864 136.153 189.353C136.151 190.585 136.006 191.813 135.72 193.012V193.012Z" fill="#FAFAFA"/>
<path d="M127.925 163.418L93.3943 159.142C93.2387 162.459 92.4087 165.709 90.9551 168.693C93.7396 172.058 99.5583 174.666 102.615 175.614C109.081 177.688 115.931 178.278 122.657 177.341C123.369 177.231 124.073 177.076 124.766 176.878C126.343 176.411 127.856 175.749 129.269 174.909C127.425 170.596 126.367 166.813 127.925 163.418Z" fill="#2452B3"/>
<path d="M65.4832 213.363C71.207 214.554 76.3034 217.783 79.8244 222.451C79.0023 223.374 78.3907 224.464 78.0317 225.647C75.137 218.763 65.4832 213.363 65.4832 213.363Z" fill="#37474F"/>
<path d="M92.6008 255.799C88.5903 244.784 86.3294 233.21 85.9004 221.496C86.3486 209.858 90.0073 208.271 90.0073 208.271C90.0073 208.271 87.862 212.863 87.6416 222.767C87.6416 222.767 87.7371 234.705 92.6008 255.799Z" fill="#37474F"/>
<path d="M108.264 257.892C108.463 258.82 108.708 259.737 108.999 260.64C107.77 260.367 106.495 260.385 105.274 260.693C104.053 261 102.921 261.588 101.968 262.411C101.968 262.411 100.462 258.487 108.264 257.892Z" fill="#37474F"/>
<path d="M71.6326 252.992C73.5471 252.449 75.2641 251.365 76.5771 249.87C78.0987 249.819 79.6221 249.855 81.1395 249.98C77.7893 254.087 71.6326 252.992 71.6326 252.992Z" fill="#37474F"/>
<path d="M106.575 264.872C106.637 264.857 106.703 264.857 106.766 264.872C107.376 264.867 107.981 264.987 108.544 265.225C109.408 265.667 110.086 266.405 110.454 267.304C110.798 268.137 110.91 269.049 110.777 269.941L110.711 270.331C110.265 270.452 109.811 270.538 109.352 270.588C109.352 270.478 109.418 270.375 109.44 270.257C109.57 269.518 109.501 268.757 109.241 268.053C108.689 266.814 107.754 265.785 106.575 265.114L106.516 265.056C106.505 265.038 106.499 265.018 106.499 264.997C106.499 264.976 106.505 264.956 106.516 264.938C106.526 264.909 106.547 264.885 106.575 264.872Z" fill="#263238"/>
<path d="M113.415 268.832C113.438 268.303 113.398 267.772 113.297 267.252C113.03 265.925 112.345 264.717 111.343 263.807C111.255 263.726 111.152 263.63 111.174 263.498C111.255 263.123 112.827 264.145 112.996 264.284C113.64 264.869 114.113 265.618 114.362 266.452C114.469 266.797 114.543 267.151 114.583 267.51C114.248 267.996 113.856 268.44 113.415 268.832V268.832Z" fill="#263238"/>
<path d="M80.1477 254.836C80.2009 254.792 80.2639 254.762 80.3314 254.748C80.9155 254.579 81.527 254.527 82.1314 254.594C83.083 254.783 83.9367 255.304 84.5412 256.063C85.0143 256.657 85.3414 257.355 85.4962 258.098C85.1132 258.321 84.7127 258.513 84.2987 258.671C84.1572 258.118 83.9075 257.599 83.564 257.143C82.6929 256.097 81.5077 255.361 80.1844 255.042C80.1574 255.036 80.1322 255.023 80.1109 255.005C80.1025 254.988 80.0981 254.969 80.0981 254.95C80.0981 254.931 80.1025 254.912 80.1109 254.895C80.1181 254.873 80.1307 254.852 80.1477 254.836V254.836Z" fill="#263238"/>
<path d="M87.0612 256.812C86.9386 256.32 86.7586 255.845 86.5249 255.394C85.9002 254.196 84.9092 253.228 83.6963 252.632C83.5861 252.573 83.4612 252.507 83.4392 252.375C83.4392 252 85.2172 252.537 85.4082 252.625C86.1914 253.01 86.8544 253.602 87.3257 254.337C87.4968 254.592 87.6444 254.863 87.7665 255.145C87.7264 255.444 87.6499 255.738 87.5388 256.019C87.4216 256.307 87.2605 256.574 87.0612 256.812V256.812Z" fill="#263238"/>
<path d="M112.878 214.083C112.878 214.083 113.922 226.749 110.63 234.338C111.097 233.285 111.7 232.297 112.423 231.399C113.42 230.298 114.509 229.283 115.677 228.365C115.565 223.48 114.618 218.649 112.878 214.083V214.083Z" fill="#37474F"/>
<path d="M90.1028 141.429C86.9363 135.867 87.8032 122.871 92.4979 120.24C96.906 117.75 107.14 130.82 107.14 130.82C107.14 130.82 98.7501 140.062 90.1028 141.429Z" fill="#37474F"/>
<path d="M95.4587 138.086C101.336 134.655 107.14 130.82 107.14 130.82C107.14 130.82 97.3983 118.396 93.7616 120.476C91.4693 121.453 89.133 128.741 95.4587 138.086Z" fill="#FFA8A7"/>
<path d="M103.783 131.026C102.784 130.538 101.947 129.773 101.373 128.822C100.622 127.762 100.231 126.49 100.256 125.192C98.0522 126.698 97.1485 130.335 97.1485 130.335C93.9526 129.828 94.1583 126.662 94.1583 126.662C92.5273 128.417 92.5861 132.84 95.3853 135.14C96.895 135.336 98.4288 135.08 99.7934 134.405C102.313 133.193 103.614 131.907 103.783 131.026Z" fill="#F28F8F"/>
<path d="M97.0823 135.919C94.981 134.449 93.6659 131.364 94.5549 129.226C94.5549 129.226 96.0243 131.055 97.6921 131.121C97.6921 131.121 98.5223 125.075 101.872 124.149C101.872 124.149 101.138 128.131 104.077 130.298C105.032 135.919 97.0823 135.919 97.0823 135.919Z" fill="#455A64"/>
<path d="M115.229 128.116C118.168 123.231 126.617 118.418 131.723 121.989C134.603 124.002 128.997 138.292 128.997 138.292C128.997 138.292 119.388 134.42 115.229 128.116Z" fill="#37474F"/>
<path d="M119.322 132.106C124.038 135.338 128.997 138.292 128.997 138.292C128.997 138.292 134.603 124.002 131.723 121.989C129.762 121.063 123.877 123.084 119.322 132.106Z" fill="#FFA8A7"/>
<path d="M128.417 135.125C128.723 134.517 129.128 133.963 129.615 133.487C129.93 132.583 130.276 131.525 130.606 130.416C129.173 129.707 127.599 129.33 126 129.314C125.897 127.742 127.315 126.162 127.315 126.162C125.419 125.618 122.275 127.47 121.614 130.68C122.08 131.903 122.787 133.02 123.693 133.964C124.736 134.515 125.684 134.986 126.463 135.353C127.123 135.424 127.791 135.346 128.417 135.125V135.125Z" fill="#F28F8F"/>
<path d="M122.422 131.782C123.054 129.578 125.17 127.521 127.072 127.646C127.072 127.646 125.992 129.424 126.338 130.886C126.338 130.886 131.304 129.806 132.862 132.392C132.862 132.392 129.548 132.943 128.571 136.117C124.398 138.593 122.422 131.782 122.422 131.782Z" fill="#455A64"/>
<path d="M113.253 127.756C118.742 128.375 123.903 130.686 128.02 134.368C131.832 137.764 135.011 141.808 137.41 146.314C138.629 148.27 139.592 150.373 140.275 152.574C140.952 155.205 140.899 157.972 140.121 160.575C139.85 159.485 139.4 158.447 138.791 157.504C138.917 159.077 138.613 160.654 137.909 162.066C137.862 161.384 137.674 160.719 137.358 160.112C137.077 160.625 136.758 161.116 136.403 161.581C135.984 162.199 135.551 162.794 135.095 163.381C134.151 164.582 133.111 165.704 131.988 166.739C129.778 168.853 127.111 170.43 124.193 171.345C123.587 171.517 122.971 171.652 122.349 171.75C116.486 172.565 110.514 172.05 104.878 170.243C102.206 169.417 99.6187 168.343 97.1485 167.033C96.12 166.482 92.5934 163.969 92.4539 162.25C92.0987 162.405 91.7922 162.654 91.5672 162.97C91.3421 163.285 91.2067 163.656 91.1755 164.043C89.9994 163.075 89.1493 161.77 88.7406 160.303C88.3318 158.836 88.3842 157.279 88.8906 155.843C87.6094 156.622 86.587 157.762 85.9518 159.12C84.6073 157.482 84.3869 155.197 84.5412 153.088C84.8057 149.503 86.5616 146.528 88.4571 143.574C93.7763 135.287 103.085 128.197 113.253 127.756Z" fill="#455A64"/>
<path d="M137.358 160.127C136.817 161.07 136.213 161.976 135.551 162.838C134.921 163.735 134.231 164.589 133.486 165.395C132.007 167.026 130.311 168.447 128.446 169.619C126.571 170.802 124.478 171.596 122.29 171.955C120.103 172.295 117.889 172.428 115.677 172.352C111.269 172.184 106.914 171.329 102.769 169.817C100.692 169.079 98.6772 168.174 96.7444 167.114C95.8021 166.523 94.9145 165.849 94.0922 165.101C93.6786 164.722 93.2953 164.312 92.9461 163.874C92.5653 163.419 92.3118 162.871 92.2114 162.287L92.5346 162.485C92.2196 162.623 91.9475 162.843 91.7471 163.122C91.5467 163.401 91.4253 163.73 91.3959 164.072V164.513L91.0579 164.241C89.845 163.246 88.9704 161.899 88.5547 160.385C88.1389 158.872 88.2023 157.268 88.7363 155.792L89.0155 156.027C87.7405 156.771 86.717 157.879 86.0767 159.208L85.9665 159.444L85.7975 159.238C84.9374 158.088 84.4434 156.705 84.3796 155.27C84.2797 153.862 84.3987 152.447 84.7322 151.075C85.4081 148.335 86.9363 145.933 88.4057 143.589C86.9363 145.947 85.4669 148.401 84.8938 151.119C84.6011 152.475 84.5119 153.867 84.6294 155.248C84.7029 156.621 85.1895 157.94 86.0253 159.032H85.7461C86.397 157.636 87.448 156.465 88.7657 155.667L89.2432 155.373L89.0449 155.902C88.5577 157.294 88.5078 158.801 88.9018 160.222C89.2957 161.643 90.1147 162.91 91.2489 163.852L90.8816 164.013C90.9143 163.584 91.0636 163.171 91.3135 162.82C91.5634 162.47 91.9043 162.194 92.2995 162.022L92.5787 161.905L92.6228 162.221C92.7217 162.713 92.947 163.171 93.2767 163.55C93.6111 163.97 93.9797 164.36 94.3787 164.719C95.1764 165.444 96.0397 166.093 96.9575 166.658C98.8691 167.69 100.853 168.581 102.894 169.325C107.005 170.859 111.331 171.742 115.714 171.941C117.889 172.023 120.067 171.917 122.224 171.625C123.293 171.45 124.345 171.182 125.368 170.824C126.388 170.44 127.372 169.966 128.307 169.406C130.167 168.268 131.871 166.892 133.376 165.314C134.142 164.535 134.852 163.703 135.499 162.823C136.177 161.966 136.798 161.065 137.358 160.127V160.127Z" fill="#263238"/>
<path d="M114.245 154.756C120.409 151.208 117.184 135.889 117.184 135.889C120.402 142.575 121.592 150.524 127.969 153.147C133.508 155.425 136.477 157.284 135.125 163.352C132.245 167.555 127.778 171.529 122.503 172.169C117.94 172.756 112.291 172.477 105.539 170.427C102.651 162.353 106.442 159.267 114.245 154.756Z" fill="#FAFAFA"/>
<path d="M107.17 148.967C107.087 149.486 107.16 150.017 107.38 150.494C107.6 150.972 107.956 151.373 108.404 151.647C108.852 151.921 109.372 152.056 109.897 152.035C110.422 152.013 110.928 151.837 111.353 151.527C111.777 151.217 112.1 150.788 112.28 150.295C112.46 149.802 112.49 149.266 112.365 148.756C112.241 148.245 111.967 147.783 111.58 147.429C111.193 147.074 110.709 146.842 110.189 146.763C109.497 146.659 108.792 146.832 108.227 147.245C107.662 147.657 107.282 148.276 107.17 148.967V148.967Z" fill="white"/>
<path d="M106.714 148.754C106.632 149.273 106.705 149.804 106.924 150.281C107.144 150.758 107.501 151.16 107.949 151.434C108.397 151.708 108.916 151.843 109.441 151.822C109.966 151.8 110.473 151.624 110.897 151.314C111.321 151.004 111.644 150.575 111.824 150.082C112.005 149.589 112.035 149.053 111.91 148.542C111.785 148.032 111.512 147.57 111.125 147.216C110.737 146.861 110.253 146.629 109.734 146.55C109.041 146.444 108.335 146.616 107.77 147.029C107.204 147.442 106.825 148.062 106.714 148.754V148.754Z" fill="#263238"/>
<path d="M109.33 148.43C109.33 148.587 109.283 148.741 109.196 148.871C109.109 149.002 108.985 149.103 108.84 149.164C108.695 149.224 108.535 149.239 108.381 149.209C108.228 149.178 108.086 149.102 107.975 148.991C107.864 148.881 107.789 148.739 107.758 148.585C107.727 148.431 107.743 148.272 107.803 148.127C107.863 147.982 107.965 147.858 108.095 147.771C108.226 147.684 108.379 147.637 108.536 147.637C108.64 147.637 108.744 147.657 108.84 147.697C108.936 147.737 109.024 147.796 109.097 147.869C109.171 147.943 109.229 148.031 109.269 148.127C109.309 148.223 109.33 148.326 109.33 148.43V148.43Z" fill="#FAFAFA"/>
<path d="M125.603 147.365C125.53 147.844 125.601 148.333 125.806 148.771C126.011 149.209 126.341 149.576 126.755 149.827C127.169 150.077 127.648 150.199 128.131 150.178C128.614 150.156 129.08 149.992 129.47 149.706C129.86 149.419 130.156 149.024 130.321 148.569C130.486 148.115 130.513 147.621 130.398 147.152C130.283 146.682 130.032 146.257 129.675 145.93C129.318 145.603 128.873 145.389 128.395 145.316C128.077 145.265 127.752 145.279 127.439 145.355C127.126 145.431 126.832 145.568 126.572 145.759C126.313 145.949 126.093 146.19 125.927 146.465C125.761 146.741 125.651 147.047 125.603 147.365V147.365Z" fill="white"/>
<path d="M125.184 147.167C125.111 147.645 125.182 148.135 125.387 148.573C125.592 149.011 125.923 149.379 126.337 149.629C126.751 149.88 127.23 150.002 127.714 149.98C128.197 149.958 128.664 149.793 129.053 149.506C129.443 149.219 129.739 148.823 129.904 148.368C130.068 147.913 130.094 147.419 129.978 146.949C129.862 146.479 129.609 146.054 129.251 145.728C128.894 145.402 128.447 145.189 127.969 145.117C127.328 145.02 126.675 145.181 126.153 145.566C125.63 145.95 125.282 146.526 125.184 147.167Z" fill="#263238"/>
<path d="M127.601 146.865C127.601 147.011 127.558 147.153 127.478 147.273C127.397 147.394 127.282 147.488 127.148 147.544C127.014 147.6 126.866 147.614 126.723 147.586C126.581 147.558 126.45 147.488 126.347 147.385C126.245 147.282 126.175 147.151 126.146 147.009C126.118 146.866 126.132 146.718 126.188 146.584C126.244 146.45 126.338 146.335 126.459 146.254C126.579 146.174 126.721 146.131 126.867 146.131C127.062 146.131 127.248 146.208 127.386 146.346C127.524 146.484 127.601 146.67 127.601 146.865Z" fill="#FAFAFA"/>
<path d="M104.584 158.687H104.62C104.713 158.62 104.777 158.521 104.798 158.409C104.82 158.297 104.799 158.181 104.738 158.084C103.445 155.917 101.028 153.441 96.862 153.941C96.8074 153.949 96.755 153.968 96.7077 153.996C96.6604 154.024 96.6192 154.062 96.5864 154.106C96.5536 154.151 96.53 154.201 96.5167 154.255C96.5035 154.308 96.501 154.364 96.5093 154.418C96.5205 154.531 96.5752 154.634 96.6616 154.707C96.7481 154.78 96.8595 154.816 96.9722 154.808C100.704 154.36 102.85 156.593 104.047 158.547C104.103 158.633 104.189 158.695 104.288 158.721C104.388 158.747 104.493 158.735 104.584 158.687Z" fill="#263238"/>
<path d="M103.415 159.723C103.456 159.698 103.493 159.668 103.526 159.635C103.601 159.55 103.643 159.44 103.643 159.326C103.643 159.212 103.601 159.102 103.526 159.017C102.749 158.339 101.837 157.834 100.85 157.535C99.8637 157.236 98.8247 157.15 97.8023 157.284C97.6991 157.316 97.6115 157.386 97.5562 157.479C97.501 157.572 97.482 157.683 97.5029 157.789C97.5238 157.895 97.5831 157.99 97.6695 158.055C97.7559 158.121 97.8633 158.152 97.9713 158.143C98.8593 158.027 99.7619 158.097 100.621 158.35C101.48 158.603 102.277 159.033 102.96 159.613C103.014 159.677 103.088 159.722 103.17 159.742C103.252 159.762 103.338 159.755 103.415 159.723Z" fill="#263238"/>
<path d="M103.577 161.523C103.653 161.477 103.713 161.407 103.746 161.324C103.792 161.22 103.797 161.101 103.759 160.993C103.72 160.885 103.642 160.796 103.54 160.744C102.298 160.219 100.947 160.001 99.6029 160.11C98.2585 160.219 96.9603 160.65 95.8186 161.368C95.7224 161.432 95.6543 161.53 95.6283 161.642C95.6023 161.754 95.6205 161.872 95.679 161.971C95.7317 162.066 95.8201 162.137 95.9248 162.167C96.0295 162.197 96.1419 162.185 96.2374 162.132C97.2649 161.481 98.4345 161.086 99.647 160.983C100.859 160.879 102.079 161.069 103.202 161.537C103.261 161.567 103.326 161.582 103.392 161.579C103.457 161.577 103.521 161.557 103.577 161.523V161.523Z" fill="#263238"/>
<path d="M135.426 154.132H135.389C135.286 154.085 135.203 154.001 135.158 153.896C135.113 153.791 135.109 153.674 135.147 153.566C135.992 151.186 137.873 148.284 142.053 147.946C142.109 147.942 142.165 147.949 142.218 147.967C142.271 147.986 142.319 148.015 142.361 148.053C142.402 148.091 142.435 148.136 142.458 148.187C142.481 148.239 142.493 148.294 142.494 148.35C142.506 148.462 142.474 148.574 142.404 148.662C142.333 148.75 142.231 148.807 142.119 148.82C138.372 149.121 136.675 151.759 135.918 153.882C135.883 153.978 135.813 154.058 135.722 154.104C135.63 154.15 135.525 154.16 135.426 154.132V154.132Z" fill="#263238"/>
<path d="M136.778 154.918C136.733 154.906 136.691 154.886 136.653 154.859C136.561 154.79 136.499 154.689 136.478 154.576C136.458 154.463 136.481 154.346 136.543 154.249C137.169 153.43 137.963 152.754 138.871 152.265C139.78 151.776 140.781 151.485 141.81 151.413C141.922 151.417 142.028 151.465 142.105 151.546C142.182 151.627 142.224 151.735 142.222 151.847C142.225 151.902 142.217 151.958 142.198 152.01C142.179 152.063 142.15 152.111 142.112 152.152C142.075 152.193 142.029 152.226 141.979 152.25C141.928 152.273 141.873 152.286 141.818 152.288C140.923 152.354 140.052 152.607 139.261 153.031C138.47 153.455 137.777 154.04 137.226 154.749C137.18 154.822 137.111 154.878 137.03 154.909C136.949 154.939 136.861 154.942 136.778 154.918V154.918Z" fill="#263238"/>
<path d="M136.969 156.711C136.884 156.682 136.811 156.625 136.763 156.549C136.7 156.454 136.674 156.338 136.692 156.225C136.71 156.112 136.769 156.01 136.859 155.939C137.973 155.18 139.255 154.702 140.594 154.545C141.933 154.387 143.291 154.556 144.551 155.035C144.656 155.08 144.74 155.162 144.786 155.265C144.832 155.369 144.838 155.486 144.801 155.594C144.769 155.698 144.696 155.785 144.6 155.836C144.503 155.887 144.391 155.898 144.286 155.866V155.866C143.151 155.429 141.927 155.273 140.718 155.411C139.509 155.549 138.351 155.977 137.344 156.659C137.29 156.698 137.228 156.723 137.163 156.732C137.097 156.741 137.031 156.734 136.969 156.711V156.711Z" fill="#263238"/>
<path d="M128.27 161.273C128.218 161.151 128.121 161.055 127.998 161.006C127.875 160.956 127.738 160.957 127.616 161.008C127.149 161.245 126.629 161.361 126.105 161.344C125.582 161.327 125.07 161.179 124.619 160.913C123.635 160.238 122.95 159.209 122.709 158.04C122.709 157.901 122.672 157.768 122.65 157.629C122.631 157.5 122.562 157.384 122.459 157.305C122.356 157.226 122.226 157.19 122.097 157.206C121.968 157.221 121.85 157.286 121.768 157.387C121.686 157.488 121.646 157.617 121.658 157.746C121.668 157.902 121.687 158.056 121.717 158.209C121.858 159.065 121.729 159.943 121.349 160.722C120.968 161.502 120.355 162.143 119.594 162.559C118.029 163.404 116.052 163.293 114.994 162.316C114.948 162.265 114.891 162.225 114.828 162.197C114.764 162.169 114.696 162.155 114.627 162.155C114.558 162.155 114.49 162.169 114.426 162.197C114.363 162.225 114.306 162.265 114.26 162.316C114.21 162.364 114.17 162.421 114.143 162.484C114.116 162.547 114.102 162.615 114.102 162.684C114.102 162.752 114.116 162.82 114.143 162.883C114.17 162.947 114.21 163.004 114.26 163.051C115.108 163.773 116.195 164.152 117.309 164.116C118.252 164.116 119.18 163.884 120.012 163.44C120.634 163.122 121.179 162.673 121.613 162.126C122.046 161.578 122.357 160.944 122.525 160.266C122.918 160.872 123.437 161.385 124.046 161.773C124.632 162.123 125.297 162.321 125.98 162.35C126.662 162.378 127.341 162.235 127.954 161.934C128.02 161.914 128.081 161.88 128.133 161.835C128.185 161.79 128.227 161.735 128.257 161.673C128.286 161.61 128.303 161.543 128.305 161.474C128.307 161.405 128.296 161.337 128.27 161.273V161.273Z" fill="#263238"/>
<path d="M122.253 158.914C122.988 158.863 124.685 157.18 124.751 156.02C124.817 154.859 119.064 155.638 119.057 156.549C119.05 157.849 121.54 158.966 122.253 158.914Z" fill="#F28F8F"/>
<path d="M330.627 269.824L327.137 255.696H309.57C303.757 254.697 297.817 254.697 292.004 255.696H274.445L270.947 269.824C269.618 275.084 272.417 280.624 279.463 284.665C291.218 291.468 310.32 291.468 322.111 284.665C329.12 280.624 331.956 275.084 330.627 269.824Z" fill="#2452B3"/>
<path opacity="0.1" d="M330.627 269.824L327.137 255.696H309.57C303.757 254.697 297.817 254.697 292.004 255.696H274.445L270.947 269.824C269.618 275.084 272.417 280.624 279.463 284.665C291.218 291.468 310.32 291.468 322.111 284.665C329.12 280.624 331.956 275.084 330.627 269.824Z" fill="black"/>
<path d="M300.791 273.233C315.487 273.233 327.401 266.355 327.401 257.87C327.401 249.386 315.487 242.508 300.791 242.508C286.094 242.508 274.18 249.386 274.18 257.87C274.18 266.355 286.094 273.233 300.791 273.233Z" fill="#2452B3"/>
<path opacity="0.5" d="M300.791 273.233C315.487 273.233 327.401 266.355 327.401 257.87C327.401 249.386 315.487 242.508 300.791 242.508C286.094 242.508 274.18 249.386 274.18 257.87C274.18 266.355 286.094 273.233 300.791 273.233Z" fill="white"/>
<path opacity="0.7" d="M284.392 266.819C293.414 271.83 308.035 271.83 317.057 266.819C326.079 261.808 326.071 253.705 317.057 248.701C308.042 243.698 293.414 243.698 284.392 248.701C275.37 253.705 275.37 261.816 284.392 266.819Z" fill="#2452B3"/>
<path d="M323.794 258.385C323.279 257.615 322.581 256.985 321.763 256.552C320.945 256.118 320.032 255.895 319.106 255.901C318.945 255.901 318.79 255.901 318.629 255.901C318.673 255.708 318.695 255.511 318.695 255.313C318.678 254.5 318.338 253.727 317.752 253.164C317.165 252.6 316.378 252.293 315.565 252.309C315.033 252.308 314.508 252.442 314.042 252.699C313.576 252.956 313.182 253.327 312.898 253.778C312.584 252.598 311.885 251.557 310.912 250.82C309.939 250.083 308.748 249.691 307.528 249.708C306.226 249.705 304.964 250.149 303.95 250.964C303.798 250.216 303.378 249.55 302.768 249.09C302.159 248.63 301.403 248.408 300.642 248.467C299.881 248.526 299.168 248.86 298.636 249.408C298.105 249.956 297.792 250.679 297.756 251.442C297.757 251.639 297.777 251.836 297.815 252.029C296.71 251.659 295.518 251.638 294.4 251.969C293.283 252.301 292.295 252.968 291.57 253.881C291.294 253.403 290.897 253.006 290.418 252.731C289.939 252.457 289.396 252.313 288.844 252.316C288.442 252.308 288.042 252.38 287.667 252.527C287.293 252.673 286.951 252.893 286.661 253.172C286.371 253.451 286.139 253.784 285.978 254.153C285.816 254.522 285.73 254.919 285.722 255.321C285.727 255.432 285.739 255.542 285.759 255.651C284.956 255.241 284.067 255.027 283.165 255.027C281.934 255.011 280.733 255.41 279.755 256.159C278.777 256.907 278.079 257.963 277.773 259.156C278.324 261.948 280.528 264.666 284.385 266.804C293.407 271.815 308.027 271.815 317.049 266.804C321.274 264.482 323.522 261.456 323.794 258.385Z" fill="#B16668"/>
<path d="M286.391 264.409C285.901 263.942 285.595 263.315 285.526 262.642C285.457 261.968 285.631 261.292 286.016 260.736C286.482 260.078 287.183 259.626 287.974 259.473C288.765 259.319 289.585 259.477 290.263 259.913C290.632 260.141 290.944 260.45 291.177 260.817C291.41 261.183 291.557 261.598 291.607 262.029C291.386 261.69 291.096 261.402 290.755 261.184C290.108 260.774 289.329 260.627 288.578 260.774C287.827 260.92 287.16 261.348 286.714 261.97C286.47 262.322 286.314 262.726 286.258 263.151C286.202 263.575 286.247 264.006 286.391 264.409V264.409Z" fill="#9A4A4D"/>
<path d="M300.122 264.784C300.23 264.049 300.6 263.377 301.163 262.893C301.727 262.41 302.447 262.146 303.19 262.151C303.933 262.157 304.649 262.431 305.206 262.923C305.763 263.415 306.123 264.091 306.22 264.828C306.261 265.258 306.204 265.691 306.054 266.095C305.904 266.5 305.664 266.865 305.353 267.164C305.487 266.79 305.537 266.392 305.5 265.996C305.408 265.242 305.022 264.555 304.427 264.083C303.831 263.611 303.074 263.393 302.319 263.476C301.878 263.515 301.451 263.652 301.071 263.879C300.69 264.105 300.366 264.415 300.122 264.784Z" fill="#9A4A4D"/>
<path d="M289.748 260.604C289.324 260.201 289.058 259.659 288.998 259.077C288.939 258.494 289.09 257.91 289.425 257.43C289.823 256.855 290.428 256.457 291.113 256.32C291.799 256.183 292.51 256.318 293.099 256.695C293.414 256.892 293.682 257.157 293.881 257.471C294.081 257.785 294.207 258.14 294.252 258.51C294.064 258.214 293.813 257.963 293.517 257.775C292.963 257.422 292.294 257.295 291.648 257.42C291.003 257.546 290.431 257.915 290.05 258.451C289.827 258.758 289.683 259.114 289.63 259.49C289.578 259.865 289.618 260.248 289.748 260.604V260.604Z" fill="#9A4A4D"/>
<path d="M305.757 265.092C305.545 264.545 305.534 263.941 305.727 263.386C305.919 262.832 306.302 262.364 306.808 262.066C307.399 261.704 308.106 261.584 308.783 261.731C309.46 261.877 310.055 262.279 310.444 262.852C310.651 263.158 310.783 263.507 310.832 263.873C310.88 264.239 310.843 264.611 310.724 264.96C310.678 264.621 310.554 264.297 310.364 264.012C309.993 263.47 309.427 263.09 308.784 262.953C308.141 262.817 307.47 262.933 306.911 263.278C306.59 263.469 306.319 263.733 306.119 264.048C305.918 264.363 305.795 264.721 305.757 265.092V265.092Z" fill="#9A4A4D"/>
<path d="M300.019 258.01C299.809 257.462 299.8 256.857 299.994 256.303C300.188 255.749 300.572 255.281 301.077 254.983C301.667 254.622 302.373 254.502 303.049 254.649C303.725 254.795 304.319 255.196 304.707 255.769C304.913 256.075 305.046 256.424 305.095 256.79C305.145 257.156 305.11 257.528 304.993 257.878C304.942 257.54 304.82 257.216 304.633 256.93C304.261 256.388 303.696 256.01 303.053 255.874C302.411 255.737 301.74 255.852 301.18 256.195C300.859 256.387 300.587 256.651 300.386 256.966C300.184 257.281 300.059 257.638 300.019 258.01V258.01Z" fill="#9A4A4D"/>
<path d="M304.398 256.298C304.23 255.859 304.223 255.375 304.377 254.932C304.532 254.488 304.839 254.113 305.243 253.874C305.719 253.577 306.292 253.477 306.84 253.595C307.389 253.713 307.87 254.039 308.182 254.506C308.346 254.751 308.452 255.031 308.491 255.324C308.531 255.617 308.503 255.915 308.409 256.195C308.368 255.932 308.267 255.681 308.116 255.461C307.819 255.026 307.367 254.722 306.853 254.611C306.339 254.5 305.802 254.591 305.353 254.866C305.092 255.012 304.87 255.218 304.704 255.467C304.538 255.716 304.433 256.001 304.398 256.298Z" fill="#9A4A4D"/>
<path d="M70.244 269.824L66.7542 255.696H49.1877C43.3748 254.697 37.434 254.697 31.6212 255.696H14.062L10.5649 269.824C9.23507 275.084 12.0342 280.624 19.08 284.665C30.835 291.468 49.9371 291.468 61.7289 284.665C68.7378 280.624 71.5738 275.084 70.244 269.824Z" fill="#2452B3"/>
<path opacity="0.1" d="M70.244 269.824L66.7542 255.696H49.1877C43.3748 254.697 37.434 254.697 31.6212 255.696H14.062L10.5649 269.824C9.23507 275.084 12.0342 280.624 19.08 284.665C30.835 291.468 49.9371 291.468 61.7289 284.665C68.7378 280.624 71.5738 275.084 70.244 269.824Z" fill="black"/>
<path d="M40.4081 273.233C55.1047 273.233 67.0186 266.355 67.0186 257.87C67.0186 249.386 55.1047 242.508 40.4081 242.508C25.7114 242.508 13.7975 249.386 13.7975 257.87C13.7975 266.355 25.7114 273.233 40.4081 273.233Z" fill="#2452B3"/>
<path opacity="0.5" d="M40.4081 273.233C55.1047 273.233 67.0186 266.355 67.0186 257.87C67.0186 249.386 55.1047 242.508 40.4081 242.508C25.7114 242.508 13.7975 249.386 13.7975 257.87C13.7975 266.355 25.7114 273.233 40.4081 273.233Z" fill="white"/>
<path opacity="0.7" d="M24.0097 266.819C33.0317 271.83 47.6521 271.83 56.6741 266.819C65.6962 261.808 65.6888 253.705 56.6741 248.701C47.6594 243.698 33.0317 243.698 24.0097 248.701C14.9877 253.705 14.9877 261.816 24.0097 266.819Z" fill="#2452B3"/>
<path d="M63.4114 258.385C62.8975 257.616 62.201 256.987 61.3842 256.554C60.5675 256.12 59.656 255.896 58.7314 255.902C58.5624 255.902 58.4081 255.902 58.2465 255.902C58.2906 255.709 58.3128 255.512 58.3126 255.314C58.2953 254.501 57.956 253.728 57.3692 253.164C56.7824 252.601 55.9961 252.293 55.1828 252.309C54.6502 252.308 54.1261 252.442 53.6596 252.699C53.1932 252.956 52.7996 253.328 52.5159 253.778C52.2018 252.599 51.5029 251.558 50.53 250.82C49.5571 250.083 48.3659 249.692 47.1453 249.708C45.8397 249.716 44.5765 250.173 43.5673 251.001C43.4153 250.253 42.9952 249.587 42.386 249.127C41.7769 248.667 41.0207 248.445 40.2597 248.504C39.4987 248.563 38.7853 248.898 38.2539 249.445C37.7224 249.993 37.4095 250.716 37.3739 251.479C37.3749 251.676 37.3946 251.873 37.4326 252.067C36.3276 251.696 35.1353 251.675 34.0179 252.006C32.9006 252.338 31.9124 253.005 31.1878 253.918C30.9118 253.44 30.5143 253.043 30.0356 252.769C29.5569 252.494 29.014 252.35 28.4621 252.353C27.6545 252.339 26.8741 252.645 26.2907 253.204C25.7073 253.762 25.3681 254.528 25.347 255.336C25.3397 255.446 25.3397 255.556 25.347 255.667C24.544 255.256 23.6552 255.042 22.7535 255.042C21.5219 255.026 20.3209 255.425 19.343 256.174C18.365 256.923 17.667 257.978 17.3608 259.171C17.9119 261.963 20.1159 264.681 23.9731 266.819C32.9951 271.83 47.6155 271.83 56.6375 266.819C60.8914 264.483 63.1396 261.456 63.4114 258.385Z" fill="#B16668"/>
<path d="M26.0082 264.409C25.5201 263.941 25.2143 263.314 25.1457 262.641C25.0771 261.968 25.25 261.293 25.6335 260.736C26.0994 260.078 26.8008 259.626 27.5918 259.473C28.3828 259.319 29.2024 259.477 29.8801 259.913C30.2482 260.141 30.5603 260.449 30.7931 260.814C31.0259 261.179 31.1733 261.592 31.2245 262.021C31.004 261.682 30.7134 261.394 30.3723 261.177C29.7274 260.766 28.9492 260.618 28.1986 260.764C27.448 260.911 26.7822 261.34 26.3388 261.963C26.0929 262.315 25.9346 262.72 25.8771 263.146C25.8196 263.571 25.8645 264.005 26.0082 264.409V264.409Z" fill="#9A4A4D"/>
<path d="M39.7028 264.784C39.8104 264.049 40.1802 263.377 40.7441 262.893C41.308 262.41 42.0279 262.146 42.7709 262.151C43.5139 262.157 44.2299 262.431 44.7868 262.923C45.3436 263.415 45.7037 264.091 45.8007 264.828C45.8431 265.258 45.787 265.691 45.6368 266.096C45.4866 266.501 45.2462 266.866 44.9338 267.164C45.068 266.79 45.1181 266.392 45.0807 265.996C44.9851 265.245 44.598 264.561 44.0029 264.092C43.4078 263.624 42.6524 263.408 41.8995 263.491C41.4597 263.528 41.0339 263.663 40.6536 263.887C40.2733 264.111 39.9483 264.417 39.7028 264.784V264.784Z" fill="#9A4A4D"/>
<path d="M29.3656 260.604C28.941 260.201 28.6748 259.659 28.6155 259.077C28.5562 258.494 28.7076 257.91 29.0424 257.43C29.4401 256.855 30.0454 256.457 30.7307 256.32C31.4159 256.183 32.1277 256.318 32.7158 256.695C33.0314 256.892 33.2989 257.157 33.4985 257.471C33.6981 257.785 33.8248 258.14 33.8693 258.51C33.6817 258.214 33.4308 257.963 33.1346 257.775C32.5802 257.422 31.9111 257.295 31.2657 257.42C30.6204 257.546 30.048 257.915 29.6668 258.451C29.4442 258.758 29.3003 259.114 29.2478 259.49C29.1953 259.865 29.2357 260.248 29.3656 260.604Z" fill="#9A4A4D"/>
<path d="M45.3746 265.092C45.1626 264.545 45.1519 263.94 45.3443 263.386C45.5367 262.832 45.9198 262.364 46.4252 262.065C47.0195 261.693 47.7356 261.567 48.4214 261.714C49.1072 261.86 49.7089 262.269 50.0987 262.852C50.295 263.162 50.4175 263.514 50.457 263.879C50.4965 264.245 50.4518 264.615 50.3264 264.96C50.2743 264.621 50.149 264.298 49.9591 264.012C49.5884 263.469 49.0228 263.09 48.3797 262.953C47.7367 262.817 47.0657 262.933 46.506 263.278C46.1898 263.472 45.9229 263.737 45.7266 264.052C45.5302 264.367 45.4097 264.723 45.3746 265.092V265.092Z" fill="#9A4A4D"/>
<path d="M39.6366 258.01C39.4283 257.462 39.4202 256.857 39.6137 256.303C39.8073 255.75 40.19 255.282 40.6946 254.983C41.2846 254.622 41.9909 254.502 42.6668 254.649C43.3427 254.795 43.9362 255.196 44.324 255.769C44.53 256.075 44.6629 256.424 44.7126 256.79C44.7623 257.156 44.7273 257.528 44.6105 257.878C44.5597 257.54 44.437 257.216 44.2505 256.93C43.8786 256.388 43.3131 256.01 42.6706 255.874C42.028 255.737 41.3576 255.852 40.7974 256.195C40.4764 256.387 40.2044 256.651 40.003 256.966C39.8015 257.281 39.6761 257.638 39.6366 258.01V258.01Z" fill="#9A4A4D"/>
<path d="M44.0155 256.298C43.8476 255.859 43.8403 255.375 43.9949 254.932C44.1495 254.488 44.4561 254.113 44.8604 253.874C45.3364 253.577 45.9092 253.477 46.4577 253.595C47.0062 253.713 47.4873 254.039 47.7991 254.506C47.9633 254.751 48.0692 255.031 48.1087 255.324C48.1481 255.617 48.1202 255.915 48.0269 256.195C47.9851 255.932 47.8847 255.681 47.733 255.461C47.4369 255.026 46.9849 254.722 46.4707 254.611C45.9565 254.5 45.4194 254.591 44.9706 254.866C44.7107 255.013 44.489 255.22 44.3232 255.469C44.1573 255.717 44.052 256.002 44.0155 256.298Z" fill="#9A4A4D"/>
<path d="M61.7728 86.8338C67.1989 92.1706 74.4561 95.2369 82.065 95.4076L85.496 95.2974C93.0035 94.6359 99.986 91.1699 105.052 85.5903C110.118 80.0106 112.896 72.727 112.832 65.1907C112.769 57.6544 109.867 50.419 104.707 44.9261C99.547 39.4332 92.5067 36.0863 84.9891 35.5522L81.5581 35.4934C75.7143 35.7305 70.0676 37.6719 65.3136 41.0785C60.5596 44.485 56.906 49.2079 54.8029 54.6652C52.6998 60.1225 52.239 66.0758 53.4775 71.7917C54.716 77.5076 57.5995 82.7364 61.7728 86.8338V86.8338Z" fill="#FAFAFA"/>
<path d="M59.9951 88.6339C65.4823 94.0147 72.6956 97.2816 80.3593 97.8571C88.023 98.4325 95.6433 96.2794 101.873 91.7784L111.159 95.7824C111.509 95.9336 111.896 95.9753 112.27 95.9021C112.644 95.8289 112.988 95.6442 113.255 95.3723C113.522 95.1005 113.7 94.7541 113.767 94.3788C113.833 94.0036 113.785 93.6169 113.628 93.2698L109.469 84.0567C113.023 78.9703 115.049 72.9737 115.307 66.7739C115.566 60.5741 114.046 54.4297 110.928 49.0652C107.809 43.7006 103.222 39.3396 97.7061 36.4964C92.1907 33.6531 85.9773 32.4461 79.7985 33.0178C73.6198 33.5894 67.7333 35.9158 62.8331 39.7227C57.9329 43.5295 54.2234 48.6581 52.1419 54.5038C50.0605 60.3494 49.6938 66.6683 51.0852 72.7154C52.4766 78.7626 55.5681 84.2858 59.9951 88.6339ZM61.413 44.398C66.7482 38.9694 73.9528 35.7796 81.5583 35.4788L84.9893 35.5376C92.5069 36.0717 99.5472 39.4186 104.707 44.9115C109.868 50.4044 112.769 57.6399 112.833 65.1761C112.897 72.7124 110.119 79.9961 105.052 85.5757C99.9862 91.1554 93.0037 94.6213 85.4962 95.2829L82.0652 95.3931C76.2189 95.2545 70.5408 93.4089 65.7303 90.0835C60.9198 86.7581 57.1871 82.0982 54.9919 76.6779C52.7968 71.2576 52.235 65.3135 53.376 59.5779C54.5169 53.8423 57.3106 48.5657 61.413 44.398V44.398Z" fill="#E0E0E0"/>
<path d="M82.7998 83.8583C103.952 72.5881 105.656 60.5024 99.5067 54.5881C93.9965 49.2983 83.9238 52.7881 82.7998 60.3555C81.683 52.7881 71.603 49.2983 66.1002 54.5881C59.9508 60.5024 61.6553 72.5881 82.7998 83.8583Z" fill="#2452B3"/>
</svg>
