<svg width="371" height="329" viewBox="0 0 371 329" fill="none" xmlns="http://www.w3.org/2000/svg">
<path d="M343.442 12.1777H212.723V129.897H343.442V12.1777Z" stroke="#263238" stroke-miterlimit="10"/>
<path d="M260.962 59.7799C258.128 57.1808 255.806 54.0736 254.116 50.6191C251.407 44.9743 247.439 42.2728 242.649 43.5308C237.859 44.7888 237.004 47.0709 234.932 48.3209C233.163 49.373 231.151 49.9482 229.093 49.9901C227.634 49.9901 227.214 51.0385 228.287 53.3287C229.359 55.6189 229.956 55.2076 231.625 55.2076C233.295 55.2076 236.633 54.9979 236.464 56.014C236.294 57.0301 232.085 58.1026 231.246 59.3525C230.408 60.6025 232.706 60.8121 235.835 60.6025C238.964 60.3928 240.423 57.8929 241.883 59.7961C243.342 61.6992 247.1 69.594 248.77 75.4324C250.439 81.2708 255.221 88.5768 257.527 90.0364C257.527 90.0364 257.938 109.64 257.938 111.721C257.938 113.801 258.358 114.64 257.132 115.269C255.906 115.898 253.173 116.938 252.753 118.188L252.334 119.438H259.842C260.382 118.699 260.738 117.842 260.882 116.938V115.269C260.882 115.269 262.97 112.559 262.97 110.89C263.154 108.078 263.572 105.286 264.22 102.544C264.95 100.297 265.508 97.997 265.89 95.6652V91.0767C265.89 91.0767 276.526 89.6171 281.324 86.6979C286.122 83.7787 288.203 81.8998 292.614 81.8998C297.025 81.8998 298.662 85.8592 300.331 89.1574C302.001 92.4557 308.258 99.1731 310.758 101.463C313.258 103.753 313.266 107.302 313.887 109.802C314.271 111.384 314.413 113.015 314.306 114.64C314.306 114.64 311.178 114.85 310.968 116.309C310.833 117.069 310.833 117.847 310.968 118.608H316.21C317.105 117.239 317.609 115.653 317.669 114.019C317.669 111.511 318.718 103.173 317.669 100.875C316.621 98.5763 311.629 94.6249 311.42 90.4477C311.21 86.2705 311.629 76.4807 311.629 76.4807C311.629 76.4807 315.798 82.5288 321.846 81.4804C327.894 80.4321 327.894 78.15 328.298 74.1824C328.701 70.2149 327.886 71.4729 327.491 72.7228C327.096 73.9728 327.911 76.6904 322.903 76.892C317.895 77.0936 313.105 71.8922 310 67.5134C306.896 63.1346 301.444 60.417 293.727 60.2154C286.01 60.0138 278.72 62.9249 271.212 62.7153C263.704 62.5056 260.962 59.7799 260.962 59.7799Z" fill="#949494"/>
<path d="M312.718 41.2083H299.815" stroke="#263238" stroke-linecap="round" stroke-linejoin="round"/>
<path d="M312.718 43.9019H299.815" stroke="#263238" stroke-linecap="round" stroke-linejoin="round"/>
<path d="M312.718 46.5872H299.815" stroke="#263238" stroke-linecap="round" stroke-linejoin="round"/>
<path d="M337.837 90.9075H324.935" stroke="#263238" stroke-linecap="round" stroke-linejoin="round"/>
<path d="M337.837 93.6008H324.935" stroke="#263238" stroke-linecap="round" stroke-linejoin="round"/>
<path d="M337.837 96.2861H324.935" stroke="#263238" stroke-linecap="round" stroke-linejoin="round"/>
<path d="M263.019 31.217H250.116" stroke="#263238" stroke-linecap="round" stroke-linejoin="round"/>
<path d="M263.019 33.9023H250.116" stroke="#263238" stroke-linecap="round" stroke-linejoin="round"/>
<path d="M263.019 36.5957H250.116" stroke="#263238" stroke-linecap="round" stroke-linejoin="round"/>
<path d="M234.383 87.1335H221.48" stroke="#263238" stroke-linecap="round" stroke-linejoin="round"/>
<path d="M234.383 89.8188H221.48" stroke="#263238" stroke-linecap="round" stroke-linejoin="round"/>
<path d="M234.383 92.5042H221.48" stroke="#263238" stroke-linecap="round" stroke-linejoin="round"/>
<path d="M290.3 111.173H277.397" stroke="#263238" stroke-linecap="round" stroke-linejoin="round"/>
<path d="M290.3 113.858H277.397" stroke="#263238" stroke-linecap="round" stroke-linejoin="round"/>
<path d="M290.3 116.543H277.397" stroke="#263238" stroke-linecap="round" stroke-linejoin="round"/>
<path d="M296.831 41.2971H290.888L275.494 61.5541" stroke="#263238" stroke-linecap="round" stroke-linejoin="round"/>
<path d="M247.947 33.9993H243.084V41.8376" stroke="#263238" stroke-linecap="round" stroke-linejoin="round"/>
<path d="M235.52 90.1816H239.842L246.326 78.8435" stroke="#263238" stroke-linecap="round" stroke-linejoin="round"/>
<path d="M323.846 93.6977H319.524V84.2385" stroke="#263238" stroke-linecap="round" stroke-linejoin="round"/>
<path d="M291.703 113.14H310.605" stroke="#263238" stroke-linecap="round" stroke-linejoin="round"/>
<path d="M319.169 22.3948H239.601V26.6929H319.169V22.3948Z" fill="#949494"/>
<path d="M302.097 15.9597H256.68V19.645H302.097V15.9597Z" fill="#949494"/>
<path d="M351.974 161.42C351.974 161.42 351.974 156.912 345.668 150.606C339.361 144.3 335.305 140.695 335.305 140.695C335.305 140.695 332.152 151.057 338.007 157.364C342.315 161.802 346.987 165.872 351.974 169.532V161.42Z" fill="#2452B3"/>
<path d="M342.821 189.556C342.821 189.556 342.821 185.048 336.515 178.742C330.209 172.435 326.153 168.831 326.153 168.831C326.153 168.831 323 179.193 328.854 185.499C333.162 189.938 337.834 194.008 342.821 197.668V189.556Z" fill="#2452B3"/>
<path d="M351.579 169.097C351.579 169.097 352.054 164.613 358.99 159.009C365.925 153.404 370.344 150.243 370.344 150.243C370.344 150.243 372.384 160.88 365.892 166.541C361.141 170.497 356.067 174.05 350.724 177.161L351.579 169.097Z" fill="#2452B3"/>
<path d="M340.523 202.321C340.523 202.321 341.466 197.918 348.95 193.071C356.433 188.225 361.159 185.548 361.159 185.548C361.159 185.548 362.07 196.345 355.022 201.281C349.872 204.731 344.442 207.745 338.789 210.288L340.523 202.321Z" fill="#2452B3"/>
<path d="M342.595 238.553C342.595 238.553 342.595 234.045 348.901 227.739C355.208 221.433 359.264 217.828 359.264 217.828C359.264 217.828 362.425 228.19 356.53 234.48C352.222 238.919 347.55 242.989 342.563 246.649L342.595 238.553Z" fill="#2452B3"/>
<path d="M342.49 247.383C342.49 247.383 343.136 242.924 337.789 235.779C332.443 228.634 328.919 224.489 328.919 224.489C328.919 224.489 324.33 234.295 329.225 241.375C332.86 246.378 336.906 251.069 341.321 255.399L342.49 247.383Z" fill="#2452B3"/>
<path d="M336.273 273.599C336.273 273.599 336.273 269.1 342.579 262.794C348.885 256.487 352.941 252.883 352.941 252.883C352.941 252.883 356.094 263.245 350.24 269.551C345.932 273.988 341.26 278.056 336.273 281.712V273.599Z" fill="#2452B3"/>
<path d="M340.482 297.381C340.482 297.381 339.345 293.026 343.845 285.284C348.345 277.543 351.361 273.067 351.361 273.067C351.361 273.067 357.006 282.293 352.974 289.881C349.934 295.272 346.446 300.397 342.547 305.203L340.482 297.381Z" fill="#2452B3"/>
<path d="M352.546 160.291C352.224 164.982 351.648 169.653 350.821 174.282C348.321 187.185 342.087 195.475 339.595 207.111C337.103 218.748 344.264 233.723 342.345 248.682C340.426 263.64 334.612 271.93 336.273 281.906C337.934 291.881 347.176 320.057 347.176 320.057" stroke="#263238" stroke-linecap="round" stroke-linejoin="round"/>
<path d="M351.514 172.089L358.312 166.871" stroke="#263238" stroke-linecap="round" stroke-linejoin="round"/>
<path d="M351.829 166.081L348.99 161.025" stroke="#263238" stroke-linecap="round" stroke-linejoin="round"/>
<path d="M339.974 206.547C339.974 206.547 345.668 202.281 351.514 198.015" stroke="#263238" stroke-linecap="round" stroke-linejoin="round"/>
<path d="M342.821 197.668C342.821 197.668 338.079 188.37 332.7 182.201" stroke="#263238" stroke-linecap="round" stroke-linejoin="round"/>
<path d="M342.821 244.964C346.07 238.978 350.168 233.493 354.99 228.683" stroke="#263238" stroke-linecap="round" stroke-linejoin="round"/>
<path d="M341.716 251.286C339.993 247.222 337.935 243.308 335.563 239.585C332.249 234.69 331.773 234.053 331.773 234.053" stroke="#263238" stroke-linecap="round" stroke-linejoin="round"/>
<path d="M336.273 281.881C337.715 278.301 339.43 274.837 341.402 271.519C343.37 268.443 345.589 265.535 348.038 262.826" stroke="#263238" stroke-linecap="round" stroke-linejoin="round"/>
<path d="M342.539 305.211C342.539 305.211 341.869 299.816 344.24 295.228C346.611 290.639 349.304 284.639 350.409 282.269" stroke="#263238" stroke-linecap="round" stroke-linejoin="round"/>
<path d="M310.669 221.578C310.669 221.578 310.178 218.747 313.452 214.111C316.726 209.474 318.871 206.772 318.871 206.772C318.871 206.772 321.975 212.925 318.992 217.514C316.771 220.765 314.281 223.824 311.548 226.658L310.669 221.578Z" fill="#2452B3"/>
<path d="M319.435 238.263C319.435 238.263 318.943 235.432 322.217 230.795C325.491 226.159 327.636 223.457 327.636 223.457C327.636 223.457 330.741 229.61 327.749 234.198C325.544 237.452 323.067 240.514 320.346 243.351L319.435 238.263Z" fill="#2452B3"/>
<path d="M311.75 226.417C311.75 226.417 310.944 223.659 306.008 220.901C301.073 218.143 297.944 216.635 297.944 216.635C297.944 216.635 297.823 223.53 302.509 226.368C305.916 228.334 309.482 230.012 313.169 231.384L311.75 226.417Z" fill="#2452B3"/>
<path d="M322.29 246.012C322.29 246.012 321.225 243.351 316 241.125C310.774 238.9 307.532 237.739 307.532 237.739C307.532 237.739 308.129 244.609 313.081 246.94C316.679 248.535 320.404 249.827 324.217 250.802L322.29 246.012Z" fill="#2452B3"/>
<path d="M324.927 268.963C324.927 268.963 324.435 266.132 319.798 262.866C315.161 259.6 312.218 257.77 312.218 257.77C312.218 257.77 311.371 264.616 315.726 267.931C318.908 270.248 322.28 272.292 325.806 274.043L324.927 268.963Z" fill="#2452B3"/>
<path d="M325.951 274.495C325.951 274.495 325.064 271.769 327.644 266.705C330.225 261.64 331.967 258.641 331.967 258.641C331.967 258.641 335.91 264.286 333.579 269.261C331.844 272.792 329.815 276.172 327.515 279.365L325.951 274.495Z" fill="#2452B3"/>
<path d="M333.87 297.284C333.87 297.284 334.192 294.437 338.636 290.905C343.079 287.373 345.893 285.389 345.893 285.389C345.893 285.389 347.135 292.171 342.974 295.735C339.938 298.224 336.701 300.457 333.297 302.412L333.87 297.284Z" fill="#2452B3"/>
<path d="M332.692 290.252C332.692 290.252 332.209 287.43 327.564 284.156C322.919 280.882 319.991 279.067 319.991 279.067C319.991 279.067 319.137 285.905 323.499 289.228C326.682 291.541 330.051 293.585 333.571 295.34L332.692 290.252Z" fill="#2452B3"/>
<path d="M332.636 305.606C332.636 305.606 332.878 302.751 329.217 298.413C325.556 294.074 323.177 291.574 323.177 291.574C323.177 291.574 320.62 297.969 323.983 302.284C326.475 305.33 329.219 308.163 332.184 310.751L332.636 305.606Z" fill="#2452B3"/>
<path d="M310.186 220.949C310.897 223.854 311.766 226.719 312.79 229.529C315.75 237.335 320.564 241.875 323.387 248.883C326.209 255.891 323.387 266.084 326.177 275.253C328.967 284.421 333.555 288.962 333.596 295.413C333.636 301.864 331.096 319.734 331.096 319.734" stroke="#263238" stroke-linecap="round" stroke-linejoin="round"/>
<path d="M312.113 228.247L307.291 225.715" stroke="#263238" stroke-linecap="round" stroke-linejoin="round"/>
<path d="M311.266 224.513L312.5 221.038" stroke="#263238" stroke-linecap="round" stroke-linejoin="round"/>
<path d="M323.096 248.609C323.096 248.609 319.064 246.544 314.927 244.504" stroke="#263238" stroke-linecap="round" stroke-linejoin="round"/>
<path d="M320.346 243.351C321.527 239.604 323.089 235.989 325.007 232.561" stroke="#263238" stroke-linecap="round" stroke-linejoin="round"/>
<path d="M325.483 273.003C322.794 269.607 319.627 266.619 316.08 264.132" stroke="#263238" stroke-linecap="round" stroke-linejoin="round"/>
<path d="M326.862 276.849C327.501 274.112 328.37 271.433 329.459 268.842C331.007 265.406 331.233 264.963 331.233 264.963" stroke="#263238" stroke-linecap="round" stroke-linejoin="round"/>
<path d="M333.378 300.324C333.378 300.324 336.604 296.405 338.563 294.937C339.766 294.05 340.896 293.069 341.942 292.002" stroke="#263238" stroke-linecap="round" stroke-linejoin="round"/>
<path d="M333.596 295.445C332.304 293.356 330.853 291.369 329.257 289.502C327.686 287.786 325.976 286.203 324.145 284.768" stroke="#263238" stroke-linecap="round" stroke-linejoin="round"/>
<path d="M332.192 310.751C332.031 308.572 331.291 306.475 330.047 304.679C328.056 302.066 325.725 298.59 324.773 297.219" stroke="#263238" stroke-linecap="round" stroke-linejoin="round"/>
<path d="M297.88 180.822H218.828V249.44H297.88V180.822Z" stroke="#263238" stroke-linecap="round" stroke-linejoin="round"/>
<path d="M288.364 186.854H228.343C226.931 186.854 225.787 187.998 225.787 189.41V240.843C225.787 242.255 226.931 243.399 228.343 243.399H288.364C289.776 243.399 290.92 242.255 290.92 240.843V189.41C290.92 187.998 289.776 186.854 288.364 186.854Z" stroke="#263238" stroke-linecap="round" stroke-linejoin="round"/>
<path d="M245.729 251.633H271.534C272.991 251.633 274.388 252.212 275.417 253.242C276.447 254.271 277.026 255.668 277.026 257.125V260.415H240.238V257.125C240.238 255.668 240.816 254.271 241.846 253.242C242.876 252.212 244.273 251.633 245.729 251.633V251.633Z" stroke="#263238" stroke-linecap="round" stroke-linejoin="round"/>
<path d="M313.25 293.381H203.796L215.537 260.415H301.509L313.25 293.381Z" stroke="#263238" stroke-linecap="round" stroke-linejoin="round"/>
<path d="M223.158 267.737H217.916L219.255 263.511H224.319L223.158 267.737Z" stroke="#263238" stroke-linecap="round" stroke-linejoin="round"/>
<path d="M231.593 267.737H226.359L227.416 263.511H232.488L231.593 267.737Z" stroke="#263238" stroke-linecap="round" stroke-linejoin="round"/>
<path d="M240.036 267.737H234.802L235.577 263.511H240.649L240.036 267.737Z" stroke="#263238" stroke-linecap="round" stroke-linejoin="round"/>
<path d="M248.479 267.737H243.238L243.746 263.511H248.81L248.479 267.737Z" stroke="#263238" stroke-linecap="round" stroke-linejoin="round"/>
<path d="M256.922 267.737H251.681L251.906 263.511H256.979L256.922 267.737Z" stroke="#263238" stroke-linecap="round" stroke-linejoin="round"/>
<path d="M265.365 267.737H260.124L260.075 263.511H265.139L265.365 267.737Z" stroke="#263238" stroke-linecap="round" stroke-linejoin="round"/>
<path d="M273.808 267.737H268.567L268.236 263.511H273.3L273.808 267.737Z" stroke="#263238" stroke-linecap="round" stroke-linejoin="round"/>
<path d="M282.252 267.737H277.01L276.397 263.511H281.469L282.252 267.737Z" stroke="#263238" stroke-linecap="round" stroke-linejoin="round"/>
<path d="M290.695 267.737H285.453L284.566 263.511H289.63L290.695 267.737Z" stroke="#263238" stroke-linecap="round" stroke-linejoin="round"/>
<path d="M299.13 267.737H293.896L292.727 263.511H297.799L299.13 267.737Z" stroke="#263238" stroke-linecap="round" stroke-linejoin="round"/>
<path d="M221.472 273.834H215.981L217.449 269.205H222.747L221.472 273.834Z" stroke="#263238" stroke-linecap="round" stroke-linejoin="round"/>
<path d="M230.311 273.834H224.827L225.988 269.205H231.286L230.311 273.834Z" stroke="#263238" stroke-linecap="round" stroke-linejoin="round"/>
<path d="M239.157 273.834H233.665L234.528 269.205H239.826L239.157 273.834Z" stroke="#263238" stroke-linecap="round" stroke-linejoin="round"/>
<path d="M248.003 273.834H242.512L243.068 269.205H248.366L248.003 273.834Z" stroke="#263238" stroke-linecap="round" stroke-linejoin="round"/>
<path d="M256.85 273.834H251.358L251.6 269.205H256.906L256.85 273.834Z" stroke="#263238" stroke-linecap="round" stroke-linejoin="round"/>
<path d="M265.688 273.834H260.204L260.14 269.205H265.446L265.688 273.834Z" stroke="#263238" stroke-linecap="round" stroke-linejoin="round"/>
<path d="M274.534 273.834H269.043L268.68 269.205H273.986L274.534 273.834Z" stroke="#263238" stroke-linecap="round" stroke-linejoin="round"/>
<path d="M283.381 273.834H277.889L277.22 269.205H282.526L283.381 273.834Z" stroke="#263238" stroke-linecap="round" stroke-linejoin="round"/>
<path d="M292.219 273.834H286.735L285.759 269.205H291.058L292.219 273.834Z" stroke="#263238" stroke-linecap="round" stroke-linejoin="round"/>
<path d="M301.065 273.834H295.582L294.299 269.205H299.597L301.065 273.834Z" stroke="#263238" stroke-linecap="round" stroke-linejoin="round"/>
<path d="M219.618 280.543H213.852L215.465 275.446H221.021L219.618 280.543Z" stroke="#263238" stroke-linecap="round" stroke-linejoin="round"/>
<path d="M228.9 280.543H223.142L224.416 275.446H229.972L228.9 280.543Z" stroke="#263238" stroke-linecap="round" stroke-linejoin="round"/>
<path d="M238.189 280.543H232.423L233.367 275.446H238.923L238.189 280.543Z" stroke="#263238" stroke-linecap="round" stroke-linejoin="round"/>
<path d="M247.479 280.543H241.713L242.318 275.446H247.874L247.479 280.543Z" stroke="#263238" stroke-linecap="round" stroke-linejoin="round"/>
<path d="M256.761 280.543H250.995L251.269 275.446H256.826L256.761 280.543Z" stroke="#263238" stroke-linecap="round" stroke-linejoin="round"/>
<path d="M266.051 280.543H260.285L260.22 275.446H265.777L266.051 280.543Z" stroke="#263238" stroke-linecap="round" stroke-linejoin="round"/>
<path d="M275.332 280.543H269.575L269.172 275.446H274.728L275.332 280.543Z" stroke="#263238" stroke-linecap="round" stroke-linejoin="round"/>
<path d="M284.622 280.543H278.857L278.123 275.446H283.679L284.622 280.543Z" stroke="#263238" stroke-linecap="round" stroke-linejoin="round"/>
<path d="M293.912 280.543H288.147L287.074 275.446H292.63L293.912 280.543Z" stroke="#263238" stroke-linecap="round" stroke-linejoin="round"/>
<path d="M303.194 280.543H297.428L296.025 275.446H301.581L303.194 280.543Z" stroke="#263238" stroke-linecap="round" stroke-linejoin="round"/>
<path d="M217.569 287.954H211.497L213.287 282.325H219.126L217.569 287.954Z" stroke="#263238" stroke-linecap="round" stroke-linejoin="round"/>
<path d="M227.343 287.954H221.279L222.69 282.325H228.529L227.343 287.954Z" stroke="#263238" stroke-linecap="round" stroke-linejoin="round"/>
<path d="M237.117 287.954H231.053L232.093 282.325H237.931L237.117 287.954Z" stroke="#263238" stroke-linecap="round" stroke-linejoin="round"/>
<path d="M246.899 287.954H240.826L241.496 282.325H247.334L246.899 287.954Z" stroke="#263238" stroke-linecap="round" stroke-linejoin="round"/>
<path d="M256.672 287.954H250.6L250.906 282.325H256.737L256.672 287.954Z" stroke="#263238" stroke-linecap="round" stroke-linejoin="round"/>
<path d="M266.446 287.954H260.374L260.309 282.325H266.148L266.446 287.954Z" stroke="#263238" stroke-linecap="round" stroke-linejoin="round"/>
<path d="M276.22 287.954H270.155L269.712 282.325H275.55L276.22 287.954Z" stroke="#263238" stroke-linecap="round" stroke-linejoin="round"/>
<path d="M285.993 287.954H279.929L279.115 282.325H284.953L285.993 287.954Z" stroke="#263238" stroke-linecap="round" stroke-linejoin="round"/>
<path d="M295.767 287.954H289.703L288.517 282.325H294.356L295.767 287.954Z" stroke="#263238" stroke-linecap="round" stroke-linejoin="round"/>
<path d="M305.549 287.954H299.476L297.92 282.325H303.758L305.549 287.954Z" stroke="#263238" stroke-linecap="round" stroke-linejoin="round"/>
<path d="M313.25 293.381H203.328V319.549H313.25V293.381Z" stroke="#263238" stroke-linecap="round" stroke-linejoin="round"/>
<path d="M175.813 117.116H156.508V149.461H175.813V117.116Z" fill="white" stroke="#263238" stroke-linecap="round" stroke-linejoin="round"/>
<path d="M169.032 117.116H156.508V149.461H169.032V117.116Z" fill="white" stroke="#263238" stroke-linecap="round" stroke-linejoin="round"/>
<path d="M167.475 130.857H157.911V146.042H167.475V130.857Z" fill="#2452B3" stroke="#263238" stroke-linecap="round" stroke-linejoin="round"/>
<path d="M160.847 117.116H141.541V149.461H160.847V117.116Z" fill="white" stroke="#263238" stroke-linecap="round" stroke-linejoin="round"/>
<path d="M154.065 117.116H141.541V149.461H154.065V117.116Z" fill="white" stroke="#263238" stroke-linecap="round" stroke-linejoin="round"/>
<path d="M152.5 130.857H142.944V146.042H152.5V130.857Z" fill="#2452B3" stroke="#263238" stroke-linecap="round" stroke-linejoin="round"/>
<path d="M145.888 117.116H126.582V149.461H145.888V117.116Z" fill="white" stroke="#263238" stroke-linecap="round" stroke-linejoin="round"/>
<path d="M139.106 117.116H126.582V149.461H139.106V117.116Z" fill="white" stroke="#263238" stroke-linecap="round" stroke-linejoin="round"/>
<path d="M137.549 130.857H127.985V146.042H137.549V130.857Z" fill="#2452B3" stroke="#263238" stroke-linecap="round" stroke-linejoin="round"/>
<path d="M84.9311 280.035H65.6256V312.38H84.9311V280.035Z" fill="white" stroke="#263238" stroke-linecap="round" stroke-linejoin="round"/>
<path d="M78.1492 280.035H65.6256V312.38H78.1492V280.035Z" fill="white" stroke="#263238" stroke-linecap="round" stroke-linejoin="round"/>
<path d="M76.5928 293.776H67.0288V308.961H76.5928V293.776Z" fill="#2452B3" stroke="#263238" stroke-linecap="round" stroke-linejoin="round"/>
<path d="M58.8841 280.035H39.5786V312.38H58.8841V280.035Z" fill="white" stroke="#263238" stroke-linecap="round" stroke-linejoin="round"/>
<path d="M52.1022 280.035H39.5786V312.38H52.1022V280.035Z" fill="white" stroke="#263238" stroke-linecap="round" stroke-linejoin="round"/>
<path d="M50.5458 293.776H40.9818V308.961H50.5458V293.776Z" fill="#2452B3" stroke="#263238" stroke-linecap="round" stroke-linejoin="round"/>
<path d="M173.596 280.035H154.291V312.38H173.596V280.035Z" fill="white" stroke="#263238" stroke-linecap="round" stroke-linejoin="round"/>
<path d="M166.814 280.035H154.291V312.38H166.814V280.035Z" fill="white" stroke="#263238" stroke-linecap="round" stroke-linejoin="round"/>
<path d="M165.258 293.776H155.694V308.961H165.258V293.776Z" fill="#2452B3" stroke="#263238" stroke-linecap="round" stroke-linejoin="round"/>
<path d="M147.549 280.035H128.243V312.38H147.549V280.035Z" fill="white" stroke="#263238" stroke-linecap="round" stroke-linejoin="round"/>
<path d="M140.767 280.035H128.243V312.38H140.767V280.035Z" fill="white" stroke="#263238" stroke-linecap="round" stroke-linejoin="round"/>
<path d="M139.211 293.776H129.646V308.961H139.211V293.776Z" fill="#2452B3" stroke="#263238" stroke-linecap="round" stroke-linejoin="round"/>
<path d="M131.477 280.035H112.172V312.38H131.477V280.035Z" fill="white" stroke="#263238" stroke-linecap="round" stroke-linejoin="round"/>
<path d="M124.695 280.035H112.172V312.38H124.695V280.035Z" fill="white" stroke="#263238" stroke-linecap="round" stroke-linejoin="round"/>
<path d="M123.131 293.776H113.575V308.961H123.131V293.776Z" fill="#2452B3" stroke="#263238" stroke-linecap="round" stroke-linejoin="round"/>
<path d="M175.805 211.208H145.42V219.288H175.805V211.208Z" fill="#2452B3" stroke="#263238" stroke-linecap="round" stroke-linejoin="round"/>
<path d="M162.927 211.208H145.42V219.288H162.927V211.208Z" fill="#2452B3" stroke="#263238" stroke-linecap="round" stroke-linejoin="round"/>
<path d="M159.185 211.208H128.8V219.288H159.185V211.208Z" fill="#2452B3" stroke="#263238" stroke-linecap="round" stroke-linejoin="round"/>
<path d="M146.307 211.208H128.8V219.288H146.307V211.208Z" fill="#2452B3" stroke="#263238" stroke-linecap="round" stroke-linejoin="round"/>
<path d="M84.9311 126.97H65.6256V149.453H84.9311V126.97Z" fill="white" stroke="#263238" stroke-linecap="round" stroke-linejoin="round"/>
<path d="M78.1492 126.97H65.6256V149.453H78.1492V126.97Z" fill="white" stroke="#263238" stroke-linecap="round" stroke-linejoin="round"/>
<path d="M76.5928 138.768H67.0288V146.034H76.5928V138.768Z" fill="#2452B3" stroke="#263238" stroke-linecap="round" stroke-linejoin="round"/>
<path d="M30.3372 112.342H39.0303C39.607 112.342 40.178 112.456 40.7104 112.678C41.2428 112.899 41.726 113.224 42.1323 113.633C42.5386 114.043 42.8599 114.528 43.0776 115.062C43.2954 115.596 43.4053 116.168 43.401 116.745V149.493H25.9664V116.745C25.9622 116.168 26.0721 115.596 26.2898 115.062C26.5076 114.528 26.8288 114.043 27.2351 113.633C27.6414 113.224 28.1247 112.899 28.6571 112.678C29.1895 112.456 29.7605 112.342 30.3372 112.342V112.342Z" fill="#2452B3" stroke="#263238" stroke-linecap="round" stroke-linejoin="round"/>
<path d="M38.6189 105.592H31.45V112.342H38.6189V105.592Z" fill="#263238" stroke="#263238" stroke-linecap="round" stroke-linejoin="round"/>
<path d="M38.619 119.656H27.3696V143.84H38.619V119.656Z" fill="white" stroke="#263238" stroke-linecap="round" stroke-linejoin="round"/>
<path d="M30.3372 27.1526H46.5783C47.7375 27.1526 48.8492 27.6131 49.6689 28.4328C50.4885 29.2524 50.949 30.3642 50.949 31.5234V80.3515H25.9503V31.5234C25.9503 30.948 26.0639 30.3784 26.2846 29.847C26.5052 29.3157 26.8286 28.8331 27.2362 28.4271C27.6437 28.021 28.1275 27.6994 28.6596 27.4807C29.1918 27.262 29.7619 27.1505 30.3372 27.1526V27.1526Z" fill="#2452B3" stroke="#263238" stroke-linecap="round" stroke-linejoin="round"/>
<path d="M44.0946 17.4756H33.8209V27.1444H44.0946V17.4756Z" fill="#263238" stroke="#263238" stroke-linecap="round" stroke-linejoin="round"/>
<path d="M44.1026 37.6279H27.9824V72.2874H44.1026V37.6279Z" fill="white" stroke="#263238" stroke-linecap="round" stroke-linejoin="round"/>
<path d="M62.5935 27.1526H78.8427C80.0019 27.1526 81.1136 27.6131 81.9333 28.4328C82.7529 29.2524 83.2134 30.3641 83.2134 31.5233V80.3515H58.2147V31.5233C58.2147 30.9487 58.328 30.3797 58.5482 29.8489C58.7683 29.3181 59.091 28.8359 59.4977 28.4299C59.9045 28.0239 60.3872 27.7022 60.9184 27.483C61.4497 27.2638 62.0189 27.1515 62.5935 27.1526V27.1526Z" fill="#2452B3" stroke="#263238" stroke-linecap="round" stroke-linejoin="round"/>
<path d="M76.3509 17.4756H66.0773V27.1444H76.3509V17.4756Z" fill="#263238" stroke="#263238" stroke-linecap="round" stroke-linejoin="round"/>
<path d="M76.359 37.6279H60.2389V72.2874H76.359V37.6279Z" fill="white" stroke="#263238" stroke-linecap="round" stroke-linejoin="round"/>
<path d="M30.3372 182.169H39.0303C40.1895 182.169 41.3012 182.629 42.1209 183.449C42.9405 184.269 43.401 185.38 43.401 186.539V219.288H25.9664V186.539C25.9664 185.38 26.4269 184.269 27.2466 183.449C28.0663 182.629 29.178 182.169 30.3372 182.169V182.169Z" fill="#2452B3" stroke="#263238" stroke-linecap="round" stroke-linejoin="round"/>
<path d="M38.6189 175.419H31.45V182.169H38.6189V175.419Z" fill="#263238" stroke="#263238" stroke-linecap="round" stroke-linejoin="round"/>
<path d="M38.619 189.475H27.3696V213.659H38.619V189.475Z" fill="white" stroke="#263238" stroke-linecap="round" stroke-linejoin="round"/>
<path d="M111.244 182.169H119.937C121.097 182.169 122.208 182.629 123.028 183.449C123.848 184.269 124.308 185.38 124.308 186.539V219.288H106.874V186.539C106.874 185.965 106.987 185.397 107.206 184.867C107.426 184.337 107.748 183.855 108.154 183.449C108.56 183.043 109.041 182.721 109.572 182.501C110.102 182.282 110.67 182.169 111.244 182.169V182.169Z" fill="#2452B3" stroke="#263238" stroke-linecap="round" stroke-linejoin="round"/>
<path d="M119.526 175.419H112.357V182.169H119.526V175.419Z" fill="#263238" stroke="#263238" stroke-linecap="round" stroke-linejoin="round"/>
<path d="M119.526 189.475H108.277V213.659H119.526V189.475Z" fill="white" stroke="#263238" stroke-linecap="round" stroke-linejoin="round"/>
<path d="M51.9489 182.169H60.642C61.8012 182.169 62.9129 182.629 63.7325 183.449C64.5522 184.269 65.0127 185.38 65.0127 186.539V219.288H47.5781V186.539C47.5781 185.38 48.0386 184.269 48.8583 183.449C49.678 182.629 50.7897 182.169 51.9489 182.169V182.169Z" fill="#2452B3" stroke="#263238" stroke-linecap="round" stroke-linejoin="round"/>
<path d="M60.2308 175.419H53.0618V182.169H60.2308V175.419Z" fill="#263238" stroke="#263238" stroke-linecap="round" stroke-linejoin="round"/>
<path d="M60.2307 189.475H48.9813V213.659H60.2307V189.475Z" fill="white" stroke="#263238" stroke-linecap="round" stroke-linejoin="round"/>
<path d="M50.9006 125.277H59.5533C60.7125 125.277 61.8242 125.737 62.6439 126.557C63.4636 127.376 63.9241 128.488 63.9241 129.647V149.461H46.4895V129.647C46.4895 129.07 46.6039 128.498 46.826 127.965C47.0482 127.432 47.3737 126.949 47.7839 126.542C48.194 126.136 48.6806 125.815 49.2156 125.598C49.7505 125.38 50.3232 125.271 50.9006 125.277V125.277Z" fill="#2452B3" stroke="#263238" stroke-linecap="round" stroke-linejoin="round"/>
<path d="M59.1421 118.527H51.9731V125.277H59.1421V118.527Z" fill="#263238" stroke="#263238" stroke-linecap="round" stroke-linejoin="round"/>
<path d="M59.1421 132.591H47.8927V143.84H59.1421V132.591Z" fill="white" stroke="#263238" stroke-linecap="round" stroke-linejoin="round"/>
<path d="M188.934 80.2144H11.9106V319.96H188.934V80.2144Z" stroke="#263238" stroke-linecap="round" stroke-linejoin="round"/>
<path d="M183.87 87.0769H16.9669V313.106H183.87V87.0769Z" stroke="#263238" stroke-linecap="round" stroke-linejoin="round"/>
<path d="M102.882 87.0769H97.9628V313.106H102.882V87.0769Z" stroke="#263238" stroke-linecap="round" stroke-linejoin="round"/>
<path d="M129.784 108.85L126.985 111.156" stroke="#263238" stroke-linecap="round" stroke-linejoin="round"/>
<path d="M156.234 87.0366L133.558 105.737" stroke="#263238" stroke-linecap="round" stroke-linejoin="round"/>
<path d="M163.621 87.0366L148.912 99.165" stroke="#263238" stroke-linecap="round" stroke-linejoin="round"/>
<path d="M59.3841 108.85L56.5858 111.156" stroke="#263238" stroke-linecap="round" stroke-linejoin="round"/>
<path d="M85.8423 87.0366L63.158 105.737" stroke="#263238" stroke-linecap="round" stroke-linejoin="round"/>
<path d="M93.221 87.0366L78.5121 99.165" stroke="#263238" stroke-linecap="round" stroke-linejoin="round"/>
<path d="M129.784 177.669L126.985 179.967" stroke="#263238" stroke-linecap="round" stroke-linejoin="round"/>
<path d="M156.234 155.847L133.558 174.548" stroke="#263238" stroke-linecap="round" stroke-linejoin="round"/>
<path d="M163.621 155.847L148.912 167.976" stroke="#263238" stroke-linecap="round" stroke-linejoin="round"/>
<path d="M59.3841 177.669L56.5858 179.967" stroke="#263238" stroke-linecap="round" stroke-linejoin="round"/>
<path d="M85.8423 155.847L63.158 174.548" stroke="#263238" stroke-linecap="round" stroke-linejoin="round"/>
<path d="M93.221 155.847L78.5121 167.976" stroke="#263238" stroke-linecap="round" stroke-linejoin="round"/>
<path d="M129.784 246.48L126.985 248.786" stroke="#263238" stroke-linecap="round" stroke-linejoin="round"/>
<path d="M156.234 224.667L133.558 243.367" stroke="#263238" stroke-linecap="round" stroke-linejoin="round"/>
<path d="M163.621 224.667L148.912 236.795" stroke="#263238" stroke-linecap="round" stroke-linejoin="round"/>
<path d="M34.0708 269.334L31.2726 271.64" stroke="#263238" stroke-linecap="round" stroke-linejoin="round"/>
<path d="M60.5292 247.52L37.8448 266.221" stroke="#263238" stroke-linecap="round" stroke-linejoin="round"/>
<path d="M67.9078 247.52L53.1989 259.641" stroke="#263238" stroke-linecap="round" stroke-linejoin="round"/>
<path d="M184.345 150.251H103.438" stroke="#263238" stroke-linecap="round" stroke-linejoin="round"/>
<path d="M97.8982 150.251H16.9911" stroke="#263238" stroke-linecap="round" stroke-linejoin="round"/>
<path d="M184.345 220.07H103.438" stroke="#263238" stroke-linecap="round" stroke-linejoin="round"/>
<path d="M97.8982 220.07H16.9911" stroke="#263238" stroke-linecap="round" stroke-linejoin="round"/>
<path d="M1 319.944H363.788" stroke="#263238" stroke-linecap="round" stroke-linejoin="round"/>
<path d="M122.84 114.495C122.84 114.495 100.455 128.414 91.076 132.954C81.6975 137.494 69.5932 149.292 69.3029 152.929C69.0126 156.565 82.6006 319.96 82.6006 319.96H215.408L208.747 164.436L217.521 161.412C217.521 161.412 198.474 131.139 192.74 129.018C187.007 126.898 162.177 114.801 154.613 113.592C147.049 112.382 122.84 114.495 122.84 114.495Z" fill="#2452B3" stroke="#263238" stroke-linecap="round" stroke-linejoin="round"/>
<path d="M244.576 206.321C244.576 206.321 249.729 205.7 248.697 211.054C247.665 216.409 247.084 220.522 243.552 221.352C240.02 222.183 238.609 220.32 239.633 215.998C240.657 211.675 241.899 206.111 244.576 206.321Z" fill="#2452B3" stroke="#263238" stroke-linecap="round" stroke-linejoin="round"/>
<path d="M241.375 202.127C241.375 202.127 246.52 201.507 245.487 206.861C244.455 212.216 243.875 216.336 240.342 217.159C236.81 217.981 235.399 216.127 236.431 211.804C237.464 207.482 238.697 201.918 241.375 202.127Z" fill="#2452B3" stroke="#263238" stroke-linecap="round" stroke-linejoin="round"/>
<path d="M236.786 197.386C236.786 197.386 242.955 196.644 241.721 203.031C240.488 209.418 239.746 214.377 235.552 215.361C231.359 216.345 229.633 214.127 230.867 208.95C232.101 203.773 233.585 197.176 236.786 197.386Z" fill="#2452B3" stroke="#263238" stroke-linecap="round" stroke-linejoin="round"/>
<path d="M231.859 194.967C231.859 194.967 238.02 194.233 236.786 200.611C235.552 206.99 234.818 211.95 230.625 212.941C226.432 213.933 224.706 211.708 225.94 206.49C227.174 201.273 228.649 194.709 231.859 194.967Z" fill="#2452B3" stroke="#263238" stroke-linecap="round" stroke-linejoin="round"/>
<path d="M109.833 275.196L112.26 271.64" stroke="#263238" stroke-linecap="round" stroke-linejoin="round"/>
<path d="M85.2618 311.219L107.003 279.349" stroke="#263238" stroke-linecap="round" stroke-linejoin="round"/>
<path d="M86.0037 295.316L96.358 281.632" stroke="#263238" stroke-linecap="round" stroke-linejoin="round"/>
<path d="M151.533 312.444L169.959 290.502" stroke="#263238" stroke-linecap="round" stroke-linejoin="round"/>
<path d="M146.662 318.242L148.186 316.436" stroke="#263238" stroke-linecap="round" stroke-linejoin="round"/>
<path d="M171.152 261.366C171.152 261.366 176.209 303.114 176.846 308.493C177.483 313.872 176.846 314.186 176.523 315.138C176.201 316.089 169.886 319.88 171.467 322.396C173.048 324.912 176.523 323.347 176.523 323.347C177.696 324.294 179.132 324.857 180.636 324.96C182.853 324.96 183.482 324.008 183.482 324.008C184.29 324.605 185.214 325.026 186.195 325.244C187.176 325.462 188.191 325.473 189.176 325.274C192.659 324.637 196.135 319.581 196.135 319.581C196.135 319.581 199.619 319.267 200.248 316.42C200.613 314.861 200.824 313.27 200.877 311.67C200.877 311.67 203.409 313.888 203.723 310.727C203.903 308.311 203.903 305.885 203.723 303.469C203.723 303.469 204.989 304.098 204.36 298.405C203.731 292.712 202.465 286.067 202.465 286.067C202.465 286.067 204.078 283.543 202.78 278.164C201.482 272.785 193.288 253.496 193.288 253.496" fill="white"/>
<path d="M171.152 261.366C171.152 261.366 176.209 303.114 176.846 308.493C177.483 313.872 176.846 314.186 176.523 315.138C176.201 316.089 169.886 319.88 171.467 322.396C173.048 324.912 176.523 323.347 176.523 323.347C177.696 324.294 179.132 324.857 180.636 324.96C182.853 324.96 183.482 324.008 183.482 324.008C184.29 324.605 185.214 325.026 186.195 325.244C187.176 325.462 188.191 325.473 189.176 325.274C192.659 324.637 196.135 319.581 196.135 319.581C196.135 319.581 199.619 319.267 200.248 316.42C200.613 314.861 200.824 313.27 200.877 311.67C200.877 311.67 203.409 313.888 203.723 310.727C203.903 308.311 203.903 305.885 203.723 303.469C203.723 303.469 204.989 304.098 204.36 298.405C203.731 292.712 202.465 286.067 202.465 286.067C202.465 286.067 204.078 283.543 202.78 278.164C201.482 272.785 193.288 253.496 193.288 253.496" stroke="#263238" stroke-linecap="round" stroke-linejoin="round"/>
<path d="M181.337 273.447C181.337 273.447 186.894 281.446 192.224 284.115C195.104 285.617 198.167 286.736 201.336 287.446V280.116C201.336 280.116 188.45 279.228 181.337 273.447Z" fill="#263238" stroke="#263238" stroke-miterlimit="10"/>
<path d="M180.733 312.638C180.733 312.638 179.717 315.162 182.249 315.67C184.781 316.178 185.789 314.912 185.789 314.912C185.789 314.912 187.055 317.186 189.079 316.428C191.103 315.67 191.353 314.912 191.353 314.912C191.786 315.544 192.419 316.013 193.15 316.243C193.881 316.472 194.668 316.449 195.385 316.178C197.909 315.162 197.909 313.396 197.909 313.396" stroke="#263238" stroke-miterlimit="10"/>
<path d="M176.523 323.363C176.523 323.363 175.265 320.831 178.426 318.928Z" fill="white"/>
<path d="M176.523 323.363C176.523 323.363 175.265 320.831 178.426 318.928" stroke="#263238" stroke-linecap="round" stroke-linejoin="round"/>
<path d="M183.483 323.992C183.548 323.072 183.882 322.192 184.445 321.46C185.007 320.729 185.771 320.179 186.644 319.88" fill="white"/>
<path d="M183.483 323.992C183.548 323.072 183.882 322.192 184.445 321.46C185.007 320.729 185.771 320.179 186.644 319.88" stroke="#263238" stroke-linecap="round" stroke-linejoin="round"/>
<path d="M281.316 300.251C281.316 300.251 290.993 314.251 297.735 314.767C304.476 315.283 306.186 313.315 308.113 313.315C310.04 313.315 310.048 314.767 308.355 317.662C306.662 320.557 301.597 324.186 297.493 325.145C293.388 326.105 286.622 324.186 286.622 324.186C286.622 324.186 289.525 326.113 286.622 326.605C283.719 327.097 278.179 323.468 278.179 323.468C278.179 323.468 279.381 326.605 276.486 324.92C274.492 323.592 272.854 321.794 271.718 319.685C270.582 317.575 269.982 315.219 269.97 312.823" fill="white"/>
<path d="M281.316 300.251C281.316 300.251 290.993 314.251 297.735 314.767C304.476 315.283 306.186 313.315 308.113 313.315C310.04 313.315 310.048 314.767 308.355 317.662C306.662 320.557 301.597 324.186 297.493 325.145C293.388 326.105 286.622 324.186 286.622 324.186C286.622 324.186 289.525 326.113 286.622 326.605C283.719 327.097 278.179 323.468 278.179 323.468C278.179 323.468 279.381 326.605 276.486 324.92C274.492 323.592 272.854 321.794 271.718 319.685C270.582 317.575 269.982 315.219 269.97 312.823" stroke="#263238" stroke-linecap="round" stroke-linejoin="round"/>
<path d="M170.919 210.442C170.919 210.442 162.048 223.731 161.427 236.698C160.806 249.665 165.862 250.932 165.862 250.932C165.862 250.932 168.072 260.1 171.233 264.528C174.394 268.955 175.983 266.431 175.983 266.431C178.322 270.303 181.445 273.643 185.152 276.237C191.159 280.341 201.602 281.93 201.602 281.93L219.819 310.283C221.893 313.516 224.747 316.176 228.117 318.018C231.488 319.859 235.268 320.824 239.109 320.823H274.026C274.026 320.823 289.211 315.13 280.985 280.97C272.76 246.811 256.317 227.513 237.657 215.812C225.561 208.224 216.15 209.49 216.15 209.49L170.919 210.442Z" fill="white" stroke="#263238" stroke-linecap="round" stroke-linejoin="round"/>
<path d="M240.996 270.043C240.996 270.043 229.787 274.527 224.456 279.293C219.126 284.059 227.133 288.163 227.133 288.163L240.996 270.043Z" fill="#263238" stroke="#263238" stroke-miterlimit="10"/>
<path d="M197.562 269.447L197.111 281.003L202.449 282.559L197.562 269.447Z" fill="#263238" stroke="#263238" stroke-miterlimit="10"/>
<path d="M193.377 152.227L182.942 151.904C182.942 151.904 177.564 139.889 174.402 140.203C171.241 140.518 167.758 152.541 167.758 155.074C167.752 156.659 167.647 158.243 167.443 159.815C167.443 159.815 162.379 162.347 158.903 169.936C155.428 177.524 157.637 179.105 157.637 179.105C156.562 180.969 155.812 183.004 155.42 185.12C154.791 188.596 158.266 189.233 158.266 189.233C158.266 189.233 153.524 196.821 155.105 199.668C156.686 202.515 159.847 200.612 159.847 200.612C159.847 200.612 160.484 207.869 162.064 209.151C163.645 210.434 167.758 208.514 167.758 208.514C167.758 208.514 175.983 216.74 177.878 218.353C179.773 219.965 182.62 217.715 182.62 217.715C184.86 219.143 187.308 220.212 189.877 220.885C198.898 222.986 208.378 221.631 216.449 217.086C221.513 214.24 224.674 207.918 224.674 207.918C224.674 207.918 227.206 212.03 228.15 208.861C229.093 205.692 229.416 199.378 229.416 199.378C229.416 199.378 232.262 200.007 232.262 197.475C232.262 194.942 231.633 185.459 231.633 185.459C231.633 185.459 232.899 185.459 232.899 181.975C232.899 178.492 230.996 173.105 230.996 173.105C230.996 173.105 234.157 152.864 230.996 152.864C227.835 152.864 219.932 158.557 219.932 158.557C219.932 158.557 218.666 155.082 217.715 155.082C216.763 155.082 220.561 153.178 218.981 152.235C217.4 151.291 211.392 152.549 211.392 152.549C211.392 152.549 211.707 146.856 209.78 148.751L206.933 151.598C206.933 151.598 204.723 144.953 202.828 146.219C200.933 147.485 200.925 150.646 200.925 150.646C200.925 150.646 195.232 148.437 195.232 150.332C195.237 150.579 195.193 150.824 195.103 151.054C195.012 151.284 194.876 151.493 194.703 151.669C194.53 151.846 194.324 151.986 194.096 152.082C193.869 152.178 193.624 152.227 193.377 152.227V152.227Z" fill="white" stroke="#263238" stroke-linecap="round" stroke-linejoin="round"/>
<path d="M165.596 195.596C165.064 197.7 164.661 199.934 165.193 200.434C166.249 201.499 168.733 200.789 168.733 200.789C168.733 200.789 168.378 203.628 170.499 204.684C171.166 204.988 171.891 205.146 172.624 205.146C173.357 205.146 174.082 204.988 174.749 204.684" stroke="#263238" stroke-linecap="round" stroke-linejoin="round"/>
<path d="M166.798 191.515C166.798 191.515 166.508 192.394 166.145 193.604" stroke="#263238" stroke-linecap="round" stroke-linejoin="round"/>
<path d="M182.031 154.041C182.031 154.041 176.733 142.381 174.878 143.171C173.023 143.961 171.959 147.679 171.435 151.654C171.092 153.86 171.182 156.112 171.701 158.283L174.346 156.162C174.346 156.162 173.29 154.041 174.346 154.041C175.082 154.074 175.803 154.255 176.467 154.574C176.467 154.574 176.467 149.267 177.273 150.864C177.778 151.895 178.22 152.956 178.596 154.041H182.031Z" fill="#BABABA" stroke="#263238" stroke-linecap="round" stroke-linejoin="round"/>
<path d="M221.529 159.339C221.529 159.339 229.746 151.92 231.069 154.84C232.391 157.759 230.012 171.008 230.012 171.008L227.892 166.5C227.892 166.5 228.424 163.315 227.625 163.315H225.771C225.771 163.315 226.037 161.194 224.964 161.194H222.843L221.529 159.339Z" fill="#BABABA" stroke="#263238" stroke-linecap="round" stroke-linejoin="round"/>
<path d="M203.586 175.613C203.586 175.613 193.466 173.71 185.555 178.459C177.644 183.209 175.088 189.878 177.015 189.556L178.918 189.241C178.918 189.241 175.749 192.088 176.386 194.305C176.551 194.912 176.93 195.439 177.453 195.788C177.977 196.136 178.609 196.283 179.233 196.2C179.233 196.2 178.281 200.942 178.596 201.894C178.91 202.845 181.128 202.523 181.128 202.523C184.511 208.422 189.899 212.912 196.313 215.175C207.062 218.973 215.602 212.329 217.505 210.748C219.408 209.167 220.666 206.006 220.666 206.006C220.666 206.006 222.279 208.538 223.198 206.006C223.79 204.273 224.108 202.459 224.142 200.628C224.142 200.628 226.988 201.579 226.674 199.676C226.359 197.773 224.142 192.088 224.142 192.088C224.142 192.088 226.988 192.725 222.884 187.346C218.779 181.967 216.868 175.959 203.586 175.613Z" fill="#263238" stroke="#263238" stroke-linecap="round" stroke-linejoin="round"/>
<path d="M203.812 175.024C203.812 175.024 193.692 173.121 185.789 177.871C177.886 182.62 175.305 189.257 177.249 188.935L179.144 188.62C179.144 188.62 175.983 191.467 176.612 193.684C176.776 194.291 177.156 194.818 177.679 195.167C178.203 195.515 178.835 195.662 179.458 195.58C179.458 195.58 178.507 200.321 178.829 201.273C179.152 202.224 181.354 201.902 181.354 201.902C184.74 207.799 190.127 212.288 196.538 214.554C207.296 218.353 215.836 211.708 217.731 210.127C219.626 208.547 220.892 205.385 220.892 205.385C220.892 205.385 222.505 207.918 223.424 205.385C224.021 203.653 224.342 201.838 224.376 200.007C224.376 200.007 227.222 200.958 226.9 199.055C226.577 197.152 224.376 191.467 224.376 191.467C224.376 191.467 227.222 192.104 223.109 186.725C218.997 181.346 217.102 175.339 203.812 175.024Z" fill="white" stroke="#263238" stroke-linecap="round" stroke-linejoin="round"/>
<path d="M212.352 177.548C212.352 177.548 205.393 172.807 200.336 175.024C195.28 177.242 199.385 184.483 205.078 186.096C210.771 187.709 217.731 181.032 212.352 177.548Z" fill="#263238" stroke="#263238" stroke-linecap="round" stroke-linejoin="round"/>
<path d="M193.377 184.483C193.377 184.483 194.99 187.967 202.869 189.862C210.747 191.757 215.199 188.249 215.199 188.249" stroke="#263238" stroke-linecap="round" stroke-linejoin="round"/>
<path d="M179.773 159.525C179.773 159.525 172.814 168.065 174.08 169.331C175.346 170.597 179.144 169.008 179.144 169.008C179.144 169.008 175.983 174.702 179.144 175.968C182.305 177.234 189.579 172.177 189.579 172.177C189.579 172.177 189.579 175.968 192.74 175.024C194.985 174.261 197.114 173.194 199.07 171.855C199.07 171.855 200.336 175.024 202.546 174.073C204.756 173.121 206.659 168.694 206.659 168.694C206.659 168.694 209.191 175.951 210.771 175.339L212.384 174.702C212.384 174.702 216.497 179.451 219.029 178.5C219.747 178.235 220.37 177.763 220.821 177.145C221.271 176.526 221.529 175.789 221.561 175.024C221.561 175.024 225.037 175.653 225.351 172.806C225.666 169.96 224.408 164.267 220.61 160.468" fill="white"/>
<path d="M179.773 159.525C179.773 159.525 172.814 168.065 174.08 169.331C175.346 170.597 179.144 169.008 179.144 169.008C179.144 169.008 175.983 174.702 179.144 175.968C182.305 177.234 189.579 172.177 189.579 172.177C189.579 172.177 189.579 175.968 192.74 175.024C194.985 174.261 197.114 173.194 199.07 171.855C199.07 171.855 200.336 175.024 202.546 174.073C204.756 173.121 206.659 168.694 206.659 168.694C206.659 168.694 209.191 175.951 210.771 175.339L212.384 174.702C212.384 174.702 216.497 179.451 219.029 178.5C219.747 178.235 220.37 177.763 220.821 177.145C221.271 176.526 221.529 175.789 221.561 175.024C221.561 175.024 225.037 175.653 225.351 172.806C225.666 169.96 224.408 164.267 220.61 160.468" stroke="#263238" stroke-linecap="round" stroke-linejoin="round"/>
<path d="M196.861 261.536C196.861 261.536 201.925 304.195 202.554 309.687C203.183 315.178 202.554 315.509 202.24 316.476C201.925 317.444 195.595 321.315 197.183 323.912C198.772 326.508 202.24 324.879 202.24 324.879C203.41 325.831 204.847 326.395 206.352 326.492C208.57 326.492 209.199 325.524 209.199 325.524C210.002 326.132 210.925 326.561 211.906 326.784C212.888 327.006 213.906 327.017 214.892 326.815C218.368 326.17 221.851 321 221.851 321C221.851 321 225.327 320.678 225.964 317.775C226.329 316.186 226.54 314.566 226.593 312.936C226.593 312.936 229.125 315.202 229.44 311.969C229.616 309.493 229.616 307.009 229.44 304.534C229.44 304.534 230.706 305.179 230.077 299.364C229.448 293.55 228.174 286.76 228.174 286.76C228.174 286.76 229.787 284.18 228.488 278.696C227.19 273.213 219.005 253.496 219.005 253.496" fill="white"/>
<path d="M196.861 261.536C196.861 261.536 201.925 304.195 202.554 309.687C203.183 315.178 202.554 315.509 202.24 316.476C201.925 317.444 195.595 321.315 197.183 323.912C198.772 326.508 202.24 324.879 202.24 324.879C203.41 325.831 204.847 326.395 206.352 326.492C208.57 326.492 209.199 325.524 209.199 325.524C210.002 326.132 210.925 326.561 211.906 326.784C212.888 327.006 213.906 327.017 214.892 326.815C218.368 326.17 221.851 321 221.851 321C221.851 321 225.327 320.678 225.964 317.775C226.329 316.186 226.54 314.566 226.593 312.936C226.593 312.936 229.125 315.202 229.44 311.969C229.616 309.493 229.616 307.009 229.44 304.534C229.44 304.534 230.706 305.179 230.077 299.364C229.448 293.55 228.174 286.76 228.174 286.76C228.174 286.76 229.787 284.18 228.488 278.696C227.19 273.213 219.005 253.496 219.005 253.496" stroke="#263238" stroke-linecap="round" stroke-linejoin="round"/>
<path d="M205.546 314.404C205.546 314.404 204.788 316.686 206.812 316.686C208.136 316.615 209.391 316.075 210.352 315.162C210.352 315.162 209.594 317.694 213.134 317.444C216.674 317.194 218.19 316.178 218.19 316.178C218.19 316.178 217.432 318.202 219.456 318.202C221.481 318.202 223.755 315.42 223.755 315.42" stroke="#263238" stroke-miterlimit="10"/>
<path d="M202.232 324.879C202.232 324.879 200.965 322.291 204.127 320.355Z" fill="white"/>
<path d="M202.232 324.879C202.232 324.879 200.965 322.291 204.127 320.355" stroke="#263238" stroke-linecap="round" stroke-linejoin="round"/>
<path d="M209.191 325.524C209.257 324.594 209.59 323.702 210.151 322.957C210.712 322.211 211.476 321.644 212.352 321.323" fill="white"/>
<path d="M209.191 325.524C209.257 324.594 209.59 323.702 210.151 322.957C210.712 322.211 211.476 321.644 212.352 321.323" stroke="#263238" stroke-linecap="round" stroke-linejoin="round"/>
<path d="M240.996 319.299C240.996 319.299 235.923 321.952 238.334 325.097C240.746 328.242 244.858 325.581 244.858 325.581C246.396 327.116 248.476 327.985 250.648 328C254.269 328 255.237 326.065 255.237 326.065C255.237 326.065 256.446 328.484 260.793 327.516C265.139 326.549 266.099 321.242 266.099 321.242L240.996 319.299Z" fill="white" stroke="#263238" stroke-linecap="round" stroke-linejoin="round"/>
<path d="M246.302 266.665C246.302 266.665 224.577 277.527 222.916 292.744C221.255 307.961 233.778 319.541 246.576 322.194C259.374 324.847 269.526 330.008 279.639 318.331C287.001 309.856 286.896 295.397 281.816 282.849C281.816 282.849 279.881 277.535 276.502 274.64" fill="white"/>
<path d="M246.302 266.665C246.302 266.665 224.577 277.527 222.916 292.744C221.255 307.961 233.778 319.541 246.576 322.194C259.374 324.847 269.526 330.008 279.639 318.331C287.001 309.856 286.896 295.397 281.816 282.849C281.816 282.849 279.881 277.535 276.502 274.64" stroke="#263238" stroke-linecap="round" stroke-linejoin="round"/>
<path d="M240.044 310.412C241.657 310.203 241.963 309.348 241.963 309.348" stroke="#263238" stroke-miterlimit="10"/>
<path d="M230.835 286.091C230.835 286.091 226.037 289.381 226.803 293.929C227.569 298.478 230.085 294.937 230.085 294.937C230.085 294.937 226.263 301.719 229.44 304.526C232.617 307.332 233.125 304.3 233.125 304.3C233.125 304.3 234.383 309.864 237.964 310.372" stroke="#263238" stroke-miterlimit="10"/>
<path d="M146.267 176.137C146.267 176.137 144.21 254.512 150.815 264.673C154.758 270.737 162.911 272.858 165.669 253.754" stroke="#263238" stroke-width="3" stroke-linecap="round" stroke-linejoin="round"/>
<path d="M118.639 114.197C118.639 114.197 122.873 137.494 131.042 148.066C139.211 158.638 143.452 161.686 146.476 158.96C149.5 156.235 153.734 143.227 155.25 133.542C156.766 123.857 157.976 111.769 157.976 111.769L118.639 114.197Z" fill="#BABABA" stroke="#263238" stroke-linecap="round" stroke-linejoin="round"/>
<path d="M161.121 78.8435C161.121 78.8435 165.959 75.8114 167.491 80.0531C169.024 84.2949 166.282 93.0928 163.855 95.5201C161.427 97.9474 160.516 95.8185 160.516 95.8185L161.121 78.8435Z" fill="#BABABA" stroke="#263238" stroke-linecap="round" stroke-linejoin="round"/>
<path d="M107.107 85.4481C107.107 85.4481 104.083 77.5856 101.059 82.7305C98.0353 87.8754 101.358 98.4635 103.479 100.883C105.599 103.302 109.833 102.697 109.833 102.697C109.833 102.697 118.3 115.406 123.478 122.39C128.655 129.373 134.372 132.978 144.355 131.768C154.339 130.559 160.089 120.874 160.089 113.616C160.089 106.358 164.927 94.8589 162.814 83.0531C160.701 71.2472 162.508 71.8601 160.693 59.4575C158.879 47.0549 159.79 38.8779 155.25 35.2652C150.71 31.6525 131.614 31.2654 118.639 35.8297C105.664 40.394 101.704 42.789 101.39 49.1435C101.075 55.498 107.107 85.4481 107.107 85.4481Z" fill="#BABABA" stroke="#263238" stroke-linecap="round" stroke-linejoin="round"/>
<path d="M130.993 91.335C129.494 93.671 127.348 95.5203 124.816 96.6573" stroke="#263238" stroke-linecap="round" stroke-linejoin="round"/>
<path d="M147.186 90.48C149.08 92.535 151.663 93.8234 154.444 94.1008" stroke="#263238" stroke-linecap="round" stroke-linejoin="round"/>
<path d="M161.83 76.3035C161.33 70.7715 162.04 68.8442 160.661 59.4334C158.847 47.0228 159.758 38.8538 155.218 35.2411C150.678 31.6284 131.614 31.2655 118.639 35.8298C105.664 40.3941 101.704 42.7891 101.39 49.1436C101.132 54.5788 105.519 77.247 106.793 83.7144L107.14 84.2386C107.14 84.2386 107.744 89.6899 108.656 91.1979C109.567 92.7059 111.986 93.0123 111.986 89.9883C111.986 86.9643 109.261 78.4889 110.769 75.1665C112.276 71.8441 110.47 66.0863 112.889 60.9414C115.309 55.7965 124.986 57.0142 130.437 59.127C135.888 61.2398 137.098 61.8527 142.533 59.127C147.968 56.4013 150.089 52.7725 154.928 54.8933C159.766 57.0142 159.468 61.5462 160.072 66.9895C160.572 71.8763 160.903 73.602 161.83 76.3035Z" fill="#263238" stroke="#263238" stroke-linecap="round" stroke-linejoin="round"/>
<path d="M158.242 104.213C156.734 100.278 146.146 99.3748 143.727 99.3748C141.307 99.3748 135.574 100.617 135.574 100.617C135.574 100.617 120.147 103.649 120.147 106.366C120.147 108.931 121.22 115.237 122.099 120.519C122.574 121.18 123.034 121.817 123.47 122.406C128.614 129.365 134.364 132.994 144.347 131.784C151.21 130.978 156.073 126.139 158.444 120.825L158.573 119.382C158.573 119.382 159.766 108.148 158.242 104.213ZM154.613 113.592C153.403 119.64 150.379 123.882 147.355 122.672C144.331 121.462 145.541 118.132 145.541 118.132L138.283 118.737V121.454C138.283 123.277 137.372 123.575 134.654 123.277C131.937 122.978 128.598 119.946 127.993 117.825C127.389 115.705 126.485 108.753 127.09 107.536C127.695 106.318 140.098 103.608 140.098 103.608L152.807 103.907C152.807 103.907 155.823 107.536 154.613 113.592Z" fill="#263238" stroke="#263238" stroke-linecap="round" stroke-linejoin="round"/>
<path d="M142.831 86.9641L143.13 90.8994C143.13 90.8994 145.855 91.8026 145.251 96.9475C144.646 102.092 141.017 103.608 137.082 102.092C133.146 100.576 134.356 97.5523 134.356 97.5523" fill="#BABABA"/>
<path d="M142.831 86.9641L143.13 90.8994C143.13 90.8994 145.855 91.8026 145.251 96.9475C144.646 102.092 141.017 103.608 137.082 102.092C133.146 100.576 134.356 97.5523 134.356 97.5523" stroke="#263238" stroke-linecap="round" stroke-linejoin="round"/>
<path d="M127.082 90.593C127.92 90.593 128.598 89.3076 128.598 87.7221C128.598 86.1366 127.92 84.8513 127.082 84.8513C126.245 84.8513 125.566 86.1366 125.566 87.7221C125.566 89.3076 126.245 90.593 127.082 90.593Z" fill="#263238"/>
<path d="M152.799 86.1013C152.799 87.7141 152.121 88.9721 151.283 88.9721C150.444 88.9721 149.775 87.6819 149.775 86.1013C149.775 84.5207 150.452 83.2224 151.283 83.2224C152.113 83.2224 152.799 84.4885 152.799 86.1013Z" fill="#263238"/>
<path d="M130.735 107.536C130.735 107.536 140.412 112.374 151.307 105.423" stroke="#263238" stroke-linecap="round" stroke-linejoin="round"/>
<path d="M132.525 80.6098C132.525 80.6098 124.357 78.1905 119.518 81.8194" stroke="#263238" stroke-width="3" stroke-linecap="round" stroke-linejoin="round"/>
<path d="M144.323 79.1018C144.323 79.1018 149.468 74.8601 156.734 78.1906" stroke="#263238" stroke-width="3" stroke-linecap="round" stroke-linejoin="round"/>
<path d="M162.185 143.356C162.033 143.354 161.883 143.324 161.742 143.268C161.444 143.151 161.204 142.92 161.076 142.627C160.947 142.334 160.94 142.002 161.056 141.703C163.258 136.022 165.127 130.216 166.653 124.317C174.959 92.7381 173.16 91.1818 172.193 90.3431C172.061 90.2368 171.934 90.1237 171.814 90.0044C170.782 88.9641 167.878 88.1174 166.975 87.8997C166.814 87.8714 166.659 87.8105 166.522 87.7207C166.384 87.6308 166.267 87.514 166.176 87.3772C166.085 87.2404 166.023 87.0865 165.994 86.925C165.964 86.7635 165.968 86.5977 166.005 86.4376C166.041 86.2776 166.11 86.1267 166.207 85.9942C166.304 85.8617 166.427 85.7502 166.568 85.6667C166.71 85.5832 166.867 85.5293 167.029 85.5084C167.192 85.4875 167.358 85.4999 167.516 85.545C167.959 85.6498 171.846 86.5852 173.556 88.2948C173.635 88.3716 173.719 88.4443 173.806 88.5126C175.814 90.2544 177.717 91.8914 169.024 124.938C167.485 130.926 165.6 136.82 163.379 142.59C163.287 142.828 163.122 143.031 162.907 143.168C162.693 143.306 162.44 143.372 162.185 143.356V143.356Z" fill="white" stroke="#263238" stroke-linecap="round" stroke-linejoin="round"/>
<path d="M166.564 88.2061L165.758 87.9722C165.269 87.8299 164.857 87.4994 164.612 87.0533C164.367 86.6072 164.309 86.082 164.451 85.5933C164.594 85.1064 164.923 84.6957 165.367 84.4509C165.811 84.2062 166.334 84.1472 166.822 84.2869L167.628 84.5288C167.87 84.5984 168.096 84.715 168.292 84.8718C168.489 85.0287 168.652 85.2229 168.774 85.4431C168.895 85.6634 168.972 85.9054 168.999 86.1553C169.027 86.4053 169.005 86.6582 168.935 86.8997C168.792 87.3865 168.463 87.7972 168.019 88.042C167.575 88.2868 167.052 88.3458 166.564 88.2061Z" fill="#263238" stroke="#263238" stroke-linecap="round" stroke-linejoin="round"/>
<path d="M117.704 143.727C117.51 143.728 117.319 143.682 117.146 143.593C116.974 143.505 116.825 143.377 116.712 143.219C104.712 126.212 94.7209 103.544 94.7209 100.326C94.7209 96.4637 101.817 92.4478 103.245 91.6817C103.385 91.5989 103.541 91.5454 103.702 91.5242C103.863 91.503 104.028 91.5147 104.184 91.5585C104.341 91.6022 104.488 91.6772 104.615 91.779C104.742 91.8807 104.847 92.0071 104.925 92.1505C105.002 92.294 105.049 92.4515 105.064 92.6137C105.079 92.7759 105.061 92.9394 105.011 93.0944C104.961 93.2494 104.88 93.3928 104.773 93.5158C104.667 93.6389 104.536 93.7392 104.39 93.8106C101.471 95.4234 97.1321 98.5523 97.1321 100.326C97.1321 102.576 106.607 124.72 118.679 141.824C118.772 141.954 118.838 142.1 118.874 142.255C118.909 142.41 118.913 142.571 118.886 142.728C118.859 142.884 118.802 143.034 118.716 143.169C118.631 143.303 118.52 143.419 118.389 143.51C118.189 143.653 117.949 143.729 117.704 143.727V143.727Z" fill="white" stroke="#263238" stroke-linecap="round" stroke-linejoin="round"/>
<path d="M105.333 94.0121L104.608 94.4556C104.393 94.5866 104.155 94.674 103.907 94.7129C103.659 94.7518 103.405 94.7413 103.161 94.6822C102.917 94.623 102.687 94.5163 102.484 94.3681C102.281 94.2199 102.109 94.0332 101.979 93.8186V93.8186C101.846 93.6039 101.758 93.3651 101.718 93.116C101.679 92.867 101.689 92.6126 101.748 92.3674C101.807 92.1223 101.915 91.8913 102.063 91.6878C102.212 91.4843 102.4 91.3123 102.616 91.1816L103.341 90.7381C103.556 90.6071 103.794 90.5197 104.042 90.4808C104.29 90.4419 104.544 90.4524 104.788 90.5115C105.032 90.5707 105.262 90.6774 105.465 90.8256C105.668 90.9738 105.84 91.1605 105.97 91.3751C106.103 91.5898 106.191 91.8286 106.231 92.0777C106.27 92.3267 106.26 92.5811 106.201 92.8263C106.142 93.0714 106.034 93.3023 105.886 93.5059C105.737 93.7094 105.549 93.8814 105.333 94.0121V94.0121Z" fill="#263238" stroke="#263238" stroke-linecap="round" stroke-linejoin="round"/>
<path d="M163.048 139.849C162.752 139.732 162.436 139.676 162.118 139.682C161.8 139.688 161.487 139.757 161.195 139.884C160.904 140.011 160.641 140.195 160.42 140.424C160.2 140.653 160.027 140.923 159.911 141.22C153.105 158.509 146.412 163.46 145.323 164.178C144.517 164.178 139.622 163.743 127.711 151.122C124.79 147.987 122.095 144.648 119.647 141.131C119.464 140.871 119.232 140.649 118.964 140.479C118.696 140.309 118.397 140.193 118.084 140.138C117.771 140.084 117.45 140.091 117.14 140.161C116.83 140.23 116.536 140.359 116.276 140.542C116.016 140.725 115.795 140.957 115.625 141.225C115.454 141.493 115.339 141.793 115.284 142.106C115.229 142.419 115.237 142.739 115.306 143.049C115.375 143.36 115.505 143.653 115.688 143.913C118.26 147.62 121.092 151.139 124.163 154.445C134.243 165.122 140.348 168.315 143.88 168.96L144.122 178.951C144.136 179.583 144.398 180.184 144.85 180.626C145.302 181.067 145.909 181.314 146.541 181.314H146.605C146.923 181.307 147.236 181.237 147.527 181.109C147.818 180.98 148.08 180.796 148.3 180.566C148.519 180.336 148.691 180.065 148.806 179.769C148.921 179.472 148.976 179.156 148.968 178.839L148.694 167.718C151.452 165.613 157.992 159.267 164.387 143.018C164.509 142.722 164.571 142.405 164.57 142.085C164.568 141.765 164.503 141.449 164.379 141.154C164.254 140.859 164.073 140.592 163.844 140.368C163.616 140.144 163.345 139.967 163.048 139.849V139.849Z" fill="#263238"/>
<path d="M58.3197 221.199C58.3197 221.199 55.7875 245.553 58.6342 249.98C61.4808 254.407 134.864 250.932 134.864 250.932L135.179 235.118L93.1163 227.223L58.3197 221.199Z" fill="#BABABA" stroke="#263238" stroke-linecap="round" stroke-linejoin="round"/>
<path d="M88.2132 226.328L58.247 226.957L57.9325 222.538L88.2132 226.328Z" fill="#263238" stroke="#263238" stroke-linecap="round" stroke-linejoin="round"/>
<path d="M80.7782 140.865C80.7782 140.865 72.5528 144.969 69.3916 148.768C66.2305 152.566 49.1508 222.465 49.1508 222.465L98.8095 227.522L96.2773 165.847" fill="#2452B3"/>
<path d="M80.7782 140.865C80.7782 140.865 72.5528 144.969 69.3916 148.768C66.2305 152.566 49.1508 222.465 49.1508 222.465L98.8095 227.522L96.2773 165.847" stroke="#263238" stroke-linecap="round" stroke-linejoin="round"/>
<path d="M186.724 238.029C191.672 238.029 195.683 233.837 195.683 228.667C195.683 223.496 191.672 219.304 186.724 219.304C181.776 219.304 177.765 223.496 177.765 228.667C177.765 233.837 181.776 238.029 186.724 238.029Z" fill="#263238" stroke="#263238" stroke-linecap="round" stroke-linejoin="round"/>
<path d="M186.724 234.819C189.975 234.819 192.611 232.065 192.611 228.667C192.611 225.268 189.975 222.514 186.724 222.514C183.473 222.514 180.838 225.268 180.838 228.667C180.838 232.065 183.473 234.819 186.724 234.819Z" fill="white" stroke="#263238" stroke-linecap="round" stroke-linejoin="round"/>
<path d="M128.856 232.868C128.856 232.868 127.905 252.794 128.856 253.109C129.808 253.423 141.186 253.109 142.767 253.109C144.347 253.109 160.508 257.536 168.709 258.488C176.91 259.439 180.725 256.278 182.942 252.48C185.16 248.682 187.047 245.835 187.047 245.835C187.047 245.835 193.063 233.82 192.74 229.392C192.418 224.965 191.797 223.376 189.893 224.014C187.99 224.651 188.281 226.86 186.103 230.021C183.926 233.182 182.62 234.134 181.354 234.763C180.087 235.392 173.451 235.086 172.483 234.763C171.515 234.44 183.241 231.916 185.45 227.812C187.66 223.707 186.716 221.481 184.507 221.481C182.297 221.481 179.442 223.376 174.386 224.643C169.33 225.909 157.306 224.014 152.871 224.643C148.436 225.272 141.807 231.9 141.807 231.9L128.856 232.868Z" fill="#2452B3" stroke="#263238" stroke-linecap="round" stroke-linejoin="round"/>
<path d="M186.458 246.859C186.458 246.859 182.176 249.536 177.628 249.536" stroke="#263238" stroke-linecap="round" stroke-linejoin="round"/>
<path d="M182.942 252.512C180.827 253.449 178.585 254.068 176.289 254.351" stroke="#263238" stroke-linecap="round" stroke-linejoin="round"/>
<path d="M172.499 234.795L164.516 233.481" stroke="#263238" stroke-linecap="round" stroke-linejoin="round"/>
<path d="M64.2225 217.659L97.4628 221.707" stroke="#263238" stroke-linecap="round" stroke-linejoin="round"/>
<path d="M54.9327 216.53L59.0293 217.03" stroke="#263238" stroke-linecap="round" stroke-linejoin="round"/>
</svg>
