<svg width="422" height="332" viewBox="0 0 422 332" fill="none" xmlns="http://www.w3.org/2000/svg">
<path d="M379.716 306.422H351.762V306.645H379.716V306.422Z" fill="#EBEBEB"/>
<path d="M279.55 308.848H272.215V309.071H279.55V308.848Z" fill="#EBEBEB"/>
<path d="M350.918 298.143H334.722V298.366H350.918V298.143Z" fill="#EBEBEB"/>
<path d="M80.7286 299.642H44.2762V299.865H80.7286V299.642Z" fill="#EBEBEB"/>
<path d="M93.5912 299.642H88.2487V299.865H93.5912V299.642Z" fill="#EBEBEB"/>
<path d="M190.027 303.406H110.961V303.63H190.027V303.406Z" fill="#EBEBEB"/>
<path d="M201.209 252.281H38.2331C36.9549 252.281 35.7291 251.745 34.8253 250.789C33.9216 249.834 33.4138 248.538 33.4138 247.187V5.04919C33.4249 3.70598 33.9376 2.42178 34.8402 1.47614C35.7428 0.530489 36.9622 -5.14964e-05 38.2331 3.74902e-09H201.209C201.842 3.74903e-09 202.469 0.131754 203.054 0.387741C203.638 0.643728 204.17 1.01894 204.617 1.49194C205.065 1.96494 205.42 2.52648 205.662 3.14449C205.904 3.7625 206.029 4.42487 206.029 5.0938V247.187C206.029 247.856 205.904 248.519 205.662 249.137C205.42 249.755 205.065 250.316 204.617 250.789C204.17 251.262 203.638 251.638 203.054 251.894C202.469 252.15 201.842 252.281 201.209 252.281V252.281ZM38.2331 0.178417C37.0116 0.180776 35.8407 0.694702 34.977 1.60764C34.1133 2.52058 33.627 3.75811 33.6248 5.04919V247.187C33.627 248.479 34.1133 249.716 34.977 250.629C35.8407 251.542 37.0116 252.056 38.2331 252.058H201.209C202.431 252.056 203.602 251.542 204.466 250.629C205.329 249.716 205.815 248.479 205.818 247.187V5.04919C205.815 3.75811 205.329 2.52058 204.466 1.60764C203.602 0.694702 202.431 0.180776 201.209 0.178417H38.2331Z" fill="#EBEBEB"/>
<path d="M383.767 252.281H220.79C219.512 252.281 218.286 251.745 217.383 250.789C216.479 249.834 215.971 248.538 215.971 247.187V5.04919C215.982 3.70598 216.495 2.42178 217.398 1.47614C218.3 0.530489 219.52 -5.14964e-05 220.79 3.74902e-09H383.767C385.045 3.74904e-09 386.271 0.536667 387.175 1.49194C388.078 2.44721 388.586 3.74284 388.586 5.0938V247.187C388.586 248.538 388.078 249.834 387.175 250.789C386.271 251.745 385.045 252.281 383.767 252.281V252.281ZM220.79 0.178417C219.569 0.180776 218.398 0.694702 217.534 1.60764C216.671 2.52058 216.184 3.75811 216.182 5.04919V247.187C216.184 248.479 216.671 249.716 217.534 250.629C218.398 251.542 219.569 252.056 220.79 252.058H383.767C384.988 252.056 386.159 251.542 387.023 250.629C387.887 249.716 388.373 248.479 388.375 247.187V5.04919C388.373 3.75811 387.887 2.52058 387.023 1.60764C386.159 0.694702 384.988 0.180776 383.767 0.178417H220.79Z" fill="#EBEBEB"/>
<path d="M422 292.068H0V292.291H422V292.068Z" fill="#EBEBEB"/>
<path d="M110.294 56.5939L116.447 52.4189L119.806 59.288L127.115 58.9312L126.777 66.6566L133.276 70.2071L129.326 76.7104L133.276 83.2226L126.777 86.7731L127.115 94.4985L119.806 94.1417L116.447 101.011L110.294 96.8358L104.133 101.011L100.774 94.1417L93.4647 94.4985L93.8023 86.7731L87.3035 83.2226L91.2534 76.7104L87.3035 70.2071L93.8023 66.6566L93.4647 58.9312L100.774 59.288L104.133 52.4189L110.294 56.5939Z" fill="#E6E6E6"/>
<path d="M107.956 86.648L100.639 78.9136C100.237 78.4888 100.012 77.9128 100.012 77.3123C100.012 76.7119 100.237 76.1359 100.639 75.7111V75.7111C101.041 75.2867 101.585 75.0483 102.154 75.0483C102.722 75.0483 103.267 75.2867 103.669 75.7111L107.956 80.2428L116.911 70.7778C117.313 70.3535 117.858 70.1151 118.426 70.1151C118.994 70.1151 119.539 70.3535 119.941 70.7778C120.342 71.2027 120.568 71.7786 120.568 72.3791C120.568 72.9796 120.342 73.5555 119.941 73.9804L107.956 86.648Z" fill="#FAFAFA"/>
<path d="M339.17 124.874L343.997 121.6L346.631 126.988L352.37 126.703L352.1 132.76L357.198 135.543L354.1 140.655L357.198 145.758L352.1 148.541L352.37 154.598L346.631 154.322L343.997 159.71L339.17 156.436L334.342 159.71L331.709 154.322L325.978 154.598L326.24 148.541L321.142 145.758L324.239 140.655L321.142 135.543L326.24 132.76L325.978 126.703L331.709 126.988L334.342 121.6L339.17 124.874Z" fill="#E6E6E6"/>
<path d="M337.338 148.443L331.599 142.377C331.287 142.043 331.112 141.592 331.112 141.123C331.112 140.654 331.287 140.204 331.599 139.87V139.87C331.915 139.538 332.343 139.351 332.789 139.351C333.235 139.351 333.663 139.538 333.979 139.87L337.355 143.438L344.377 136.016C344.693 135.684 345.121 135.497 345.567 135.497C346.013 135.497 346.441 135.684 346.757 136.016C347.072 136.35 347.248 136.803 347.248 137.274C347.248 137.745 347.072 138.197 346.757 138.532L337.338 148.443Z" fill="#FAFAFA"/>
<path d="M110.91 210.532L120.321 215.608C121.096 216.023 121.978 216.16 122.833 215.999C123.689 215.838 124.471 215.388 125.064 214.716L132.263 206.544C132.68 206.072 132.989 205.504 133.164 204.885C133.34 204.266 133.378 203.613 133.276 202.976L129.537 180.531C129.241 178.771 128.296 177.206 126.91 176.181C125.524 175.156 123.81 174.754 122.144 175.063L110.226 177.284C109.401 177.438 108.613 177.762 107.906 178.238C107.2 178.714 106.589 179.333 106.108 180.059C105.628 180.784 105.287 181.603 105.106 182.468C104.925 183.332 104.907 184.226 105.053 185.099L108.792 207.534C108.904 208.172 109.154 208.774 109.521 209.294C109.888 209.813 110.363 210.237 110.91 210.532V210.532ZM121.629 208.748C122.02 208.673 122.424 208.722 122.789 208.89C123.154 209.058 123.463 209.336 123.678 209.69C123.893 210.044 124.003 210.458 123.996 210.878C123.988 211.299 123.862 211.707 123.634 212.052C123.406 212.397 123.087 212.663 122.716 212.815C122.345 212.968 121.94 213.001 121.552 212.909C121.163 212.818 120.809 212.607 120.534 212.303C120.26 211.999 120.077 211.615 120.008 211.201C119.917 210.649 120.037 210.081 120.34 209.621C120.644 209.162 121.107 208.848 121.629 208.748V208.748Z" fill="#E6E6E6"/>
<path d="M111.37 203.576L129.581 200.182L129.233 198.1L111.022 201.494L111.37 203.576Z" fill="#FAFAFA"/>
<path d="M108.286 185.073L126.497 181.679L126.149 179.597L107.938 182.991L108.286 185.073Z" fill="#FAFAFA"/>
<path d="M143.075 65.2471L149.557 72.5979C150.089 73.2015 150.793 73.6054 151.562 73.7486C152.331 73.8918 153.123 73.7666 153.819 73.3918L162.259 68.8244C162.755 68.5593 163.187 68.1752 163.518 67.7028C163.849 67.2304 164.071 66.6828 164.166 66.1035L167.542 45.9246C167.805 44.342 167.463 42.7139 166.591 41.3977C165.719 40.0814 164.389 39.1846 162.892 38.9039L152.182 36.9056C150.682 36.6281 149.14 36.9908 147.893 37.914C146.646 38.8372 145.796 40.2455 145.531 41.8299L142.155 61.9999C142.058 62.5795 142.091 63.175 142.251 63.7389C142.41 64.3027 142.693 64.8192 143.075 65.2471V65.2471ZM152.637 67.2632C152.99 67.3272 153.316 67.5002 153.575 67.7603C153.835 68.0205 154.015 68.3561 154.094 68.7247C154.172 69.0933 154.146 69.4783 154.017 69.8309C153.889 70.1835 153.664 70.4879 153.372 70.7055C153.08 70.9231 152.733 71.0441 152.376 71.0533C152.018 71.0624 151.666 70.9593 151.364 70.7569C151.063 70.5545 150.824 70.262 150.68 69.9164C150.535 69.5708 150.491 69.1876 150.553 68.8155C150.635 68.3178 150.901 67.875 151.292 67.5841C151.682 67.2931 152.166 67.1777 152.637 67.2632V67.2632Z" fill="#F0F0F0"/>
<path d="M145.495 59.5322L161.869 62.5839L162.181 60.7126L145.807 57.6609L145.495 59.5322Z" fill="#FAFAFA"/>
<path d="M148.743 43.9671L165.037 46.9547L165.342 45.0926L149.048 42.105L148.743 43.9671Z" fill="#FAFAFA"/>
<path d="M299.941 43.489C298.743 41.68 296.914 40.4477 294.857 40.063C292.799 39.6783 290.682 40.1725 288.969 41.4372L285.593 43.9083L283.246 40.3399C282.045 38.5348 280.217 37.3057 278.161 36.9212C276.105 36.5367 273.989 37.0282 272.275 38.2881V38.2881C270.567 39.5577 269.404 41.4902 269.04 43.6633C268.676 45.8364 269.141 48.0734 270.333 49.8852L281.736 67.0935L298.025 55.0415C299.719 53.77 300.87 51.844 301.228 49.6812C301.587 47.5185 301.124 45.2935 299.941 43.489V43.489Z" fill="#EBEBEB"/>
<path d="M323.353 45.0949C323.063 44.6539 322.694 44.2778 322.266 43.9883C321.838 43.6988 321.36 43.5015 320.859 43.4079C320.359 43.3142 319.846 43.3259 319.35 43.4424C318.854 43.559 318.384 43.7779 317.969 44.0868L316.331 45.3L315.183 43.5694C314.595 42.6826 313.697 42.0786 312.688 41.8897C311.679 41.7007 310.64 41.9422 309.799 42.5613V42.5613C308.961 43.1867 308.391 44.1373 308.213 45.2054C308.036 46.2735 308.266 47.3724 308.853 48.2617L314.432 56.683L322.408 50.7863C322.825 50.479 323.18 50.0878 323.453 49.6351C323.726 49.1823 323.912 48.677 323.999 48.1482C324.087 47.6193 324.075 47.0774 323.965 46.5534C323.854 46.0294 323.646 45.5337 323.353 45.0949V45.0949Z" fill="#EBEBEB"/>
<path d="M73.7318 126.997C68.2846 128.65 63.6814 132.522 60.9339 137.761C58.1865 143.001 57.5196 149.178 59.0799 154.937C61.1984 162.725 74.12 175.776 82.9145 183.974C83.8165 184.817 84.9048 185.406 86.0789 185.687C87.253 185.967 88.4752 185.931 89.6325 185.581C90.7898 185.231 91.8449 184.578 92.7005 183.683C93.5561 182.788 94.1846 181.679 94.5279 180.46C97.9039 168.586 102.284 150.272 100.174 142.484C99.4008 139.631 98.1032 136.968 96.3555 134.645C94.6078 132.323 92.4444 130.388 89.9888 128.95C87.5331 127.511 84.8335 126.599 82.0441 126.264C79.2546 125.929 76.4301 126.178 73.7318 126.997V126.997ZM82.3406 158.728C80.4666 159.298 78.4751 159.267 76.6178 158.64C74.7605 158.012 73.1209 156.817 71.9062 155.205C70.6916 153.593 69.9566 151.636 69.7941 149.583C69.6316 147.529 70.0489 145.47 70.9933 143.667C71.9377 141.865 73.3667 140.398 75.0997 139.453C76.8326 138.509 78.7916 138.129 80.729 138.361C82.6663 138.593 84.495 139.428 85.9837 140.759C87.4724 142.089 88.5543 143.857 89.0926 145.838C89.8142 148.494 89.5083 151.344 88.2421 153.761C86.9759 156.178 84.8531 157.965 82.3406 158.728V158.728Z" fill="#E0E0E0"/>
<path d="M77.074 125.989C71.6337 127.648 67.0386 131.521 64.2978 136.758C61.557 141.995 60.8945 148.167 62.4559 153.92C64.5744 161.708 77.496 174.768 86.2905 182.966C87.1959 183.806 88.2871 184.392 89.4632 184.668C90.6392 184.944 91.8622 184.902 93.019 184.547C94.1757 184.191 95.229 183.533 96.0814 182.633C96.9337 181.733 97.5577 180.62 97.8955 179.398C101.271 167.524 105.652 149.219 103.542 141.422C102.764 138.571 101.462 135.91 99.7109 133.59C97.9595 131.271 95.7927 129.34 93.3345 127.907C90.8763 126.473 88.1749 125.566 85.3848 125.237C82.5947 124.908 79.7706 125.164 77.074 125.989V125.989ZM85.6828 157.72C83.8073 158.291 81.8138 158.262 79.9543 157.635C78.0948 157.008 76.453 155.813 75.2365 154.2C74.02 152.586 73.2834 150.628 73.12 148.572C72.9566 146.517 73.3737 144.456 74.3186 142.651C75.2634 140.846 76.6935 139.378 78.428 138.432C80.1625 137.486 82.1234 137.105 84.0627 137.337C86.002 137.57 87.8326 138.405 89.3228 139.737C90.8131 141.069 91.8961 142.838 92.4348 144.821C92.7934 146.137 92.9032 147.514 92.7579 148.874C92.6126 150.235 92.2151 151.552 91.588 152.75C90.9609 153.948 90.1167 155.003 89.1034 155.856C88.0902 156.709 86.9278 157.343 85.6828 157.72V157.72Z" fill="#F5F5F5"/>
<path d="M323.176 69.5826C320.828 68.8648 318.368 68.6444 315.939 68.9338C313.509 69.2233 311.158 70.017 309.019 71.2694C306.881 72.5218 304.997 74.2082 303.477 76.2319C301.957 78.2556 300.83 80.5767 300.16 83.062C298.32 89.8508 302.161 105.792 305.081 116.132C305.378 117.197 305.925 118.165 306.671 118.947C307.418 119.729 308.339 120.299 309.349 120.605C310.359 120.91 311.426 120.94 312.45 120.693C313.475 120.446 314.424 119.93 315.209 119.191C322.872 112.055 334.123 100.69 335.963 93.9097C336.641 91.425 336.848 88.8231 336.572 86.2534C336.296 83.6838 335.542 81.1972 334.354 78.9365C333.166 76.6758 331.567 74.6857 329.648 73.0804C327.73 71.4751 325.531 70.2864 323.176 69.5826V69.5826ZM315.656 97.2372C314.025 96.7425 312.57 95.7481 311.474 94.3796C310.377 93.0111 309.689 91.33 309.497 89.5485C309.304 87.7669 309.615 85.9649 310.39 84.3701C311.165 82.7752 312.371 81.4589 313.853 80.5876C315.336 79.7162 317.03 79.3288 318.721 79.4743C320.412 79.6198 322.024 80.2916 323.354 81.4049C324.684 82.5183 325.672 84.0232 326.193 85.7297C326.714 87.4361 326.745 89.2675 326.282 90.9926C325.974 92.1411 325.454 93.2141 324.753 94.1499C324.052 95.0857 323.183 95.866 322.195 96.4462C321.208 97.0263 320.122 97.3948 319 97.5305C317.878 97.6663 316.742 97.5666 315.656 97.2372V97.2372Z" fill="#E0E0E0"/>
<path d="M326.088 70.4746C323.739 69.7568 321.28 69.5363 318.85 69.8258C316.421 70.1153 314.07 70.909 311.931 72.1614C309.793 73.4138 307.909 75.1002 306.389 77.1239C304.869 79.1476 303.741 81.4687 303.072 83.954C301.232 90.7338 305.072 106.684 307.993 117.023C308.29 118.089 308.837 119.057 309.583 119.839C310.329 120.621 311.25 121.191 312.261 121.497C313.271 121.802 314.338 121.832 315.362 121.585C316.387 121.338 317.335 120.822 318.121 120.083C325.776 112.947 337.026 101.582 338.866 94.8017C339.545 92.3176 339.752 89.7162 339.477 87.147C339.201 84.5778 338.448 82.0915 337.261 79.831C336.073 77.5704 334.475 75.5801 332.558 73.9744C330.64 72.3687 328.441 71.1793 326.088 70.4746V70.4746ZM318.593 98.1292C316.962 97.6359 315.505 96.6426 314.407 95.2747C313.31 93.9068 312.62 92.2257 312.426 90.4438C312.232 88.662 312.542 86.8593 313.317 85.2636C314.092 83.6679 315.297 82.3508 316.78 81.4787C318.263 80.6065 319.957 80.2186 321.648 80.3638C323.34 80.5089 324.952 81.1808 326.283 82.2944C327.613 83.408 328.601 84.9133 329.122 86.6203C329.643 88.3272 329.674 90.1592 329.211 91.8846C328.586 94.2008 327.117 96.16 325.125 97.3311C323.134 98.5021 320.785 98.7892 318.593 98.1292Z" fill="#F5F5F5"/>
<path d="M211 331.864C301.378 331.864 374.643 327.343 374.643 321.766C374.643 316.188 301.378 311.667 211 311.667C120.622 311.667 47.3568 316.188 47.3568 321.766C47.3568 327.343 120.622 331.864 211 331.864Z" fill="#F5F5F5"/>
<path d="M159.094 118.531H168.125C168.572 118.522 169.017 118.614 169.428 118.8C169.84 118.986 170.209 119.263 170.512 119.611C170.815 119.959 171.045 120.371 171.187 120.82C171.328 121.269 171.377 121.745 171.332 122.215L169.644 142.35C169.547 143.352 169.106 144.282 168.405 144.964C167.704 145.646 166.79 146.033 165.837 146.052H156.815C156.367 146.06 155.922 145.967 155.51 145.779C155.098 145.591 154.729 145.313 154.426 144.963C154.124 144.613 153.895 144.199 153.756 143.748C153.616 143.298 153.568 142.821 153.616 142.35L155.296 122.215C155.396 121.218 155.838 120.293 156.537 119.615C157.236 118.937 158.145 118.552 159.094 118.531Z" fill="#2452B3"/>
<path opacity="0.2" d="M260.121 114.231H274.233C274.933 114.218 275.628 114.363 276.272 114.656C276.916 114.948 277.493 115.383 277.966 115.929C278.438 116.476 278.795 117.123 279.013 117.827C279.231 118.531 279.305 119.276 279.229 120.012L277.49 141.039C277.339 142.597 276.656 144.043 275.568 145.107C274.481 146.171 273.064 146.78 271.582 146.819H257.42C256.72 146.831 256.026 146.686 255.383 146.392C254.741 146.099 254.164 145.665 253.693 145.118C253.221 144.571 252.865 143.925 252.647 143.222C252.43 142.518 252.357 141.774 252.432 141.039L254.171 120.012C254.323 118.447 255.012 116.994 256.109 115.929C257.205 114.864 258.632 114.26 260.121 114.231Z" fill="black"/>
<path opacity="0.2" d="M257.226 149.165H271.346C272.046 149.154 272.74 149.299 273.383 149.592C274.025 149.886 274.602 150.32 275.073 150.867C275.545 151.413 275.901 152.06 276.119 152.763C276.336 153.466 276.409 154.211 276.334 154.946L274.595 175.973C274.445 177.539 273.756 178.992 272.659 180.058C271.563 181.123 270.134 181.726 268.645 181.753H254.533C253.833 181.766 253.138 181.622 252.494 181.329C251.85 181.036 251.273 180.602 250.8 180.055C250.328 179.509 249.971 178.862 249.753 178.158C249.535 177.454 249.461 176.709 249.537 175.973L251.284 154.946C251.434 153.381 252.122 151.929 253.217 150.864C254.312 149.799 255.738 149.194 257.226 149.165V149.165Z" fill="black"/>
<path d="M184.422 74.8101H263.049C265.584 74.7624 268.098 75.2858 270.426 76.3457C272.754 77.4055 274.842 78.9774 276.55 80.9567C278.258 82.936 279.547 85.2772 280.332 87.8245C281.117 90.3718 281.38 93.0666 281.103 95.7295L264.324 298.384C263.778 304.047 261.287 309.303 257.323 313.156C253.358 317.009 248.195 319.193 242.81 319.295H164.183C161.65 319.342 159.136 318.819 156.809 317.76C154.482 316.7 152.395 315.129 150.687 313.151C148.979 311.173 147.689 308.833 146.903 306.286C146.118 303.74 145.854 301.046 146.13 298.384L162.892 95.7295C163.437 90.0617 165.929 84.8018 169.897 80.9464C173.865 77.0909 179.033 74.9076 184.422 74.8101V74.8101Z" fill="#2452B3"/>
<path opacity="0.2" d="M184.422 74.8101H263.049C265.584 74.7624 268.098 75.2858 270.426 76.3457C272.754 77.4055 274.842 78.9774 276.55 80.9567C278.258 82.936 279.547 85.2772 280.332 87.8245C281.117 90.3718 281.38 93.0666 281.103 95.7295L264.324 298.384C263.778 304.047 261.287 309.303 257.323 313.156C253.358 317.009 248.195 319.193 242.81 319.295H164.183C161.65 319.342 159.136 318.819 156.809 317.76C154.482 316.7 152.395 315.129 150.687 313.151C148.979 311.173 147.689 308.833 146.903 306.286C146.118 303.74 145.854 301.046 146.13 298.384L162.892 95.7295C163.437 90.0617 165.929 84.8018 169.897 80.9464C173.865 77.0909 179.033 74.9076 184.422 74.8101V74.8101Z" fill="black"/>
<path d="M181.882 74.8102H260.518C263.051 74.7639 265.565 75.2883 267.893 76.3487C270.22 77.409 272.307 78.9809 274.014 80.9599C275.722 82.9388 277.012 85.2795 277.797 87.8261C278.583 90.3727 278.847 93.0669 278.571 95.7296L261.792 298.384C261.244 304.047 258.753 309.301 254.789 313.154C250.825 317.007 245.663 319.191 240.278 319.295H161.651C159.118 319.344 156.603 318.821 154.275 317.763C151.947 316.704 149.86 315.133 148.151 313.154C146.443 311.175 145.154 308.835 144.368 306.288C143.583 303.741 143.321 301.047 143.598 298.384L160.36 95.7296C161.322 84.1771 170.961 74.8102 181.882 74.8102Z" fill="#2452B3"/>
<path d="M276.208 95.7297L259.437 298.375C258.951 303.362 256.755 307.989 253.262 311.381C249.77 314.773 245.223 316.697 240.481 316.788H161.854C159.623 316.831 157.408 316.371 155.358 315.439C153.308 314.507 151.47 313.124 149.965 311.381C148.461 309.639 147.325 307.578 146.633 305.336C145.941 303.093 145.709 300.72 145.953 298.375L162.732 95.7297C163.216 90.7426 165.41 86.1153 168.901 82.7214C172.392 79.3275 176.937 77.4019 181.68 77.3082H260.307C262.538 77.2662 264.753 77.7272 266.803 78.6605C268.853 79.5937 270.691 80.9779 272.196 82.7208C273.7 84.4636 274.836 86.5253 275.528 88.7683C276.219 91.0114 276.451 93.3845 276.208 95.7297Z" fill="white"/>
<g opacity="0.1">
<path opacity="0.1" d="M161.854 316.788H191.664L239.823 77.308H201.843L154.089 314.763C156.48 316.105 159.147 316.801 161.854 316.788Z" fill="black"/>
<path opacity="0.1" d="M258.053 77.3079H250.828L202.661 316.788H209.894L258.053 77.3079Z" fill="black"/>
</g>
<path d="M197.943 76.7191C197.87 77.4671 197.946 78.223 198.167 78.9376C198.389 79.6523 198.75 80.3096 199.228 80.8668C199.706 81.424 200.289 81.8685 200.94 82.1714C201.592 82.4743 202.296 82.6287 203.007 82.6247H238.033C239.552 82.59 241.006 81.9709 242.123 80.8836C243.24 79.7964 243.944 78.3156 244.102 76.7191H197.943Z" fill="#2452B3"/>
<path d="M258.88 83.856H266.831C266.984 83.8552 267.137 83.8885 267.277 83.9539C267.418 84.0193 267.544 84.1153 267.648 84.2356C267.751 84.3558 267.83 84.4978 267.878 84.6522C267.926 84.8065 267.943 84.9699 267.928 85.1316L267.624 88.7892C267.591 89.1341 267.44 89.4542 267.199 89.6893C266.958 89.9243 266.644 90.0579 266.316 90.0649H258.365C258.211 90.0671 258.058 90.0347 257.917 89.9698C257.775 89.9048 257.648 89.8089 257.545 89.6883C257.441 89.5677 257.363 89.4252 257.315 89.2702C257.267 89.1152 257.251 88.9512 257.268 88.7892L257.572 85.1316C257.605 84.7868 257.756 84.4666 257.997 84.2316C258.238 83.9966 258.552 83.8629 258.88 83.856Z" fill="#2452B3"/>
<path d="M173.991 83.8558H184.633C184.807 83.8536 184.979 83.8902 185.139 83.9633C185.298 84.0364 185.441 84.1443 185.558 84.28C185.675 84.4156 185.764 84.5759 185.819 84.7503C185.873 84.9247 185.892 85.1094 185.874 85.2921L185.596 88.6285C185.558 89.0175 185.388 89.3786 185.115 89.6433C184.843 89.908 184.488 90.058 184.119 90.0647H173.476C173.302 90.0671 173.13 90.0305 172.971 89.9573C172.812 89.8841 172.67 89.776 172.553 89.6402C172.437 89.5044 172.349 89.344 172.295 89.1695C172.242 88.9951 172.224 88.8107 172.243 88.6285L172.514 85.2921C172.551 84.9031 172.722 84.542 172.994 84.2772C173.266 84.0125 173.621 83.8626 173.991 83.8558V83.8558Z" fill="#2452B3"/>
<path opacity="0.4" d="M173.991 83.8558H184.633C184.807 83.8536 184.979 83.8902 185.139 83.9633C185.298 84.0364 185.441 84.1443 185.558 84.28C185.675 84.4156 185.764 84.5759 185.819 84.7503C185.873 84.9247 185.892 85.1094 185.874 85.2921L185.596 88.6285C185.558 89.0175 185.388 89.3786 185.115 89.6433C184.843 89.908 184.488 90.058 184.119 90.0647H173.476C173.302 90.0671 173.13 90.0305 172.971 89.9573C172.812 89.8841 172.67 89.776 172.553 89.6402C172.437 89.5044 172.349 89.344 172.295 89.1695C172.242 88.9951 172.224 88.8107 172.243 88.6285L172.514 85.2921C172.551 84.9031 172.722 84.542 172.994 84.2772C173.266 84.0125 173.621 83.8626 173.991 83.8558V83.8558Z" fill="white"/>
<path d="M256.762 84.8907H258.011C258.067 84.889 258.124 84.9002 258.176 84.9235C258.228 84.9467 258.275 84.9815 258.313 85.0254C258.351 85.0693 258.38 85.1214 258.398 85.1782C258.416 85.235 258.422 85.2951 258.416 85.3545L258.154 88.5125C258.142 88.6387 258.086 88.7557 257.997 88.8413C257.909 88.9268 257.793 88.9749 257.673 88.9764H256.424C256.368 88.978 256.311 88.9668 256.259 88.9436C256.207 88.9203 256.16 88.8856 256.122 88.8417C256.084 88.7977 256.055 88.7456 256.037 88.6889C256.019 88.6321 256.013 88.572 256.019 88.5125L256.281 85.3545C256.293 85.2283 256.349 85.1113 256.438 85.0258C256.526 84.9403 256.642 84.8922 256.762 84.8907Z" fill="#2452B3"/>
<path d="M265.252 84.8908H266.51C266.566 84.8904 266.621 84.9025 266.672 84.9263C266.723 84.9502 266.769 84.9851 266.806 85.0289C266.844 85.0727 266.872 85.1243 266.889 85.1805C266.907 85.2366 266.913 85.2959 266.907 85.3546L266.645 88.5126C266.635 88.6381 266.58 88.755 266.493 88.8407C266.406 88.9264 266.292 88.9748 266.172 88.9765H264.915C264.859 88.9768 264.804 88.9647 264.753 88.9409C264.701 88.9171 264.656 88.8822 264.618 88.8384C264.581 88.7946 264.553 88.7429 264.535 88.6868C264.518 88.6307 264.512 88.5713 264.518 88.5126L264.78 85.3546C264.79 85.2292 264.844 85.1123 264.932 85.0266C265.019 84.9409 265.133 84.8925 265.252 84.8908V84.8908Z" fill="white"/>
<path d="M262.56 84.8908H263.818C263.873 84.8904 263.929 84.9025 263.98 84.9263C264.031 84.9502 264.077 84.9851 264.114 85.0289C264.152 85.0727 264.18 85.1243 264.197 85.1805C264.214 85.2366 264.22 85.2959 264.214 85.3546L263.953 88.5126C263.942 88.6381 263.888 88.755 263.801 88.8407C263.713 88.9264 263.599 88.9748 263.48 88.9765H262.222C262.167 88.9768 262.111 88.9647 262.06 88.9409C262.009 88.9171 261.963 88.8822 261.926 88.8384C261.888 88.7946 261.86 88.7429 261.843 88.6868C261.826 88.6307 261.82 88.5713 261.826 88.5126L262.087 85.3546C262.098 85.2292 262.152 85.1123 262.239 85.0266C262.327 84.9409 262.441 84.8925 262.56 84.8908V84.8908Z" fill="white"/>
<path d="M276.688 140.896L275 161.619C275.827 161.451 276.58 161.007 277.148 160.351C277.717 159.696 278.071 158.864 278.157 157.979L279.237 144.518C279.323 143.686 279.108 142.85 278.635 142.178C278.163 141.507 277.467 141.048 276.688 140.896Z" fill="#2452B3"/>
<path opacity="0.2" d="M276.688 140.896L275 161.619C275.827 161.451 276.58 161.007 277.148 160.351C277.717 159.696 278.071 158.864 278.157 157.979L279.237 144.518C279.323 143.686 279.108 142.85 278.635 142.178C278.163 141.507 277.467 141.048 276.688 140.896Z" fill="black"/>
<path d="M278.52 118.531L276.832 139.254C277.657 139.088 278.408 138.645 278.976 137.991C279.543 137.336 279.895 136.506 279.98 135.624L281.052 122.216C281.15 121.377 280.943 120.53 280.473 119.846C280.003 119.162 279.305 118.692 278.52 118.531V118.531Z" fill="#2452B3"/>
<path opacity="0.2" d="M278.52 118.531L276.832 139.254C277.657 139.088 278.408 138.645 278.976 137.991C279.543 137.336 279.895 136.506 279.98 135.624L281.052 122.216C281.15 121.377 280.943 120.53 280.473 119.846C280.003 119.162 279.305 118.692 278.52 118.531V118.531Z" fill="black"/>
<path d="M342.065 165.821H325.497C324.154 165.821 322.866 166.384 321.916 167.388C320.967 168.392 320.433 169.753 320.433 171.173V181.539C320.444 182.951 320.983 184.301 321.931 185.295C322.88 186.289 324.161 186.847 325.497 186.847H330.232V190.888C330.235 191.11 330.299 191.326 330.417 191.51C330.535 191.694 330.701 191.837 330.895 191.921C331.09 192.006 331.303 192.028 331.509 191.986C331.715 191.943 331.905 191.838 332.055 191.682L336.621 186.847H342.065C343.393 186.835 344.664 186.272 345.604 185.279C346.543 184.287 347.076 182.943 347.087 181.539V171.128C347.076 169.724 346.543 168.381 345.604 167.388C344.664 166.395 343.393 165.832 342.065 165.821V165.821Z" fill="#2452B3"/>
<path d="M338.056 170.781H330.097C330.021 170.076 329.979 169.728 329.903 168.997H325.522C325.615 169.398 325.666 169.594 325.759 169.996H328.915C328.957 170.29 328.983 170.442 329.025 170.745C329.236 172.217 329.346 172.949 329.557 174.42C329.607 174.822 329.641 175.018 329.7 175.42C329.911 176.892 330.012 177.623 330.223 179.095C330.342 179.889 330.401 180.281 330.51 181.066H339.288C339.372 180.665 339.415 180.469 339.507 180.067H331.194C331.152 179.684 331.126 179.487 331.084 179.095H340.124L340.968 175.42C341.06 175.018 341.103 174.822 341.204 174.42C341.541 172.949 341.719 172.217 342.048 170.745L338.056 170.781ZM330.215 171.771H333.034C333.034 172.85 333.076 173.386 333.11 174.447H330.51L330.215 171.771ZM330.932 178.14C330.806 177.061 330.747 176.526 330.629 175.464H333.161C333.161 176.535 333.203 177.07 333.236 178.14H330.932ZM336.342 178.14H334.055C334.055 177.061 334.055 176.526 334.055 175.464H336.587C336.477 176.526 336.435 177.061 336.342 178.14V178.14ZM336.663 174.456H334.064C334.064 173.386 334.064 172.85 334.064 171.78H336.883C336.798 172.85 336.756 173.386 336.663 174.456V174.456ZM339.465 178.14H337.186C337.313 177.061 337.372 176.526 337.507 175.464H340.039L339.465 178.14ZM340.216 174.456H337.6C337.735 173.386 337.794 172.85 337.921 171.78H340.74C340.537 172.85 340.427 173.386 340.216 174.456Z" fill="white"/>
<path d="M331.051 182.03C330.829 182.03 330.612 182.099 330.427 182.23C330.242 182.36 330.099 182.545 330.014 182.762C329.929 182.979 329.906 183.218 329.95 183.448C329.993 183.678 330.1 183.889 330.257 184.055C330.414 184.221 330.614 184.334 330.832 184.38C331.049 184.426 331.275 184.402 331.48 184.312C331.685 184.223 331.861 184.071 331.984 183.875C332.107 183.68 332.173 183.451 332.173 183.216C332.173 182.902 332.055 182.6 331.844 182.377C331.634 182.155 331.348 182.03 331.051 182.03V182.03Z" fill="white"/>
<path d="M339.001 184.394C339.616 184.394 340.115 183.867 340.115 183.216C340.115 182.566 339.616 182.039 339.001 182.039C338.386 182.039 337.887 182.566 337.887 183.216C337.887 183.867 338.386 184.394 339.001 184.394Z" fill="white"/>
<path d="M230.842 91.5456H204.543C202.374 91.5861 200.294 92.4654 198.697 94.0172C197.1 95.569 196.096 97.6857 195.875 99.9669L194.517 116.426C194.405 117.498 194.511 118.583 194.827 119.608C195.143 120.633 195.662 121.576 196.349 122.373C197.037 123.169 197.877 123.802 198.814 124.229C199.751 124.655 200.763 124.866 201.783 124.847H209.312L208.78 131.252C208.754 131.603 208.833 131.954 209.006 132.256C209.178 132.557 209.436 132.794 209.742 132.933C210.049 133.072 210.388 133.105 210.714 133.03C211.039 132.954 211.334 132.772 211.557 132.51L219.44 124.892H228.083C230.251 124.849 232.33 123.969 233.927 122.418C235.524 120.866 236.528 118.751 236.75 116.47L238.109 100.011C238.227 98.9361 238.127 97.8464 237.813 96.8156C237.5 95.7848 236.982 94.8367 236.294 94.0349C235.606 93.2331 234.763 92.5961 233.823 92.1668C232.883 91.7375 231.867 91.5257 230.842 91.5456V91.5456Z" fill="#2452B3"/>
<path d="M222.976 99.4138H210.359L210.274 96.6483H203.328C203.421 97.2817 203.471 97.5939 203.564 98.2273H208.578C208.578 98.7001 208.62 98.941 208.645 99.4138C208.789 101.751 208.865 102.92 209.008 105.257C209.008 105.881 209.067 106.203 209.101 106.836C209.244 109.164 209.32 110.333 209.455 112.67C209.54 113.919 209.574 114.544 209.65 115.792H223.508L223.989 114.213H210.797V112.67H225.145C225.888 110.333 226.259 109.164 226.994 106.836L227.492 105.257C228.234 102.92 228.606 101.751 229.34 99.4138H222.976ZM210.401 100.993H214.874C214.781 102.697 214.739 103.544 214.646 105.257H210.527L210.401 100.993ZM210.705 111.091L210.578 106.836H214.562C214.469 108.54 214.418 109.387 214.325 111.091H210.705ZM219.288 111.091H215.667C215.811 109.387 215.887 108.54 216.03 106.836H220.014C219.727 108.54 219.583 109.387 219.288 111.091ZM220.284 105.266H216.165C216.317 103.553 216.385 102.706 216.528 101.002H221.01C220.714 102.697 220.571 103.544 220.284 105.266ZM224.251 111.1H220.63L221.474 106.845H225.449C224.985 108.54 224.74 109.387 224.251 111.091V111.1ZM225.939 105.266H221.803C222.149 103.553 222.318 102.706 222.647 101.002H227.12C226.648 102.697 226.403 103.544 225.922 105.266H225.939Z" fill="white"/>
<path d="M210.392 117.273C209.909 117.282 209.445 117.477 209.089 117.822C208.733 118.167 208.509 118.639 208.459 119.147C208.436 119.385 208.46 119.627 208.531 119.855C208.602 120.083 208.717 120.292 208.871 120.469C209.024 120.646 209.211 120.787 209.419 120.882C209.628 120.977 209.853 121.024 210.08 121.02C210.563 121.012 211.027 120.817 211.383 120.471C211.739 120.126 211.963 119.655 212.013 119.147C212.037 118.908 212.012 118.667 211.941 118.439C211.871 118.211 211.755 118.002 211.602 117.824C211.448 117.647 211.261 117.507 211.053 117.412C210.844 117.317 210.619 117.27 210.392 117.273Z" fill="white"/>
<path d="M222.993 117.273C222.511 117.282 222.048 117.477 221.694 117.823C221.339 118.168 221.116 118.639 221.069 119.147C221.045 119.385 221.069 119.627 221.14 119.855C221.211 120.083 221.327 120.292 221.48 120.469C221.633 120.646 221.82 120.787 222.029 120.882C222.237 120.977 222.462 121.024 222.689 121.02C223.172 121.012 223.634 120.816 223.989 120.471C224.344 120.125 224.566 119.654 224.614 119.147C224.638 118.908 224.613 118.667 224.542 118.439C224.472 118.211 224.356 118.002 224.202 117.824C224.049 117.647 223.862 117.507 223.654 117.412C223.445 117.317 223.22 117.27 222.993 117.273Z" fill="white"/>
<path d="M249.74 208.016H219.668V239.801H249.74V208.016Z" fill="#2452B3"/>
<path d="M268.198 208.016H249.731V239.801H268.198V208.016Z" fill="#2452B3"/>
<path d="M243.992 200.041H213.92L219.668 208.016H249.731L243.992 200.041Z" fill="#2452B3"/>
<path opacity="0.3" d="M268.198 208.016H249.731V239.801H268.198V208.016Z" fill="white"/>
<path opacity="0.4" d="M243.992 200.041H213.92L219.668 208.016H249.731L243.992 200.041Z" fill="white"/>
<path d="M255.175 200.041H273.642L268.206 208.016H249.731L255.175 200.041Z" fill="#2452B3"/>
<path opacity="0.6" d="M249.74 208.016H219.668V239.801H249.74V208.016Z" fill="white"/>
<path opacity="0.2" d="M255.175 200.041H273.642L268.206 208.016H249.731L255.175 200.041Z" fill="white"/>
<path d="M334.351 239.016H258.559V319.125H334.351V239.016Z" fill="#2452B3"/>
<path opacity="0.4" d="M334.351 239.016H258.559V319.125H334.351V239.016Z" fill="white"/>
<path d="M258.543 239.016H211.988V319.125H258.543V239.016Z" fill="#2452B3"/>
<path opacity="0.6" d="M258.543 239.016H211.988V319.125H258.543V239.016Z" fill="white"/>
<path opacity="0.5" d="M226.369 239.016V260.533L228.218 261.559L229.813 260.158L232.336 261.559L234.733 260.158L236.59 261.559L238.717 260.158L239.924 261.309V239.016H226.369Z" fill="white"/>
<path opacity="0.5" d="M239.924 319.125V297.608L238.076 296.573L236.48 297.983L233.957 296.573L231.56 297.983L229.703 296.573L227.576 297.983L226.369 296.832V319.125H239.924Z" fill="white"/>
<path d="M289.492 271.684C289.922 273.513 290.133 274.432 290.564 276.26C290.674 276.751 290.733 277.001 290.851 277.5C291.281 279.329 291.492 280.248 291.923 282.077H303.165C303.106 282.559 303.08 282.799 303.03 283.281H292.674C292.784 283.781 292.834 284.03 292.944 284.521H303.84L304.194 282.077C304.456 280.248 304.591 279.329 304.853 277.5C304.929 277.001 304.962 276.751 305.03 276.26C305.292 274.432 305.427 273.513 305.688 271.684C305.747 271.309 305.773 271.122 305.823 270.747H309.748C309.858 270.257 309.917 270.007 310.035 269.516H304.591C304.49 270.408 304.439 270.81 304.346 271.684H289.492ZM303.84 276.26H300.616C300.616 274.922 300.667 274.253 300.709 272.915H304.211C304.026 274.253 303.958 274.922 303.84 276.26ZM300.464 280.837C300.464 279.499 300.523 278.83 300.557 277.5H303.68L303.3 280.837H300.464ZM296.244 277.5H299.358C299.358 278.83 299.358 279.499 299.358 280.837H296.514C296.438 279.499 296.379 278.83 296.244 277.5ZM295.847 272.915H299.35C299.35 274.253 299.35 274.922 299.35 276.26H296.16C296.041 274.922 295.982 274.253 295.873 272.915H295.847ZM291.965 277.5H295.088C295.24 278.83 295.324 279.499 295.484 280.837H292.64L291.965 277.5ZM291.036 272.915H294.556C294.708 274.253 294.792 274.922 294.944 276.26H291.72L291.036 272.915Z" fill="white"/>
<path d="M303.131 288.625C303.9 288.625 304.524 287.966 304.524 287.153C304.524 286.34 303.9 285.681 303.131 285.681C302.362 285.681 301.739 286.34 301.739 287.153C301.739 287.966 302.362 288.625 303.131 288.625Z" fill="white"/>
<path d="M293.248 288.625C294.017 288.625 294.64 287.966 294.64 287.153C294.64 286.34 294.017 285.681 293.248 285.681C292.479 285.681 291.855 286.34 291.855 287.153C291.855 287.966 292.479 288.625 293.248 288.625Z" fill="white"/>
<g opacity="0.5">
<path opacity="0.5" d="M225.002 271.684C225.432 273.513 225.643 274.432 226.074 276.26C226.184 276.751 226.243 277.001 226.361 277.5C226.791 279.329 227.002 280.248 227.433 282.077H238.675C238.616 282.559 238.59 282.799 238.54 283.281H228.201C228.31 283.781 228.361 284.03 228.471 284.521H239.333L239.688 282.077C239.949 280.248 240.084 279.329 240.346 277.5C240.413 277.001 240.456 276.751 240.523 276.26C240.785 274.432 240.92 273.513 241.181 271.684L241.316 270.747H245.25C245.359 270.257 245.418 270.007 245.536 269.516H240.093C239.991 270.408 239.941 270.81 239.848 271.684H225.002ZM239.35 276.26H236.126L236.219 272.915H239.696C239.553 274.253 239.477 274.922 239.333 276.26H239.35ZM235.974 280.837C236.016 279.499 236.033 278.83 236.067 277.5H239.19L238.81 280.837H235.974ZM231.796 277.5H234.911C234.911 278.83 234.911 279.499 234.911 280.837H232.1C231.965 279.499 231.906 278.83 231.796 277.5ZM231.391 272.915H234.902C234.902 274.253 234.902 274.922 234.902 276.26H231.678L231.391 272.915ZM227.517 277.5H230.64L231.028 280.837H228.192L227.517 277.5ZM226.589 272.915H230.1C230.252 274.253 230.336 274.922 230.488 276.26H227.264L226.589 272.915Z" fill="white"/>
<path opacity="0.5" d="M238.658 288.625C239.427 288.625 240.05 287.966 240.05 287.153C240.05 286.34 239.427 285.681 238.658 285.681C237.889 285.681 237.265 286.34 237.265 287.153C237.265 287.966 237.889 288.625 238.658 288.625Z" fill="white"/>
<path opacity="0.5" d="M228.775 288.625C229.544 288.625 230.167 287.966 230.167 287.153C230.167 286.34 229.544 285.681 228.775 285.681C228.005 285.681 227.382 286.34 227.382 287.153C227.382 287.966 228.005 288.625 228.775 288.625Z" fill="white"/>
</g>
<path d="M306.676 175.268C306.676 175.268 309.309 195.241 311.672 198.685C314.036 202.128 324.653 211.656 324.653 211.656L331.363 210.621L335.861 215.081L332.604 217.463L329.017 215.768C326.993 216.006 324.954 216.056 322.923 215.92C319.496 215.697 306.11 206.107 303.646 201.102C301.181 196.098 298.396 177.569 298.396 177.569L306.676 175.268Z" fill="#CE7A63"/>
<path d="M308.904 181.039L308.229 181.164C307.765 176.472 305.908 162.216 300.818 165.874C295.932 169.398 297.307 179.398 298.016 183.136L297.172 183.287L297.915 185.75L309.166 183.475L308.904 181.039Z" fill="#2452B3"/>
<path opacity="0.2" d="M304.684 171.61L303.443 168.791L299.552 172.931L297.316 176.499C297.378 178.732 297.621 180.955 298.042 183.145L297.198 183.297L297.94 185.759L304.287 184.474C304.994 180.228 305.128 175.896 304.684 171.61V171.61Z" fill="black"/>
<path d="M305.072 135.766C305.072 135.766 318.492 138.835 311.36 145.579L305.452 140.129L305.072 135.766Z" fill="#263238"/>
<path d="M323.699 285.538L315.158 307.653L309.233 305.218L314.01 283.237L323.699 285.538Z" fill="#CE7A63"/>
<path opacity="0.2" d="M314.432 281.675L311.065 297.171L318.365 298.893L324.121 283.968L314.432 281.675Z" fill="black"/>
<path d="M316.5 307.136C317.589 309.749 318.323 311.899 322.779 314.692C323.75 315.28 322.104 317.992 319.682 316.841C315.681 314.932 316.728 314.897 313.301 313.327C310.423 311.98 308.28 311.168 305.933 310.133C305.872 310.106 305.816 310.07 305.764 310.026V310.026C305.565 309.868 305.433 309.633 305.396 309.372C305.36 309.112 305.422 308.846 305.57 308.634L309.031 303.63C309.107 303.518 309.217 303.437 309.344 303.401C309.47 303.365 309.604 303.377 309.723 303.433L315.327 305.985C315.837 306.205 316.254 306.614 316.5 307.136V307.136Z" fill="#263238"/>
<path d="M342.816 233.565C341.727 247.839 322.332 295.021 322.332 295.021L310.82 291.631C310.82 291.631 319.614 246.304 325.354 238.802C325.354 238.802 323.48 238.802 320.467 238.864C309.976 238.962 285.66 238.945 278.647 236.973C273.642 235.564 263.184 232.736 265.987 215.037L278.95 214.564L294.05 214.011C294.05 214.011 344.352 214.1 342.816 233.565Z" fill="#263238"/>
<path opacity="0.2" d="M320.467 238.864C309.976 238.962 285.66 238.945 278.647 236.973C273.642 235.564 263.184 232.736 265.987 215.037L278.95 214.564C289.154 215.84 302.49 217.972 311.579 222.102C316.002 224.109 319.074 227.731 319.977 231.995C320.288 234.27 320.452 236.565 320.467 238.864Z" fill="black"/>
<path d="M303.68 284.753L299.409 307.296L292.986 306.984L293.746 284.441L303.68 284.753Z" fill="#CE7A63"/>
<path opacity="0.2" d="M303.68 284.753L293.746 284.441L293.307 297.92L301.131 298.215L303.68 284.753Z" fill="black"/>
<path d="M300.388 307.831C301.435 310.508 302.076 312.756 306.575 315.735C307.537 316.395 305.781 319.116 303.359 317.849C299.341 315.771 300.413 315.78 296.961 314.058C294.05 312.604 291.897 311.703 289.543 310.57L289.365 310.481C289.265 310.399 289.182 310.297 289.119 310.18C289.057 310.064 289.017 309.935 289.002 309.803C288.987 309.67 288.998 309.535 289.032 309.406C289.067 309.278 289.126 309.158 289.205 309.053L292.876 304.049C292.955 303.938 293.068 303.859 293.196 303.826C293.324 303.794 293.459 303.809 293.577 303.87L299.198 306.645C299.72 306.87 300.145 307.293 300.388 307.831V307.831Z" fill="#263238"/>
<path d="M258.408 214.992C258.408 214.992 254.736 228.935 260.805 234.44C269.287 242.138 299.932 239.792 299.932 239.792C294.64 257.696 292.277 293.264 292.277 293.264H303.764C303.764 293.264 319.412 244.609 317.099 232.031C314.787 219.453 273.735 215.001 273.735 215.001L258.408 214.992Z" fill="#263238"/>
<path d="M309.799 293.041L322.83 296.511L325.489 290.614L311.174 286.323L309.799 293.041Z" fill="#2452B3"/>
<path d="M291.138 294.994L304.431 295.717L305.807 289.535L291.138 288.812V294.994Z" fill="#2452B3"/>
<path d="M297.232 195.714C300.608 185.197 304.828 177.195 305.317 168.229C293.763 150.602 271.169 161.021 271.169 161.021C257.496 188.14 258.408 214.992 258.408 214.992C289.475 214.992 291.256 214.43 291.256 214.43C291.256 214.43 291.366 209.818 297.232 195.714Z" fill="#2452B3"/>
<path opacity="0.2" d="M286.8 160.504C287.298 163.608 288.336 169.211 289.568 170.022C291.256 171.111 293.788 169.585 293.788 169.585C293.788 169.585 295.839 172.52 298.008 170.566C299.226 169.334 300.176 167.836 300.793 166.177C300.155 167.327 299.349 168.362 298.405 169.246C296.21 171.191 294.185 168.265 294.185 168.265C294.185 168.265 291.653 169.781 289.965 168.702C288.851 167.997 287.551 163.564 286.8 160.504Z" fill="black"/>
<path d="M289.585 156.222L292.665 157.337L290.252 159.576L289.585 156.222Z" fill="#2452B3"/>
<path opacity="0.2" d="M289.585 156.222L292.665 157.337L290.252 159.576L289.585 156.222Z" fill="black"/>
<path d="M299.375 159.576L300.219 162.252C300.219 162.252 295.814 167.123 294.548 167.176C293.282 167.23 289.568 158.015 289.568 158.015C294.472 155.668 294.016 153.09 294.016 153.09L299.375 159.576Z" fill="#CE7A63"/>
<path opacity="0.2" d="M297.772 164.741C299.071 163.483 300.236 162.207 300.236 162.207L299.392 159.531L294.624 153.706C293.999 156.284 293.391 161.583 297.772 164.741Z" fill="black"/>
<path d="M301.89 164.143C301.097 166.106 299.924 167.872 298.447 169.326C296.244 171.271 294.227 168.354 294.227 168.354C294.227 168.354 291.695 169.862 290.007 168.782C288.319 167.703 286.116 157.801 286.116 157.801L289.585 156.222L294.362 166.927L300.802 161.298L301.89 164.143Z" fill="#2452B3"/>
<path d="M293.847 144.045C293.84 142.461 294.227 140.903 294.97 139.527C295.713 138.152 296.785 137.007 298.079 136.208C299.373 135.409 300.843 134.983 302.342 134.975C303.84 134.966 305.315 135.375 306.617 136.159C312.744 139.647 312.913 149.834 311.09 155.785C310.649 157.347 309.812 158.753 308.669 159.848C307.525 160.943 306.12 161.686 304.605 161.996C303.09 162.306 301.524 162.171 300.077 161.606C298.63 161.041 297.356 160.067 296.396 158.791C293.391 154.884 293.78 150.878 293.864 144L293.847 144.045Z" fill="#CE7A63"/>
<path d="M305.258 148.309C305.612 148.309 305.832 148.853 305.739 149.397C305.646 149.941 305.334 150.289 304.988 150.289C304.642 150.289 304.422 149.745 304.507 149.201C304.591 148.657 304.904 148.282 305.258 148.309Z" fill="#263238"/>
<path d="M311.107 149.469C311.47 149.469 311.689 149.995 311.605 150.548C311.52 151.101 311.191 151.44 310.837 151.44C310.482 151.44 310.28 150.905 310.356 150.352C310.432 149.799 310.752 149.424 311.107 149.469Z" fill="#263238"/>
<path d="M303.688 147.007C303.991 146.76 304.344 146.593 304.72 146.52C305.096 146.447 305.483 146.47 305.849 146.587V146.587C305.924 146.613 306.005 146.607 306.076 146.57C306.147 146.534 306.202 146.469 306.228 146.391C306.252 146.309 306.245 146.221 306.211 146.144C306.177 146.067 306.117 146.005 306.043 145.972C305.572 145.822 305.074 145.796 304.592 145.896C304.11 145.995 303.658 146.217 303.274 146.543C303.23 146.574 303.195 146.618 303.175 146.67C303.154 146.722 303.148 146.779 303.158 146.834C303.168 146.889 303.193 146.94 303.23 146.98C303.268 147.021 303.315 147.048 303.367 147.06C303.419 147.089 303.478 147.1 303.536 147.09C303.594 147.08 303.647 147.051 303.688 147.007Z" fill="#263238"/>
<path d="M312.584 148.746C312.652 148.7 312.701 148.628 312.72 148.545C312.739 148.462 312.726 148.374 312.685 148.3C312.445 147.844 312.107 147.453 311.698 147.16C311.289 146.867 310.821 146.68 310.33 146.614V146.614C310.265 146.616 310.203 146.641 310.152 146.685C310.102 146.728 310.067 146.788 310.052 146.855C310.042 146.897 310.04 146.94 310.046 146.982C310.052 147.025 310.066 147.066 310.087 147.102C310.109 147.139 310.137 147.17 310.17 147.195C310.203 147.22 310.24 147.238 310.28 147.248C310.676 147.311 311.052 147.471 311.38 147.714C311.708 147.957 311.979 148.276 312.17 148.648C312.193 148.695 312.226 148.735 312.268 148.765C312.309 148.795 312.357 148.813 312.407 148.818C312.471 148.812 312.532 148.787 312.584 148.746V148.746Z" fill="#263238"/>
<path d="M307.638 155.552C308.036 155.744 308.467 155.843 308.904 155.843C309.341 155.843 309.773 155.744 310.17 155.552C309.395 153.888 308.828 152.125 308.482 150.307L307.638 155.552Z" fill="#BA4D3C"/>
<path d="M293.442 148.496C290.91 138.772 295.003 136.239 299.426 134.49C303.848 132.742 306.304 134.419 307.714 136.06C308.153 136.578 309.031 138.13 306.195 138.335C304.477 138.405 302.758 138.265 301.072 137.916C300.734 137.854 300.388 137.891 300.069 138.023C299.75 138.155 299.472 138.377 299.265 138.665C298.286 140.021 296.733 142.555 296.733 144.767C296.792 145.609 296.676 146.454 296.394 147.243C296.111 148.032 295.668 148.746 295.096 149.335L293.442 148.496Z" fill="#263238"/>
<path d="M290.252 197.365C290.472 197.366 290.687 197.437 290.869 197.568C291.051 197.699 291.193 197.884 291.276 198.1C291.358 198.316 291.379 198.553 291.334 198.781C291.29 199.009 291.182 199.218 291.025 199.381C290.868 199.544 290.669 199.655 290.452 199.699C290.236 199.742 290.012 199.717 289.809 199.627C289.606 199.536 289.433 199.384 289.312 199.189C289.191 198.994 289.128 198.766 289.129 198.533C289.129 198.377 289.159 198.223 289.216 198.08C289.273 197.936 289.357 197.806 289.462 197.697C289.567 197.588 289.692 197.503 289.829 197.446C289.966 197.389 290.113 197.361 290.26 197.365H290.252Z" fill="#2452B3"/>
<path d="M287.804 209.818C287.95 209.818 288.095 209.849 288.23 209.908C288.366 209.967 288.488 210.054 288.592 210.163C288.695 210.272 288.777 210.402 288.833 210.545C288.889 210.688 288.918 210.841 288.918 210.996C288.918 211.15 288.889 211.303 288.833 211.446C288.777 211.589 288.695 211.719 288.592 211.828C288.488 211.938 288.366 212.024 288.23 212.084C288.095 212.143 287.95 212.173 287.804 212.173C287.508 212.171 287.224 212.045 287.016 211.823C286.807 211.6 286.69 211.3 286.69 210.987C286.69 210.833 286.719 210.68 286.775 210.537C286.831 210.395 286.913 210.266 287.017 210.157C287.12 210.049 287.243 209.963 287.378 209.905C287.513 209.846 287.658 209.817 287.804 209.818V209.818Z" fill="#2452B3"/>
<path d="M293.509 146.302C295.299 146.641 296.16 149.308 296.176 151.057C296.193 152.805 294.91 154.348 293.332 153.233C292.134 152.359 291.291 151.041 290.969 149.54C290.623 147.658 291.729 145.927 293.509 146.302Z" fill="#CE7A63"/>
<path d="M301.679 155.454C303.619 156.033 305.501 156.807 307.3 157.765C306.745 158.393 306.003 158.8 305.197 158.917C304.392 159.034 303.573 158.854 302.878 158.407C302.609 158.307 302.362 158.148 302.154 157.942C301.945 157.735 301.779 157.486 301.667 157.208C301.554 156.931 301.497 156.632 301.499 156.33C301.502 156.028 301.563 155.73 301.679 155.454Z" fill="#263238"/>
<path d="M304.271 157.899C303.495 157.462 302.609 157.296 301.739 157.426C302.005 157.879 302.397 158.234 302.861 158.443C303.636 158.882 304.523 159.048 305.393 158.916C305.133 158.458 304.739 158.101 304.271 157.899V157.899Z" fill="#A02724"/>
<path d="M301.882 155.508C301.852 155.683 301.87 155.864 301.933 156.03C301.995 156.195 302.1 156.339 302.236 156.445C303.431 157.029 304.67 157.503 305.942 157.863C306.137 157.941 306.347 157.965 306.554 157.934C306.761 157.903 306.956 157.817 307.123 157.685C305.432 156.816 303.68 156.089 301.882 155.508V155.508Z" fill="white"/>
<path d="M308.345 220.951L323.621 221.039L323.635 218.443L308.359 218.355L308.345 220.951Z" fill="#263238"/>
<path d="M309.602 220.962L290.19 220.851C290.039 220.85 289.89 220.818 289.751 220.756C289.612 220.694 289.486 220.604 289.38 220.491C289.274 220.377 289.19 220.243 289.133 220.096C289.076 219.948 289.048 219.79 289.048 219.631L289.055 218.257L309.615 218.375L309.602 220.971L309.602 220.962Z" fill="#263238"/>
<path opacity="0.3" d="M309.602 220.962L290.19 220.851C290.039 220.85 289.89 220.818 289.751 220.756C289.612 220.694 289.486 220.604 289.38 220.491C289.274 220.377 289.19 220.243 289.133 220.096C289.076 219.948 289.048 219.79 289.048 219.631L289.055 218.257L309.615 218.375L309.602 220.971L309.602 220.962Z" fill="white"/>
<path d="M304.07 220.095L306.526 220.109L306.531 219.19L304.075 219.176L304.07 220.095Z" fill="#263238"/>
<path d="M300.238 220.09L302.694 220.104L302.699 219.185L300.243 219.171L300.238 220.09Z" fill="#263238"/>
<path d="M312.516 218.4L310.887 218.391L317.386 195.001L319.015 195.01L312.516 218.4Z" fill="#263238"/>
<path opacity="0.3" d="M312.516 218.4L310.887 218.391L317.386 195.001L319.015 195.01L312.516 218.4Z" fill="white"/>
<path d="M311.917 218.4L340.588 218.561L347.087 195.161L318.416 195.001L311.917 218.4Z" fill="#263238"/>
<path opacity="0.6" d="M311.917 218.4L340.588 218.561L347.087 195.161L318.416 195.001L311.917 218.4Z" fill="white"/>
<path d="M310.516 218.391L340.36 218.56C340.858 218.56 341.263 219.149 341.263 219.863C341.263 220.576 340.849 221.156 340.343 221.156L310.499 220.987C310.001 220.987 309.596 220.398 309.596 219.684C309.596 218.971 310.01 218.391 310.516 218.391Z" fill="#263238"/>
<path opacity="0.5" d="M310.516 218.391L340.36 218.56C340.858 218.56 341.263 219.149 341.263 219.863C341.263 220.576 340.849 221.156 340.343 221.156L310.499 220.987C310.001 220.987 309.596 220.398 309.596 219.684C309.596 218.971 310.01 218.391 310.516 218.391Z" fill="white"/>
<path d="M309.596 219.684C309.596 220.398 310.001 220.978 310.499 220.987C310.997 220.996 311.411 220.407 311.419 219.693C311.428 218.98 311.014 218.391 310.516 218.391C310.018 218.391 309.605 218.971 309.596 219.684Z" fill="#263238"/>
<path opacity="0.3" d="M309.596 219.684C309.596 220.398 310.001 220.978 310.499 220.987C310.997 220.996 311.411 220.407 311.419 219.693C311.428 218.98 311.014 218.391 310.516 218.391C310.018 218.391 309.605 218.971 309.596 219.684Z" fill="white"/>
<path opacity="0.2" d="M281.415 196.731C280.039 194.733 278.579 187.329 277.558 181.209L278.883 180.941L278.571 178.408L277.879 178.542C277.398 173.76 275.524 159.38 270.451 162.484C268.974 165.517 267.675 168.568 266.544 171.583C266.443 174.598 266.687 177.614 267.27 180.567L266.426 180.727L267.202 183.287L269 182.931C270.072 188.836 271.633 196.312 273.085 199.274C274.992 203.163 283.213 209.657 288.716 212.815C294.902 211.656 296.312 210.835 296.312 210.835C296.135 210.589 295.99 210.319 295.881 210.032L294.885 210.184C294.885 210.184 283.871 200.308 281.415 196.731Z" fill="black"/>
<path d="M279.904 172.511C279.904 172.511 281.71 193.359 284.006 197.052C286.302 200.745 296.877 211.183 296.877 211.183L303.882 210.451L308.339 215.349L304.853 217.668L301.207 215.715C299.097 215.862 296.978 215.811 294.877 215.563C291.34 215.153 277.895 204.555 275.566 199.202C273.237 193.85 271.203 174.518 271.203 174.518L279.904 172.511Z" fill="#CE7A63"/>
<path d="M281.474 177.007L280.774 177.141C280.292 172.27 278.36 157.461 273.085 161.262C268.021 164.919 269.43 175.303 270.173 179.184L269.329 179.344L270.105 181.905L281.786 179.541L281.474 177.007Z" fill="#2452B3"/>
<path d="M110.75 248.499L108.732 248.383L109.205 238.713C109.398 235.507 110.73 232.497 112.934 230.286C115.137 228.074 118.05 226.824 121.089 226.785C122.562 226.77 124.022 227.076 125.379 227.684C126.735 228.292 127.959 229.189 128.973 230.319C129.986 231.449 130.769 232.788 131.271 234.252C131.773 235.716 131.985 237.274 131.892 238.829L131.411 248.499L129.394 248.383L129.875 238.713C129.955 237.446 129.787 236.176 129.38 234.982C128.974 233.788 128.338 232.696 127.513 231.775C126.687 230.853 125.691 230.122 124.585 229.627C123.48 229.132 122.289 228.885 121.089 228.9C118.566 228.933 116.148 229.973 114.32 231.811C112.491 233.649 111.388 236.149 111.231 238.811L110.75 248.499Z" fill="#263238"/>
<path d="M154.022 244.199H94.3761L92.3505 319L101.196 316.859L110.041 319H156.047L154.022 244.199Z" fill="#2452B3"/>
<path opacity="0.6" d="M154.022 244.199H94.3761L92.3505 319L101.196 316.859L110.041 319H156.047L154.022 244.199Z" fill="white"/>
<path d="M110.041 319L101.196 316.859L92.3505 319L94.3761 244.199H108.024L110.041 319Z" fill="#2452B3"/>
<path opacity="0.3" d="M110.041 319L101.196 316.859L92.3505 319L94.3761 244.199H108.024L110.041 319Z" fill="white"/>
<path d="M141.395 248.499L140.948 238.829C140.791 236.166 139.686 233.664 137.856 231.826C136.026 229.987 133.606 228.949 131.082 228.918C129.882 228.904 128.692 229.152 127.588 229.648C126.483 230.143 125.487 230.874 124.663 231.796C123.839 232.717 123.204 233.809 122.798 235.003C122.392 236.196 122.224 237.465 122.304 238.731L122.785 248.401L120.768 248.517L120.287 238.847C120.193 237.293 120.403 235.735 120.904 234.271C121.406 232.807 122.187 231.468 123.2 230.338C124.213 229.207 125.436 228.31 126.792 227.702C128.148 227.094 129.609 226.788 131.082 226.804C134.121 226.84 137.035 228.089 139.238 230.302C141.442 232.514 142.774 235.525 142.965 238.731L143.446 248.401L141.395 248.499Z" fill="#263238"/>
<g opacity="0.2">
<path opacity="0.2" d="M141.395 248.499L140.948 238.829C140.791 236.166 139.686 233.664 137.856 231.826C136.026 229.987 133.606 228.949 131.082 228.918C129.882 228.904 128.692 229.152 127.588 229.648C126.483 230.143 125.487 230.874 124.663 231.796C123.839 232.717 123.204 233.809 122.798 235.003C122.392 236.196 122.224 237.465 122.304 238.731L122.785 248.401L120.768 248.517L120.287 238.847C120.193 237.293 120.403 235.735 120.904 234.271C121.406 232.807 122.187 231.468 123.2 230.338C124.213 229.207 125.436 228.31 126.792 227.702C128.148 227.094 129.609 226.788 131.082 226.804C134.121 226.84 137.035 228.089 139.238 230.302C141.442 232.514 142.774 235.525 142.965 238.731L143.446 248.401L141.395 248.499Z" fill="white"/>
</g>
<path d="M145.961 271.515H118.228C117.603 271.515 117.097 272.05 117.097 272.71V277.447C117.097 278.107 117.603 278.642 118.228 278.642H145.961C146.586 278.642 147.092 278.107 147.092 277.447V272.71C147.092 272.05 146.586 271.515 145.961 271.515Z" fill="white"/>
<path d="M83.3366 271.738L81.9778 271.657L82.2985 265.181C82.42 263.026 83.3095 260.999 84.7878 259.51C86.2661 258.02 88.2235 257.178 90.2659 257.152C91.2499 257.142 92.2254 257.345 93.1319 257.75C94.0383 258.155 94.8565 258.752 95.5355 259.505C96.2145 260.258 96.7399 261.15 97.0791 262.126C97.4183 263.103 97.5641 264.142 97.5074 265.181L97.1867 271.666L95.8363 271.586L96.157 265.109C96.2082 264.26 96.0929 263.409 95.8181 262.609C95.5434 261.81 95.1152 261.079 94.5604 260.462C94.0056 259.845 93.3363 259.357 92.5943 259.027C91.8524 258.697 91.0539 258.532 90.249 258.544C88.5585 258.565 86.9381 259.261 85.7125 260.492C84.4869 261.722 83.7468 263.397 83.6405 265.181L83.3366 271.738Z" fill="#263238"/>
<path d="M112.345 268.856H72.3561L71.0057 319L76.9306 317.564L82.8639 319H113.704L112.345 268.856Z" fill="#2452B3"/>
<path d="M82.8639 319L76.9306 317.564L71.0057 319L72.3561 268.856H81.5051L82.8639 319Z" fill="#2452B3"/>
<path opacity="0.2" d="M82.8639 319L76.9306 317.564L71.0057 319L72.3561 268.856H81.5051L82.8639 319Z" fill="black"/>
<path d="M103.88 271.738L103.559 265.252C103.441 263.472 102.696 261.803 101.471 260.574C100.246 259.345 98.6304 258.647 96.942 258.615C96.1363 258.601 95.3367 258.764 94.5936 259.093C93.8504 259.422 93.18 259.911 92.6247 260.528C92.0695 261.145 91.6414 261.877 91.3675 262.678C91.0937 263.479 90.9801 264.331 91.034 265.181L91.3547 271.657L90.0043 271.738L89.6751 265.252C89.6197 264.214 89.7663 263.175 90.106 262.199C90.4456 261.224 90.9711 260.332 91.6499 259.579C92.3286 258.827 93.1462 258.229 94.0522 257.824C94.9581 257.419 95.933 257.215 96.9167 257.224C98.959 257.249 100.916 258.091 102.395 259.581C103.873 261.071 104.762 263.097 104.884 265.252L105.205 271.729L103.88 271.738Z" fill="#263238"/>
<g opacity="0.2">
<path opacity="0.2" d="M103.88 271.738L103.559 265.252C103.441 263.472 102.696 261.803 101.471 260.574C100.246 259.345 98.6304 258.647 96.942 258.615C96.1363 258.601 95.3367 258.764 94.5936 259.093C93.8504 259.422 93.18 259.911 92.6247 260.528C92.0695 261.145 91.6414 261.877 91.3675 262.678C91.0937 263.479 90.9801 264.331 91.034 265.181L91.3547 271.657L90.0043 271.738L89.6751 265.252C89.6197 264.214 89.7663 263.175 90.106 262.199C90.4456 261.224 90.9711 260.332 91.6499 259.579C92.3286 258.827 93.1462 258.229 94.0522 257.824C94.9581 257.419 95.933 257.215 96.9167 257.224C98.959 257.249 100.916 258.091 102.395 259.581C103.873 261.071 104.762 263.097 104.884 265.252L105.205 271.729L103.88 271.738Z" fill="white"/>
</g>
<path d="M106.563 287.171H88.7213C88.0967 287.171 87.5903 287.706 87.5903 288.366V290.748C87.5903 291.408 88.0967 291.943 88.7213 291.943H106.563C107.188 291.943 107.694 291.408 107.694 290.748V288.366C107.694 287.706 107.188 287.171 106.563 287.171Z" fill="white"/>
<path d="M144.898 314.103L138.475 313.398L138.796 297.537L145.219 298.242L144.898 314.103Z" fill="#B55B52"/>
<path d="M199.235 291.355L193.487 294.45L184.844 281.354L190.601 278.259L199.235 291.355Z" fill="#B55B52"/>
<path d="M192.289 293.603L198.197 289.142C198.297 289.064 198.421 289.028 198.545 289.039C198.669 289.051 198.785 289.11 198.872 289.205L202.872 293.665C202.97 293.78 203.043 293.915 203.087 294.062C203.132 294.209 203.147 294.364 203.131 294.517C203.115 294.67 203.068 294.818 202.995 294.951C202.921 295.084 202.822 295.199 202.704 295.289C200.619 296.805 199.539 297.421 196.939 299.383C195.344 300.588 193.124 302.523 190.921 304.183C188.718 305.842 187.039 303.63 187.815 302.729C191.301 298.688 191.082 296.903 191.639 294.629C191.733 294.216 191.963 293.852 192.289 293.603V293.603Z" fill="#263238"/>
<path d="M137.927 312.542L145.143 313.336C145.267 313.346 145.383 313.405 145.468 313.501C145.554 313.596 145.603 313.722 145.607 313.853L145.835 319.982C145.836 320.136 145.806 320.289 145.747 320.43C145.688 320.571 145.601 320.698 145.493 320.802C145.385 320.905 145.257 320.983 145.118 321.031C144.979 321.079 144.832 321.095 144.687 321.079C142.155 320.749 140.982 320.463 137.808 320.115C135.85 319.892 130.212 319.491 127.529 319.223C124.845 318.956 124.997 316.092 126.119 315.958C131.259 315.37 134.973 314.174 136.813 312.863C137.137 312.621 137.531 312.507 137.927 312.542V312.542Z" fill="#263238"/>
<g opacity="0.2">
<path opacity="0.2" d="M138.796 297.537L138.627 305.717L145.058 306.422L145.219 298.251L138.796 297.537Z" fill="black"/>
<path opacity="0.2" d="M190.601 278.268L184.844 281.363L189.301 288.107L195.057 285.012L190.601 278.268Z" fill="black"/>
</g>
<path d="M141.868 160.513C141.868 160.513 135.209 212.905 135.04 233.726C134.838 255.386 137.437 304.004 137.437 304.004L146.122 304.959C146.122 304.959 149.65 257.143 151.051 235.921C152.587 212.771 161.094 161.164 161.094 161.164L141.868 160.513Z" fill="#263238"/>
<path d="M146.814 305.36L136.618 304.236L136.213 300.721L147.666 301.56L146.814 305.36Z" fill="#2452B3"/>
<path opacity="0.6" d="M152.764 173.956C145.911 187.436 150.316 212.584 152.317 221.951C153.895 208.034 156.376 191.04 158.284 178.568C157.541 171.45 155.946 167.756 152.764 173.956Z" fill="black"/>
<path d="M148.789 160.745C148.789 160.745 153.102 215.581 157.06 233.271C161.761 254.28 187.233 287.447 187.233 287.447L195.082 283.228C195.082 283.228 177.822 246.367 174.083 235.252C166.091 211.549 174.573 176.9 168.083 161.387L148.789 160.745Z" fill="#263238"/>
<path d="M196.196 283.174L186.457 288.411L183.865 285.735L195.057 279.026L196.196 283.174Z" fill="#2452B3"/>
<path d="M190.018 296.404H189.942C189.794 296.384 189.654 296.324 189.535 296.228C189.417 296.133 189.324 296.005 189.267 295.86C189.22 295.776 189.196 295.68 189.196 295.583C189.196 295.486 189.22 295.39 189.267 295.307C189.681 294.548 192.01 294.415 192.272 294.415C192.302 294.414 192.332 294.423 192.358 294.44C192.383 294.458 192.403 294.483 192.415 294.513C192.434 294.537 192.444 294.567 192.444 294.597C192.444 294.628 192.434 294.658 192.415 294.682C191.85 295.351 190.828 296.431 190.018 296.404ZM191.917 294.763C190.989 294.834 189.748 295.066 189.529 295.458C189.508 295.496 189.497 295.539 189.497 295.583C189.497 295.627 189.508 295.67 189.529 295.708C189.566 295.805 189.627 295.89 189.706 295.954C189.784 296.019 189.878 296.06 189.976 296.074C190.415 296.172 191.132 295.646 191.917 294.763Z" fill="#2452B3"/>
<path d="M192.061 294.744C191.259 294.744 189.799 294.272 189.529 293.62C189.479 293.503 189.47 293.372 189.502 293.248C189.535 293.124 189.607 293.016 189.706 292.942C189.79 292.857 189.891 292.792 190.002 292.753C190.114 292.715 190.231 292.703 190.347 292.719C191.284 292.826 192.364 294.414 192.415 294.504C192.428 294.528 192.434 294.556 192.434 294.584C192.434 294.612 192.428 294.639 192.415 294.664C192.403 294.689 192.385 294.711 192.363 294.727C192.341 294.742 192.315 294.752 192.289 294.753C192.212 294.759 192.136 294.756 192.061 294.744V294.744ZM190.263 293.041C190.197 293.035 190.131 293.044 190.068 293.067C190.006 293.09 189.948 293.126 189.9 293.174C189.757 293.317 189.773 293.415 189.799 293.487C189.984 293.924 191.191 294.379 191.976 294.423C191.588 293.915 190.862 293.103 190.288 293.041H190.263Z" fill="#2452B3"/>
<path d="M135.403 313.461C134.848 313.453 134.312 313.246 133.884 312.872C133.79 312.764 133.722 312.634 133.686 312.493C133.651 312.351 133.649 312.202 133.681 312.06C133.696 311.972 133.731 311.888 133.785 311.818C133.838 311.748 133.907 311.693 133.985 311.659C134.829 311.293 137.243 312.952 137.513 313.148C137.54 313.165 137.562 313.19 137.574 313.221C137.586 313.252 137.588 313.286 137.58 313.318C137.573 313.351 137.557 313.381 137.532 313.404C137.508 313.426 137.478 313.44 137.445 313.443C136.767 313.516 136.083 313.522 135.403 313.461V313.461ZM134.39 311.926C134.295 311.906 134.198 311.906 134.103 311.926C134.071 311.941 134.044 311.965 134.023 311.995C134.002 312.024 133.989 312.059 133.985 312.096C133.962 312.188 133.961 312.284 133.983 312.376C134.005 312.469 134.049 312.553 134.112 312.622C134.466 313.041 135.513 313.22 136.964 313.131C136.175 312.581 135.305 312.174 134.39 311.926V311.926Z" fill="#2452B3"/>
<path d="M137.412 313.443C137.412 313.443 137.369 313.443 137.353 313.443C136.627 312.996 135.251 311.364 135.445 310.606C135.496 310.427 135.639 310.213 136.061 310.213C136.219 310.209 136.376 310.241 136.521 310.305C136.666 310.37 136.797 310.466 136.905 310.588C137.639 311.391 137.614 313.264 137.606 313.309C137.607 313.336 137.6 313.364 137.587 313.388C137.573 313.411 137.553 313.43 137.53 313.443C137.492 313.458 137.45 313.458 137.412 313.443V313.443ZM136.154 310.516H136.061C135.783 310.516 135.757 310.624 135.74 310.668C135.631 311.123 136.542 312.381 137.277 312.97C137.287 312.192 137.072 311.429 136.66 310.784C136.526 310.636 136.347 310.541 136.154 310.516V310.516Z" fill="#2452B3"/>
<path d="M139.1 132.662C136.709 136.036 134.031 139.172 131.098 142.029C129.547 143.568 127.85 144.934 126.034 146.106C124.965 146.799 123.812 147.339 122.608 147.711C121.845 147.944 121.055 148.058 120.261 148.05C119.787 148.045 119.315 147.988 118.852 147.881C118.616 147.818 118.362 147.738 118.126 147.649C117.849 147.546 117.58 147.418 117.324 147.265C116.728 146.925 116.207 146.453 115.797 145.883C115.482 145.461 115.224 144.996 115.029 144.5C114.74 143.782 114.544 143.025 114.446 142.252C114.298 141.054 114.256 139.845 114.32 138.639C114.46 136.506 114.742 134.387 115.164 132.296C115.937 128.264 116.992 124.298 118.32 120.431L121.814 121.386C121.316 125.266 120.852 129.227 120.574 133.063C120.421 134.923 120.376 136.791 120.439 138.657C120.455 139.453 120.549 140.245 120.717 141.021C120.758 141.236 120.829 141.443 120.928 141.636C120.979 141.725 120.928 141.449 120.439 141.119C120.261 141.03 120.321 141.039 120.278 141.03C120.425 140.994 120.569 140.947 120.709 140.887C121.304 140.63 121.87 140.304 122.397 139.915C123.749 138.894 125.022 137.76 126.203 136.525C127.461 135.231 128.668 133.848 129.858 132.394C131.048 130.94 132.238 129.459 133.327 128.041L139.1 132.662Z" fill="#B55B52"/>
<path d="M137.69 122.84C135.049 122.073 127.208 132.653 127.208 132.653L134.702 141.493C134.702 141.493 143.489 133.108 143.142 129.352C142.813 125.427 141.556 124 137.69 122.84Z" fill="#2452B3"/>
<path d="M121.907 120.431L121.612 114.874L116.548 119.281C116.548 119.281 117.316 123.589 119.873 124.446L121.452 122.1C121.775 121.612 121.935 121.025 121.907 120.431V120.431Z" fill="#B55B52"/>
<path d="M118.312 110.288L114.261 114.231L116.54 119.263L121.612 114.856L118.312 110.288Z" fill="#B55B52"/>
<path d="M116.253 121.038L115.079 120.592C114.763 120.466 114.498 120.226 114.331 119.915C114.164 119.603 114.107 119.24 114.168 118.888L115.949 108.879L119.147 110.11L118.16 119.78C118.139 120.009 118.068 120.229 117.954 120.424C117.839 120.619 117.684 120.784 117.499 120.905C117.315 121.027 117.107 121.102 116.891 121.125C116.674 121.148 116.456 121.118 116.253 121.038Z" fill="#263238"/>
<path d="M124.684 108.326C124.887 107.746 125.081 107.175 125.258 106.604C124.538 105.377 123.573 104.329 122.431 103.535C122.009 104.633 121.587 105.783 121.173 106.97C120.76 108.156 120.388 109.325 120.051 110.458C121.409 110.624 122.785 110.478 124.085 110.03C124.288 109.468 124.49 108.906 124.684 108.326Z" fill="#263238"/>
<path d="M122.566 107.514C123.065 106.124 123.424 104.683 123.638 103.214L113.147 99.173L110.294 107.46L120.793 111.51C121.513 110.247 122.107 108.907 122.566 107.514V107.514Z" fill="#2452B3"/>
<path opacity="0.6" d="M122.566 107.514C123.065 106.124 123.424 104.683 123.638 103.214L113.147 99.173L110.294 107.46L120.793 111.51C121.513 110.247 122.107 108.907 122.566 107.514V107.514Z" fill="white"/>
<path d="M115.873 99.4496C115.4 99.2622 104.057 86.9604 102.791 86.4341C101.525 85.9077 98.4611 90.7964 96.1992 97.3621C93.9373 103.928 93.2283 109.673 94.604 110.208C95.9797 110.743 112.058 108.95 112.539 109.129C113.02 109.307 114.303 107.345 115.223 104.668C116.143 101.992 116.472 99.6637 115.873 99.4496Z" fill="#2452B3"/>
<path opacity="0.4" d="M115.873 99.4496C115.4 99.2622 104.057 86.9604 102.791 86.4341C101.525 85.9077 98.4611 90.7964 96.1992 97.3621C93.9373 103.928 93.2283 109.673 94.604 110.208C95.9797 110.743 112.058 108.95 112.539 109.129C113.02 109.307 114.303 107.345 115.223 104.668C116.143 101.992 116.472 99.6637 115.873 99.4496Z" fill="white"/>
<path d="M101.196 99.2801C98.9338 105.846 95.9797 110.734 94.604 110.208C93.2283 109.682 93.9373 103.964 96.1992 97.3621C98.4611 90.7607 101.415 85.9077 102.791 86.4341C104.167 86.9604 103.458 92.7233 101.196 99.2801Z" fill="#2452B3"/>
<path d="M97.9041 97.9955C97.7522 98.4326 97.6087 98.8875 97.4736 99.289C98.2526 100.321 99.2054 101.192 100.284 101.858C100.605 101.037 100.926 100.172 101.238 99.2801C101.55 98.388 101.82 97.4959 102.082 96.6573C100.851 96.436 99.5919 96.4572 98.3683 96.7198C98.1573 97.1391 98.0054 97.5673 97.9041 97.9955Z" fill="#263238"/>
<path opacity="0.7" d="M97.9041 97.9955C97.7522 98.4326 97.6087 98.8875 97.4736 99.289C98.2526 100.321 99.2054 101.192 100.284 101.858C100.605 101.037 100.926 100.172 101.238 99.2801C101.55 98.388 101.82 97.4959 102.082 96.6573C100.851 96.436 99.5919 96.4572 98.3683 96.7198C98.1573 97.1391 98.0054 97.5673 97.9041 97.9955Z" fill="white"/>
<path opacity="0.2" d="M135.479 129.058C135.867 134.99 134.559 138.523 133.63 140.227L134.702 141.484C134.702 141.484 139.657 136.756 141.986 132.813C139.37 128.71 135.04 122.822 135.479 129.058Z" fill="black"/>
<path d="M164.985 95.3193C168.504 95.3193 171.357 92.3039 171.357 88.5841C171.357 84.8643 168.504 81.8489 164.985 81.8489C161.466 81.8489 158.613 84.8643 158.613 88.5841C158.613 92.3039 161.466 95.3193 164.985 95.3193Z" fill="#263238"/>
<path d="M164.301 91.6528C164.303 92.4913 164.069 93.3114 163.63 94.0094C163.19 94.7074 162.565 95.2519 161.832 95.574C161.1 95.8961 160.294 95.9813 159.516 95.8188C158.737 95.6563 158.022 95.2534 157.461 94.6612C156.899 94.0689 156.516 93.3139 156.361 92.4917C156.206 91.6695 156.285 90.817 156.588 90.0422C156.891 89.2674 157.405 88.6051 158.064 88.1391C158.724 87.6731 159.499 87.4243 160.292 87.4243C161.354 87.4243 162.373 87.8695 163.124 88.6623C163.876 89.455 164.299 90.5305 164.301 91.6528V91.6528Z" fill="#2452B3"/>
<path d="M147.565 86.3984C147.565 86.3984 139.125 85.6669 139.125 101.011C139.125 111.519 143.953 116.381 149.869 112.849C149.869 112.849 162.917 111.716 164.42 99.0928C165.922 86.4698 156.689 81.7685 147.565 86.3984Z" fill="#263238"/>
<path d="M135.968 123.25C135.968 123.25 132.972 124.624 141.876 164.099L168.04 162.092C166.825 150.869 166.352 143.938 169.838 120.449C166.12 119.932 162.371 119.699 158.621 119.753C154.645 119.753 150.674 120.051 146.738 120.645C141.665 121.555 135.968 123.25 135.968 123.25Z" fill="#2452B3"/>
<path d="M156.461 105.703C155.988 109.807 155.752 117.3 158.613 119.753C158.613 119.753 157.853 123.928 150.747 124.481C142.94 125.079 146.729 120.663 146.729 120.663C150.949 119.263 150.578 115.926 149.624 112.849L156.461 105.703Z" fill="#B55B52"/>
<path opacity="0.2" d="M153.676 108.62L149.624 112.849C149.858 113.563 150.033 114.297 150.148 115.043C151.76 114.669 153.861 112.608 153.912 110.797C153.96 110.062 153.879 109.324 153.676 108.62V108.62Z" fill="black"/>
<path d="M160.833 98.8876C159.373 105.48 158.883 108.308 155.144 111.154C149.523 115.436 142.18 112.09 141.75 105.168C141.362 98.9232 143.818 89.1995 150.426 87.6562C151.88 87.3109 153.393 87.3639 154.822 87.8103C156.251 88.2567 157.548 89.0816 158.59 90.2067C159.633 91.3319 160.386 92.72 160.779 94.2392C161.171 95.7585 161.19 97.3586 160.833 98.8876V98.8876Z" fill="#B55B52"/>
<path d="M150.072 98.8431C149.987 99.3873 149.641 99.7352 149.312 99.7352C148.983 99.7352 148.772 99.1821 148.856 98.6379C148.941 98.0938 149.295 97.7458 149.624 97.7458C149.953 97.7458 150.164 98.2989 150.072 98.8431Z" fill="#263238"/>
<path d="M144.273 97.7992C144.18 98.3344 143.843 98.6912 143.505 98.6912C143.168 98.6912 142.965 98.1471 143.058 97.6029C143.151 97.0587 143.488 96.7108 143.826 96.7108C144.164 96.7108 144.324 97.2371 144.273 97.7992Z" fill="#263238"/>
<path d="M143.97 96.7645L142.796 96.1578C142.796 96.1578 143.261 97.2908 143.97 96.7645Z" fill="#263238"/>
<path d="M146.316 99.0927C145.66 100.25 144.856 101.307 143.927 102.233C144.158 102.476 144.436 102.663 144.742 102.782C145.048 102.9 145.375 102.947 145.7 102.92L146.316 99.0927Z" fill="#A02724"/>
<path d="M161.559 105.311C160.929 106.44 159.904 107.264 158.706 107.603C157.119 108.031 156.36 106.515 156.832 104.927C157.254 103.518 158.596 101.6 160.208 101.858C160.553 101.927 160.876 102.085 161.149 102.319C161.421 102.553 161.634 102.855 161.768 103.198C161.902 103.541 161.953 103.913 161.917 104.282C161.88 104.651 161.757 105.005 161.559 105.311Z" fill="#B55B52"/>
<path d="M152.604 98.0133C152.539 98.0122 152.476 97.9891 152.424 97.9473C152.372 97.9056 152.335 97.8474 152.317 97.7814C151.903 96.354 150.173 95.7474 150.156 95.7385C150.118 95.725 150.082 95.7037 150.052 95.6758C150.022 95.6479 149.997 95.6139 149.979 95.5758C149.961 95.5377 149.95 95.4962 149.947 95.4537C149.944 95.4112 149.949 95.3686 149.962 95.3281C149.975 95.2877 149.995 95.2504 150.021 95.2182C150.048 95.186 150.08 95.1596 150.116 95.1406C150.152 95.1215 150.191 95.1102 150.231 95.1071C150.272 95.1041 150.312 95.1095 150.35 95.123C150.913 95.3234 151.429 95.647 151.866 96.0729C152.302 96.4987 152.648 97.017 152.882 97.594C152.894 97.6344 152.898 97.6769 152.894 97.719C152.89 97.7611 152.879 97.8019 152.86 97.8392C152.841 97.8765 152.815 97.9095 152.784 97.9363C152.753 97.9631 152.718 97.9832 152.68 97.9955C152.656 98.0064 152.63 98.0124 152.604 98.0133Z" fill="#263238"/>
<path d="M142.982 94.65C142.917 94.6444 142.855 94.6174 142.805 94.5727C142.756 94.5281 142.72 94.4681 142.705 94.4011C142.689 94.3341 142.693 94.2636 142.717 94.1995C142.741 94.1353 142.784 94.0807 142.839 94.0434C143.254 93.7771 143.724 93.6202 144.209 93.5861C144.693 93.5519 145.179 93.6415 145.624 93.8471C145.66 93.8665 145.692 93.8931 145.718 93.9255C145.744 93.958 145.764 93.9956 145.777 94.0361C145.789 94.0767 145.794 94.1195 145.791 94.1621C145.788 94.2047 145.777 94.2462 145.759 94.2843C145.741 94.3223 145.715 94.3562 145.685 94.384C145.654 94.4118 145.618 94.4329 145.58 94.4462C145.542 94.4594 145.501 94.4645 145.461 94.4613C145.421 94.458 145.381 94.4463 145.345 94.427C144.992 94.2671 144.607 94.1998 144.223 94.2308C143.84 94.2619 143.469 94.3904 143.142 94.6054C143.093 94.6338 143.038 94.6491 142.982 94.65V94.65Z" fill="#263238"/>
<path d="M149.768 97.8081L148.595 97.2104C148.595 97.2104 149.067 98.3434 149.768 97.8081Z" fill="#263238"/>
<path d="M146.206 104.606C148.353 104.134 150.538 103.883 152.73 103.856C152.232 105.418 151.236 106.72 148.763 106.818C148.456 106.863 148.143 106.84 147.845 106.751C147.546 106.663 147.268 106.51 147.028 106.302C146.788 106.094 146.591 105.836 146.45 105.544C146.308 105.253 146.225 104.933 146.206 104.606Z" fill="#263238"/>
<path d="M149.852 105.56C148.902 105.552 147.973 105.865 147.202 106.452C147.672 106.749 148.218 106.883 148.763 106.836C149.714 106.844 150.642 106.531 151.414 105.944C150.946 105.641 150.398 105.506 149.852 105.56Z" fill="#A02724"/>
<path d="M146.426 104.552C146.483 104.738 146.587 104.903 146.727 105.03C146.867 105.158 147.037 105.242 147.219 105.275C148.639 105.195 150.05 104.992 151.439 104.668C151.665 104.639 151.88 104.55 152.064 104.41C152.248 104.27 152.396 104.082 152.494 103.865C150.457 103.927 148.428 104.157 146.426 104.552V104.552Z" fill="white"/>
<path d="M142.839 94.0436C144.76 93.1838 146.431 91.8019 147.683 90.0381C147.683 90.0381 147.683 94.784 149.515 94.4182C151.346 94.0525 148.595 90.0292 148.595 90.0292C148.595 90.0292 152.815 92.0096 154.258 95.8812C155.701 99.7529 157.347 103.981 160.596 102.929C163.846 101.876 163.128 90.9034 158.343 88.1647L151.591 86.8801L149.599 87.1924C148.565 87.3479 147.573 87.7308 146.687 88.3164C145.352 89.1819 144.302 90.4625 143.683 91.9828L142.839 94.0436Z" fill="#263238"/>
<path d="M158.596 94.6146C158.284 93.9187 156.79 93.9812 155.22 94.7484C153.65 95.5156 153.625 96.2382 153.937 96.934C154.25 97.6298 154.781 98.0312 156.351 97.264C157.921 96.4969 158.908 95.3104 158.596 94.6146ZM154.975 96.3987C154.756 95.8992 154.798 95.3907 155.895 94.8376C156.993 94.2845 158.064 94.2488 158.284 94.7484C158.503 95.2479 157.803 96.0954 156.706 96.6396C155.608 97.1838 155.203 96.9251 154.975 96.4255V96.3987Z" fill="#2452B3"/>
<path opacity="0.2" d="M166.943 129.602L164.96 127.818L163.491 128.523C162.981 134.014 164.304 139.52 167.23 144.089C167.357 141.119 167.618 137.773 168.074 133.777C167.45 131.368 166.943 129.602 166.943 129.602Z" fill="black"/>
<path d="M193.681 151.342L192.609 151.458L192.103 146.346C191.95 144.646 192.412 142.948 193.395 141.593C194.378 140.237 195.81 139.326 197.403 139.04C198.173 138.903 198.962 138.935 199.72 139.134C200.478 139.333 201.189 139.694 201.809 140.197C202.429 140.699 202.945 141.33 203.324 142.052C203.703 142.774 203.937 143.571 204.012 144.393L204.527 149.504L203.455 149.629L202.948 144.509C202.886 143.839 202.696 143.19 202.388 142.601C202.08 142.012 201.662 141.495 201.159 141.083C200.655 140.673 200.076 140.378 199.459 140.215C198.842 140.052 198.199 140.026 197.572 140.138C196.25 140.375 195.061 141.132 194.245 142.257C193.43 143.382 193.047 144.792 193.175 146.204L193.681 151.342Z" fill="#263238"/>
<path d="M173.788 128.46C173.94 129.227 174.143 130.173 174.337 131.038C174.531 131.904 174.759 132.822 174.995 133.715C175.468 135.499 175.966 137.22 176.565 138.907C177.643 142.19 179.177 145.286 181.114 148.095L181.291 148.336L181.376 148.461L181.274 148.354C181.139 148.229 180.981 148.135 180.81 148.077C180.557 148.006 180.565 148.077 180.734 148.077C181.332 148.044 181.922 147.912 182.481 147.685C184.044 147.082 185.557 146.345 187.005 145.481C190.069 143.697 193.166 141.663 196.163 139.602L198.5 142.511C195.872 145.398 193.015 148.043 189.959 150.414C188.339 151.678 186.61 152.777 184.794 153.697C183.675 154.265 182.479 154.644 181.249 154.821C180.307 154.944 179.351 154.834 178.455 154.5C177.858 154.266 177.309 153.915 176.835 153.465C176.717 153.349 176.59 153.224 176.489 153.108L176.354 152.957L176.084 152.645C174.694 151.021 173.477 149.241 172.455 147.337C171.457 145.517 170.586 143.624 169.847 141.672C169.121 139.742 168.49 137.774 167.956 135.775C167.694 134.794 167.45 133.804 167.23 132.805C167.011 131.806 166.808 130.833 166.639 129.691L173.788 128.46Z" fill="#B55B52"/>
<path d="M169.83 120.431C172.505 121.074 177.189 131.297 177.189 131.297L166.673 138.835C166.673 138.835 162.453 131.154 163.297 127.488C164.158 123.687 166.774 119.718 169.83 120.431Z" fill="#2452B3"/>
<path d="M195.724 139.558L201.834 135.99L200.551 142.796C200.551 142.796 196.601 144.125 194.643 142.145L195.724 139.558Z" fill="#B55B52"/>
<path d="M207.194 136.908L205.826 142.555L200.551 142.805L201.834 135.998L207.194 136.908Z" fill="#B55B52"/>
<path d="M209.759 148.648L208.747 143.617C208.456 142.233 207.681 141.018 206.577 140.214C205.474 139.409 204.123 139.076 202.796 139.281C202.166 139.379 201.561 139.613 201.021 139.97C200.48 140.326 200.015 140.797 199.654 141.352C199.294 141.907 199.045 142.535 198.925 143.197C198.805 143.858 198.816 144.539 198.956 145.196L199.969 150.227L198.922 150.468L197.91 145.437C197.737 144.629 197.725 143.793 197.872 142.98C198.02 142.167 198.325 141.396 198.768 140.713C199.211 140.031 199.782 139.452 200.446 139.014C201.11 138.576 201.853 138.287 202.628 138.166C204.226 137.918 205.854 138.318 207.184 139.286C208.515 140.254 209.45 141.718 209.802 143.385L210.814 148.416L209.759 148.648Z" fill="#263238"/>
<g opacity="0.3">
<path opacity="0.3" d="M209.759 148.648L208.747 143.617C208.456 142.233 207.681 141.018 206.577 140.214C205.474 139.409 204.123 139.076 202.796 139.281C202.166 139.379 201.561 139.613 201.021 139.97C200.48 140.326 200.015 140.797 199.654 141.352C199.294 141.907 199.045 142.535 198.925 143.197C198.805 143.858 198.816 144.539 198.956 145.196L199.969 150.227L198.922 150.468L197.91 145.437C197.737 144.629 197.725 143.793 197.872 142.98C198.02 142.167 198.325 141.396 198.768 140.713C199.211 140.031 199.782 139.452 200.446 139.014C201.11 138.576 201.853 138.287 202.628 138.166C204.226 137.918 205.854 138.318 207.184 139.286C208.515 140.254 209.45 141.718 209.802 143.385L210.814 148.416L209.759 148.648Z" fill="white"/>
</g>
<path d="M216.056 145.285L184.752 150.521L189.571 189.952L194.044 188.051L198.855 188.399L222.993 184.358L216.056 145.285Z" fill="#2452B3"/>
<path opacity="0.6" d="M216.056 145.285L184.752 150.521L189.571 189.952L194.044 188.051L198.855 188.399L222.993 184.358L216.056 145.285Z" fill="white"/>
<path d="M198.855 188.399L194.044 188.051L189.571 189.952L184.752 150.521L191.909 149.326L198.855 188.399Z" fill="#2452B3"/>
<path opacity="0.3" d="M198.855 188.399L194.044 188.051L189.571 189.952L184.752 150.521L191.909 149.326L198.855 188.399Z" fill="white"/>
<path d="M212.98 162.269L200.034 164.437C199.339 164.553 198.865 165.243 198.975 165.978L198.993 166.101C199.103 166.836 199.756 167.337 200.451 167.221L213.397 165.054C214.092 164.937 214.567 164.247 214.457 163.512L214.438 163.389C214.328 162.654 213.675 162.153 212.98 162.269Z" fill="white"/>
</svg>
